{"glyphs":{"0":{"ha":806,"x_min":31,"x_max":774,"o":"m 774 504 q 746 275 774 372 q 667 114 717 178 q 549 20 617 51 q 401 -11 481 -11 q 254 20 322 -11 q 137 114 186 51 q 59 275 88 178 q 31 504 31 372 q 59 733 31 636 q 137 893 88 830 q 254 988 186 957 q 401 1019 322 1019 q 549 988 481 1019 q 667 893 617 957 q 746 733 717 830 q 774 504 774 636 m 576 504 q 561 681 576 611 q 522 790 547 750 q 466 847 498 831 q 401 863 435 863 q 337 847 368 863 q 282 790 306 831 q 244 681 258 750 q 229 504 229 611 q 244 327 229 397 q 282 217 258 258 q 337 161 306 177 q 401 145 368 145 q 466 161 435 145 q 522 217 498 177 q 561 327 547 258 q 576 504 576 397 z "},"1":{"ha":806,"x_min":82,"x_max":724,"o":"m 724 141 l 724 0 l 158 0 l 158 141 l 358 141 l 358 692 q 359 729 358 710 q 361 767 360 748 l 229 658 q 202 644 215 647 q 177 644 189 642 q 156 652 165 647 q 142 665 147 658 l 82 746 l 392 1008 l 549 1008 l 549 141 l 724 141 z "},"2":{"ha":806,"x_min":48,"x_max":747,"o":"m 680 176 q 729 158 711 176 q 747 113 747 141 l 747 0 l 48 0 l 48 63 q 56 102 48 81 q 81 140 63 123 l 380 440 q 447 513 418 478 q 496 582 476 548 q 525 650 515 615 q 535 723 535 685 q 500 825 535 790 q 402 860 465 860 q 351 852 374 860 q 309 831 328 844 q 278 798 291 817 q 258 757 265 779 q 225 711 246 722 q 165 706 203 699 l 63 724 q 105 853 74 797 q 181 945 135 908 q 286 1000 227 982 q 413 1019 345 1019 q 543 998 485 1019 q 644 939 602 976 q 708 847 685 901 q 731 729 731 794 q 715 626 731 674 q 672 536 699 579 q 608 453 644 494 q 532 372 572 413 l 318 153 q 388 170 353 164 q 453 176 423 176 l 680 176 z "},"3":{"ha":806,"x_min":40,"x_max":745,"o":"m 69 724 q 110 853 80 797 q 187 945 141 908 q 291 1000 233 982 q 418 1019 350 1019 q 548 998 490 1019 q 644 942 605 978 q 705 860 684 907 q 726 758 726 813 q 716 674 726 710 q 686 610 706 638 q 638 565 667 583 q 572 533 609 546 q 745 302 745 476 q 717 166 745 225 q 640 68 688 108 q 529 9 592 28 q 396 -11 465 -11 q 266 6 322 -11 q 167 56 210 22 q 94 139 124 89 q 40 257 63 190 l 125 292 q 187 299 158 306 q 228 269 216 293 q 258 220 242 242 q 293 182 274 198 q 337 156 313 165 q 394 147 362 147 q 464 160 434 147 q 514 195 494 174 q 544 243 534 216 q 554 296 554 269 q 548 359 554 331 q 519 407 542 387 q 452 437 497 426 q 333 448 408 448 l 333 583 q 436 593 396 583 q 499 622 476 603 q 531 667 522 641 q 540 725 540 694 q 505 826 540 791 q 408 860 471 860 q 357 852 380 860 q 315 831 333 844 q 283 798 297 817 q 264 757 270 779 q 230 711 251 722 q 169 706 209 699 l 69 724 z "},"4":{"ha":806,"x_min":1,"x_max":772,"o":"m 489 385 l 489 685 q 491 735 489 708 q 496 791 492 762 l 204 385 l 489 385 m 772 385 l 772 276 q 762 250 772 261 q 734 240 752 240 l 656 240 l 656 0 l 489 0 l 489 240 l 73 240 q 40 251 55 240 q 22 280 25 262 l 1 376 l 474 1008 l 656 1008 l 656 385 l 772 385 z "},"5":{"ha":806,"x_min":53,"x_max":735,"o":"m 294 647 q 354 656 325 653 q 410 658 383 658 q 550 634 489 658 q 652 569 610 610 q 714 471 693 527 q 735 350 735 415 q 706 203 735 269 q 627 89 678 137 q 507 15 577 42 q 355 -11 438 -11 q 263 -1 307 -11 q 182 26 219 9 q 111 65 144 43 q 53 112 78 88 l 112 192 q 160 218 131 218 q 197 207 179 218 q 238 182 215 196 q 292 158 261 169 q 366 147 322 147 q 444 161 411 147 q 500 202 478 176 q 532 264 522 228 q 543 341 543 300 q 498 462 543 419 q 368 505 453 505 q 227 478 298 505 l 108 512 l 193 1008 l 699 1008 l 699 927 q 693 891 699 907 q 673 862 687 874 q 639 843 660 850 q 587 837 617 837 l 326 837 l 294 647 z "},"6":{"ha":806,"x_min":51,"x_max":766,"o":"m 376 646 l 346 609 q 403 627 372 621 q 469 633 433 633 q 578 615 525 633 q 674 558 632 596 q 741 464 715 521 q 766 331 766 408 q 740 199 766 261 q 666 90 714 136 q 552 16 619 43 q 405 -11 486 -11 q 257 15 322 -11 q 146 88 192 41 q 76 201 100 135 q 51 346 51 267 q 80 494 51 419 q 168 648 109 569 l 402 963 q 443 994 416 981 q 505 1008 470 1008 l 675 1008 l 376 646 m 401 143 q 471 156 439 143 q 526 193 503 169 q 562 248 549 217 q 575 317 575 280 q 563 391 575 358 q 527 446 550 424 q 472 481 504 469 q 401 492 440 492 q 334 480 365 492 q 282 443 303 467 q 248 388 260 420 q 235 318 235 356 q 246 246 235 278 q 277 191 256 214 q 329 156 298 168 q 401 143 360 143 z "},"7":{"ha":806,"x_min":60,"x_max":762,"o":"m 762 1008 l 762 926 q 754 867 762 890 q 738 830 746 845 l 372 64 q 334 19 358 38 q 270 0 310 0 l 131 0 l 507 748 q 535 796 521 774 q 568 837 550 817 l 103 837 q 73 850 87 837 q 60 880 60 863 l 60 1008 l 762 1008 z "},"8":{"ha":806,"x_min":49,"x_max":757,"o":"m 403 135 q 472 147 442 135 q 521 180 501 159 q 550 228 540 200 q 560 289 560 256 q 521 405 560 364 q 403 447 483 447 q 284 405 323 447 q 246 289 246 364 q 256 228 246 256 q 285 180 265 200 q 334 147 304 159 q 403 135 363 135 m 403 877 q 342 866 367 877 q 300 836 317 855 q 276 794 284 818 q 269 743 269 769 q 275 688 269 715 q 297 640 281 661 q 338 607 312 619 q 403 594 363 594 q 468 607 442 594 q 509 640 494 619 q 531 688 524 661 q 537 743 537 715 q 529 794 537 769 q 505 836 522 818 q 464 866 489 855 q 403 877 438 877 m 582 525 q 715 433 674 494 q 757 285 757 372 q 731 163 757 218 q 659 70 706 108 q 547 10 613 31 q 403 -11 482 -11 q 258 10 324 -11 q 147 70 193 31 q 74 163 100 108 q 49 285 49 218 q 90 433 49 372 q 224 525 132 494 q 117 613 152 556 q 82 747 82 669 q 106 855 82 805 q 172 941 129 904 q 274 998 215 977 q 403 1019 333 1019 q 532 998 473 1019 q 634 941 591 977 q 700 855 676 904 q 724 747 724 805 q 689 613 724 669 q 582 525 653 556 z "},"9":{"ha":806,"x_min":51,"x_max":740,"o":"m 243 703 q 282 581 243 623 q 397 540 322 540 q 466 552 435 540 q 516 585 496 564 q 547 637 536 607 q 558 702 558 667 q 546 772 558 742 q 513 823 534 802 q 463 855 492 844 q 398 865 433 865 q 333 853 362 865 q 285 819 305 841 q 254 767 265 797 q 243 703 243 738 m 445 387 q 465 413 456 400 q 485 438 475 425 q 412 408 451 418 q 329 398 373 398 q 229 416 278 398 q 140 470 179 434 q 76 561 100 506 q 51 689 51 615 q 76 816 51 756 q 147 921 101 876 q 257 992 193 966 q 400 1019 322 1019 q 542 994 479 1019 q 649 925 606 969 q 717 819 693 881 q 740 684 740 758 q 733 593 740 636 q 710 511 725 550 q 675 435 696 472 q 629 363 655 399 l 405 43 q 365 13 391 25 q 306 0 339 0 l 129 0 l 445 387 z "},"\u0000":{"ha":0,"x_min":0,"x_max":0,"o":""}," ":{"ha":330,"x_min":0,"x_max":0,"o":""},"A":{"ha":975,"x_min":-12,"x_max":988,"o":"m 638 383 l 528 691 q 508 748 519 715 q 488 819 497 781 q 467 747 478 780 q 447 690 456 714 l 338 383 l 638 383 m 988 0 l 826 0 q 782 13 799 0 q 756 46 765 26 l 688 238 l 287 238 l 219 46 q 194 14 212 28 q 151 0 177 0 l -12 0 l 381 1008 l 594 1008 l 988 0 z "},"Ą":{"ha":974,"x_min":-14,"x_max":1012,"o":"m 636 383 l 527 691 q 507 748 517 715 q 486 819 496 781 q 466 747 476 780 q 445 690 455 714 l 337 383 l 636 383 m 1012 -205 q 953 -230 988 -220 q 878 -240 918 -240 q 770 -211 807 -240 q 733 -137 733 -183 q 757 -65 733 -100 q 831 0 782 -29 l 824 0 q 780 13 797 0 q 755 46 763 26 l 687 238 l 285 238 l 217 46 q 193 14 210 28 q 149 0 176 0 l -14 0 l 380 1008 l 593 1008 l 986 0 l 944 0 q 918 -17 931 -8 q 896 -38 906 -26 q 881 -62 887 -49 q 875 -90 875 -75 q 886 -120 875 -109 q 919 -131 898 -131 q 938 -130 931 -131 q 950 -127 946 -129 q 958 -125 955 -126 q 965 -124 962 -124 q 983 -135 978 -124 l 1012 -205 z "},"Æ":{"ha":1297,"x_min":-18,"x_max":1247,"o":"m 639 383 l 582 853 q 557 783 570 815 q 531 722 544 750 l 374 383 l 639 383 m 781 844 l 812 585 l 1151 585 l 1151 428 l 831 428 l 863 163 l 1247 163 l 1247 0 l 685 0 l 656 238 l 307 238 l 218 46 q 188 13 208 26 q 140 0 168 0 l -18 0 l 487 1008 l 1247 1008 l 1247 844 l 781 844 z "},"B":{"ha":922,"x_min":106,"x_max":867,"o":"m 492 160 q 575 172 542 160 q 626 204 607 184 q 653 250 646 224 q 661 304 661 276 q 652 359 661 335 q 623 400 643 383 q 570 426 603 417 q 491 435 538 435 l 314 435 l 314 160 l 492 160 m 314 849 l 314 577 l 451 577 q 528 584 494 577 q 585 608 563 592 q 620 650 608 624 q 633 713 633 676 q 623 776 633 750 q 592 819 613 803 q 539 842 571 835 q 463 849 507 849 l 314 849 m 463 1008 q 636 989 565 1008 q 754 934 708 969 q 820 849 799 899 q 841 738 841 799 q 831 671 841 703 q 800 611 821 639 q 745 560 778 583 q 666 521 712 537 q 818 442 769 497 q 867 299 867 387 q 843 181 867 235 q 771 85 818 126 q 655 23 724 45 q 496 0 585 0 l 106 0 l 106 1008 l 463 1008 z "},"C":{"ha":915,"x_min":48,"x_max":903,"o":"m 792 248 q 821 235 809 248 l 903 147 q 752 29 842 69 q 536 -11 661 -11 q 333 27 423 -11 q 179 135 242 66 q 82 298 116 203 q 48 504 48 392 q 64 647 48 579 q 112 772 81 715 q 187 874 143 828 q 287 952 231 920 q 408 1002 342 985 q 548 1019 474 1019 q 653 1009 603 1019 q 746 982 703 999 q 825 940 789 965 q 891 886 862 915 l 821 790 q 805 774 815 781 q 778 767 795 767 q 745 779 762 767 q 703 806 728 791 q 641 832 678 820 q 547 844 604 844 q 431 821 484 844 q 341 755 378 798 q 282 648 303 711 q 261 504 261 585 q 284 359 261 423 q 345 252 306 296 q 437 186 385 208 q 549 163 490 163 q 614 167 585 163 q 667 178 642 170 q 714 200 692 187 q 758 233 735 213 q 774 244 765 240 q 792 248 782 248 z "},"Ç":{"ha":915,"x_min":48,"x_max":903,"o":"m 903 147 q 772 38 849 78 q 588 -9 694 -1 l 580 -39 q 635 -57 613 -47 q 670 -81 657 -68 q 690 -110 684 -94 q 696 -144 696 -126 q 683 -187 696 -168 q 647 -219 670 -206 q 591 -240 624 -233 q 519 -247 558 -247 q 466 -244 490 -247 q 417 -234 441 -241 l 434 -175 q 456 -158 438 -158 q 476 -162 465 -158 q 506 -166 488 -166 q 536 -158 526 -166 q 546 -140 546 -151 q 523 -115 546 -123 q 448 -99 499 -107 l 479 -8 q 299 43 378 1 q 163 153 219 85 q 77 310 107 221 q 48 504 48 400 q 64 647 48 579 q 112 772 81 715 q 187 874 143 828 q 287 952 231 920 q 408 1002 342 985 q 548 1019 474 1019 q 653 1009 603 1019 q 746 982 703 999 q 825 940 789 965 q 891 886 862 915 l 821 790 q 805 774 815 781 q 778 767 795 767 q 745 779 762 767 q 703 806 728 791 q 641 832 678 820 q 547 844 604 844 q 431 821 484 844 q 341 755 378 798 q 282 648 303 711 q 261 504 261 585 q 284 359 261 423 q 345 252 306 296 q 437 186 385 208 q 549 163 490 163 q 614 167 585 163 q 667 178 642 170 q 714 200 692 187 q 758 233 735 213 q 774 244 765 240 q 792 248 782 248 q 821 235 809 248 l 903 147 z "},"D":{"ha":1057,"x_min":106,"x_max":1009,"o":"m 1009 504 q 972 301 1009 394 q 867 142 935 208 q 704 38 799 75 q 493 0 609 0 l 106 0 l 106 1008 l 493 1008 q 704 970 609 1008 q 867 866 799 933 q 972 706 935 799 q 1009 504 1009 614 m 795 504 q 774 647 795 583 q 715 753 753 710 q 620 821 676 797 q 493 844 564 844 l 315 844 l 315 163 l 493 163 q 620 186 564 163 q 715 254 676 210 q 774 361 753 298 q 795 504 795 424 z "},"Ð":{"ha":1070,"x_min":-1,"x_max":1023,"o":"m 507 163 q 634 186 578 163 q 728 254 690 210 q 788 361 767 298 q 809 504 809 424 q 788 647 809 583 q 728 753 767 710 q 634 821 690 797 q 507 844 578 844 l 329 844 l 329 565 l 507 565 l 507 449 l 329 449 l 329 163 l 507 163 m 507 1008 q 718 970 623 1008 q 881 866 813 933 q 986 706 949 799 q 1023 504 1023 614 q 986 301 1023 394 q 881 142 949 208 q 718 38 813 75 q 507 0 623 0 l 119 0 l 119 449 l -1 449 l -1 565 l 119 565 l 119 1008 l 507 1008 z "},"E":{"ha":797,"x_min":106,"x_max":747,"o":"m 315 844 l 315 585 l 651 585 l 651 428 l 315 428 l 315 163 l 747 163 l 747 0 l 106 0 l 106 1008 l 747 1008 l 747 844 l 315 844 z "},"Ę":{"ha":797,"x_min":106,"x_max":751,"o":"m 751 -205 q 692 -230 727 -220 q 617 -240 657 -240 q 509 -211 546 -240 q 472 -137 472 -183 q 496 -65 472 -100 q 570 0 521 -29 l 106 0 l 106 1008 l 747 1008 l 747 844 l 315 844 l 315 585 l 651 585 l 651 428 l 315 428 l 315 163 l 747 163 l 747 0 l 683 0 q 657 -17 669 -8 q 635 -38 644 -26 q 620 -62 626 -49 q 614 -90 614 -75 q 625 -120 614 -109 q 658 -131 637 -131 q 677 -130 669 -131 q 689 -127 685 -129 q 697 -125 694 -126 q 704 -124 701 -124 q 722 -135 717 -124 l 751 -205 z "},"F":{"ha":786,"x_min":106,"x_max":747,"o":"m 315 844 l 315 566 l 678 566 l 678 402 l 315 402 l 315 0 l 106 0 l 106 1008 l 747 1008 l 747 844 l 315 844 z "},"G":{"ha":1006,"x_min":47,"x_max":944,"o":"m 596 513 l 942 513 l 942 97 q 777 15 865 41 q 593 -11 690 -11 q 368 27 469 -11 q 196 135 267 66 q 85 298 124 203 q 47 504 47 392 q 84 712 47 617 q 190 874 121 806 q 356 981 258 942 q 574 1019 453 1019 q 691 1009 637 1019 q 791 981 745 999 q 875 939 837 963 q 944 885 913 915 l 884 792 q 848 765 870 770 q 799 776 826 760 q 750 804 774 792 q 699 825 726 816 q 640 839 672 834 q 567 844 608 844 q 440 819 497 844 q 343 751 383 795 q 281 644 303 706 q 260 504 260 581 q 283 355 260 421 q 350 244 307 290 q 453 176 393 199 q 587 152 513 152 q 676 162 637 152 q 753 190 715 172 l 753 359 l 639 359 q 607 370 619 359 q 596 397 596 381 l 596 513 z "},"H":{"ha":1074,"x_min":106,"x_max":969,"o":"m 969 1008 l 969 0 l 759 0 l 759 434 l 315 434 l 315 0 l 106 0 l 106 1008 l 315 1008 l 315 580 l 759 580 l 759 1008 l 969 1008 z "},"Ħ":{"ha":1090,"x_min":12,"x_max":1078,"o":"m 767 719 l 323 719 l 323 580 l 767 580 l 767 719 m 1078 719 l 976 719 l 976 0 l 767 0 l 767 434 l 323 434 l 323 0 l 113 0 l 113 719 l 12 719 l 12 838 l 113 838 l 113 1008 l 323 1008 l 323 838 l 767 838 l 767 1008 l 976 1008 l 976 838 l 1078 838 l 1078 719 z "},"I":{"ha":421,"x_min":106,"x_max":315,"o":"m 315 0 l 106 0 l 106 1008 l 315 1008 l 315 0 z "},"Į":{"ha":421,"x_min":72,"x_max":351,"o":"m 351 -205 q 293 -230 328 -220 q 218 -240 258 -240 q 109 -211 147 -240 q 72 -137 72 -183 q 97 -65 72 -100 q 171 0 122 -29 l 106 0 l 106 1008 l 315 1008 l 315 0 l 284 0 q 258 -17 270 -8 q 236 -38 245 -26 q 220 -62 226 -49 q 215 -90 215 -75 q 226 -120 215 -109 q 258 -131 238 -131 q 278 -130 270 -131 q 290 -127 285 -129 q 298 -125 294 -126 q 305 -124 301 -124 q 323 -135 318 -124 l 351 -205 z "},"J":{"ha":600,"x_min":15,"x_max":504,"o":"m 504 361 q 483 208 504 276 q 420 91 463 140 q 315 15 378 42 q 168 -11 252 -11 q 93 -7 130 -11 q 15 8 56 -2 q 20 69 17 38 q 26 130 23 99 q 39 157 28 147 q 71 167 50 167 q 101 163 83 167 q 147 158 119 158 q 212 169 184 158 q 258 203 240 179 q 286 264 277 226 q 296 356 296 302 l 296 1008 l 504 1008 l 504 361 z "},"K":{"ha":965,"x_min":106,"x_max":982,"o":"m 314 592 l 355 592 q 429 624 406 592 l 684 965 q 724 998 702 989 q 776 1008 745 1008 l 957 1008 l 636 594 q 572 537 605 554 q 615 511 596 527 q 653 470 635 496 l 982 0 l 797 0 q 766 3 778 0 q 743 10 753 6 q 726 23 733 15 q 713 40 719 30 l 454 402 q 423 429 441 421 q 372 437 405 437 l 314 437 l 314 0 l 106 0 l 106 1008 l 314 1008 l 314 592 z "},"L":{"ha":725,"x_min":106,"x_max":703,"o":"m 703 169 l 703 0 l 106 0 l 106 1008 l 314 1008 l 314 169 l 703 169 z "},"Ł":{"ha":748,"x_min":6,"x_max":726,"o":"m 726 169 l 726 0 l 128 0 l 128 359 l 6 298 l 6 440 q 28 476 6 465 l 128 528 l 128 1008 l 337 1008 l 337 621 l 578 741 l 578 602 q 553 563 578 572 l 337 451 l 337 169 l 726 169 z "},"Ľ":{"ha":725,"x_min":106,"x_max":703,"o":"m 703 169 l 703 0 l 106 0 l 106 1008 l 314 1008 l 314 169 l 703 169 m 581 1037 q 607 1027 602 1037 q 612 1010 612 1018 q 609 993 612 1003 q 599 962 607 983 q 578 909 592 942 q 542 825 565 876 q 516 798 531 804 q 476 792 500 792 l 408 792 l 452 1037 l 581 1037 z "},"M":{"ha":1322,"x_min":106,"x_max":1217,"o":"m 1217 1008 l 1217 0 l 1033 0 l 1033 619 q 1034 660 1033 638 q 1038 706 1035 683 l 749 159 q 676 114 726 114 l 647 114 q 604 125 623 114 q 574 159 585 137 l 285 708 q 288 661 287 683 q 290 619 290 638 l 290 0 l 106 0 l 106 1008 l 264 1008 q 288 1007 277 1008 q 306 1003 298 1006 q 320 993 314 1000 q 333 975 327 987 l 615 438 q 640 388 628 413 q 662 335 651 362 q 684 389 672 363 q 708 440 695 415 l 988 975 q 1001 993 994 987 q 1016 1003 1008 1000 q 1034 1007 1024 1006 q 1058 1008 1044 1008 l 1217 1008 z "},"N":{"ha":1074,"x_min":106,"x_max":969,"o":"m 969 1008 l 969 0 l 861 0 q 820 8 837 0 q 788 35 803 16 l 285 674 q 289 626 288 650 q 290 583 290 603 l 290 0 l 106 0 l 106 1008 l 215 1008 q 238 1007 228 1008 q 255 1002 247 1006 q 269 992 263 998 q 285 975 276 985 l 790 333 q 786 384 788 360 q 785 431 785 409 l 785 1008 l 969 1008 z "},"Ŋ":{"ha":1074,"x_min":106,"x_max":969,"o":"m 969 1008 l 969 35 q 955 -78 969 -26 q 908 -168 940 -130 q 826 -227 876 -206 q 704 -248 776 -248 q 668 -246 685 -248 q 635 -241 651 -244 q 603 -232 619 -237 q 569 -219 587 -226 l 590 -137 q 608 -108 597 -115 q 633 -101 619 -101 q 655 -105 644 -101 q 687 -108 665 -108 q 760 -79 736 -108 q 785 14 785 -49 l 785 39 l 285 674 q 289 626 288 650 q 290 583 290 603 l 290 0 l 106 0 l 106 1008 l 215 1008 q 238 1007 228 1008 q 255 1002 247 1006 q 269 992 263 998 q 285 975 276 985 l 790 333 q 786 384 788 360 q 785 431 785 409 l 785 1008 l 969 1008 z "},"O":{"ha":1126,"x_min":47,"x_max":1079,"o":"m 1079 504 q 1042 299 1079 394 q 937 136 1005 205 q 774 28 869 67 q 563 -11 679 -11 q 352 28 447 -11 q 189 136 257 67 q 84 299 121 205 q 47 504 47 394 q 84 709 47 615 q 189 872 121 803 q 352 980 257 940 q 563 1019 447 1019 q 774 980 679 1019 q 937 871 869 940 q 1042 708 1005 802 q 1079 504 1079 614 m 866 504 q 845 646 866 583 q 785 753 824 709 q 690 820 746 797 q 563 844 634 844 q 436 820 492 844 q 341 753 380 797 q 281 646 301 709 q 260 504 260 583 q 281 361 260 424 q 341 255 301 299 q 436 188 380 211 q 563 165 492 165 q 690 188 634 165 q 785 255 746 211 q 845 361 824 299 q 866 504 866 424 z "},"Ø":{"ha":1126,"x_min":47,"x_max":1079,"o":"m 430 190 q 563 165 490 165 q 690 188 634 165 q 785 255 746 211 q 845 361 824 299 q 866 504 866 424 q 812 718 866 633 l 430 190 m 719 806 q 647 834 686 824 q 563 844 608 844 q 436 820 492 844 q 341 753 380 797 q 281 646 301 709 q 260 504 260 583 q 277 371 260 430 q 329 268 295 312 l 719 806 m 928 880 q 1040 714 1001 810 q 1079 504 1079 618 q 1042 299 1079 394 q 937 136 1005 205 q 774 28 869 67 q 563 -11 679 -11 q 435 2 496 -11 q 322 41 375 16 l 275 -24 q 222 -66 253 -53 q 160 -78 191 -78 l 79 -78 l 216 111 q 91 282 135 181 q 47 504 47 383 q 84 709 47 615 q 189 872 121 803 q 352 980 257 940 q 563 1019 447 1019 q 704 1002 638 1019 q 826 955 770 986 l 862 1003 q 881 1027 872 1017 q 898 1042 889 1036 q 919 1051 908 1048 q 948 1053 931 1053 l 1054 1053 l 928 880 z "},"Œ":{"ha":1497,"x_min":48,"x_max":1447,"o":"m 535 158 q 648 183 598 158 q 733 252 699 207 q 786 360 768 297 q 805 504 805 424 q 786 647 805 583 q 733 756 768 711 q 648 825 699 801 q 535 849 598 849 q 419 825 470 849 q 334 756 369 801 q 280 647 299 711 q 262 504 262 583 q 280 360 262 424 q 334 252 299 297 q 419 183 369 207 q 535 158 470 158 m 1015 844 l 1015 585 l 1351 585 l 1351 428 l 1015 428 l 1015 163 l 1447 163 l 1447 0 l 830 0 l 830 117 q 690 23 769 56 q 513 -10 610 -10 q 323 28 409 -10 q 176 136 238 67 q 82 300 115 206 q 48 504 48 394 q 82 709 48 615 q 176 872 115 803 q 323 980 238 940 q 513 1019 409 1019 q 690 985 610 1019 q 830 891 769 952 l 830 1008 l 1447 1008 l 1447 844 l 1015 844 z "},"P":{"ha":871,"x_min":106,"x_max":844,"o":"m 446 506 q 589 553 544 506 q 635 683 635 601 q 623 751 635 720 q 589 804 612 782 q 530 838 565 826 q 446 849 494 849 l 314 849 l 314 506 l 446 506 m 446 1008 q 625 983 549 1008 q 749 916 700 959 q 820 813 797 872 q 844 683 844 753 q 819 547 844 608 q 746 440 795 485 q 622 371 697 396 q 446 347 547 347 l 314 347 l 314 0 l 106 0 l 106 1008 l 446 1008 z "},"Þ":{"ha":865,"x_min":106,"x_max":844,"o":"m 446 338 q 589 385 544 338 q 635 515 635 432 q 623 583 635 552 q 589 636 612 614 q 530 669 565 658 q 446 681 494 681 l 314 681 l 314 338 l 446 338 m 446 840 q 625 815 549 840 q 749 748 700 791 q 820 644 797 704 q 844 515 844 585 q 819 378 844 440 q 746 272 795 317 q 622 203 697 228 q 446 178 547 178 l 314 178 l 314 0 l 106 0 l 106 1008 l 314 1008 l 314 840 l 446 840 z "},"Q":{"ha":1127,"x_min":47,"x_max":1134,"o":"m 260 504 q 281 361 260 424 q 341 255 302 299 q 437 188 381 211 q 564 165 493 165 q 691 188 635 165 q 786 255 747 211 q 846 361 825 299 q 867 504 867 424 q 846 646 867 583 q 786 753 825 709 q 691 820 747 797 q 564 844 635 844 q 437 820 493 844 q 341 753 381 797 q 281 646 302 709 q 260 504 260 583 m 1134 -193 l 963 -193 q 895 -183 925 -193 q 841 -147 866 -174 l 704 5 q 564 -11 637 -11 q 353 28 448 -11 q 190 136 258 67 q 84 299 122 205 q 47 504 47 394 q 84 709 47 615 q 190 872 122 803 q 353 980 258 940 q 564 1019 448 1019 q 775 980 680 1019 q 938 871 870 940 q 1043 708 1006 802 q 1080 504 1080 614 q 1066 377 1080 438 q 1027 263 1053 316 q 964 165 1001 210 q 879 85 926 119 l 1134 -193 z "},"R":{"ha":902,"x_min":106,"x_max":909,"o":"m 421 531 q 508 543 472 531 q 569 579 545 556 q 603 632 592 601 q 615 699 615 663 q 567 810 615 770 q 422 849 519 849 l 314 849 l 314 531 l 421 531 m 909 0 l 721 0 q 644 40 668 0 l 453 349 q 427 376 441 367 q 385 384 413 384 l 314 384 l 314 0 l 106 0 l 106 1008 l 422 1008 q 603 986 528 1008 q 726 925 678 964 q 796 832 774 886 q 818 714 818 778 q 804 619 818 664 q 763 538 790 574 q 696 472 735 501 q 606 426 656 444 q 643 400 626 415 q 674 363 660 384 l 909 0 z "},"S":{"ha":765,"x_min":26,"x_max":719,"o":"m 651 815 q 632 791 642 799 q 606 784 622 784 q 573 795 590 784 q 531 818 555 806 q 477 841 508 831 q 406 852 447 852 q 297 820 333 852 q 261 735 261 788 q 281 680 261 702 q 333 642 301 658 q 406 614 365 626 q 490 586 447 601 q 574 551 533 572 q 648 501 615 531 q 700 426 680 470 q 719 319 719 382 q 695 190 719 250 q 626 85 672 130 q 515 15 581 40 q 365 -11 449 -11 q 269 -1 317 -11 q 177 26 222 8 q 94 67 133 43 q 26 122 56 92 l 88 220 q 108 239 95 231 q 134 246 120 246 q 174 232 153 246 q 222 201 194 218 q 284 171 249 185 q 370 157 320 157 q 483 190 443 157 q 523 290 523 224 q 503 351 523 328 q 451 391 483 375 q 378 418 419 407 q 294 444 338 430 q 210 477 251 458 q 138 528 169 497 q 86 608 106 560 q 66 725 66 655 q 88 834 66 781 q 153 928 110 887 q 259 994 197 969 q 403 1019 322 1019 q 572 991 494 1019 q 703 913 649 963 l 651 815 z "},"Ş":{"ha":765,"x_min":26,"x_max":719,"o":"m 651 815 q 632 791 642 799 q 606 784 622 784 q 573 795 590 784 q 531 818 555 806 q 477 841 508 831 q 406 852 447 852 q 297 820 333 852 q 261 735 261 788 q 281 680 261 702 q 333 642 301 658 q 406 614 365 626 q 490 586 447 601 q 574 551 533 572 q 648 501 615 531 q 700 426 680 470 q 719 319 719 382 q 701 204 719 258 q 646 107 682 150 q 558 35 610 64 q 440 -5 506 6 l 431 -39 q 485 -57 463 -47 q 521 -81 508 -68 q 541 -110 535 -94 q 547 -144 547 -126 q 534 -187 547 -168 q 498 -219 521 -206 q 442 -240 474 -233 q 369 -247 409 -247 q 316 -244 341 -247 q 267 -234 292 -241 l 285 -175 q 306 -158 289 -158 q 327 -162 316 -158 q 356 -166 338 -166 q 387 -158 377 -166 q 397 -140 397 -151 q 373 -115 397 -123 q 299 -99 350 -107 l 329 -10 q 243 5 285 -6 q 161 32 200 15 q 87 72 122 49 q 26 122 53 94 l 88 220 q 108 239 95 231 q 134 246 120 246 q 174 232 153 246 q 222 201 194 218 q 284 171 249 185 q 370 157 320 157 q 483 190 443 157 q 523 290 523 224 q 503 351 523 328 q 451 391 483 375 q 378 418 419 407 q 294 444 338 430 q 210 477 251 458 q 138 528 169 497 q 86 608 106 560 q 66 725 66 655 q 88 834 66 781 q 153 928 110 887 q 259 994 197 969 q 403 1019 322 1019 q 572 991 494 1019 q 703 913 649 963 l 651 815 z "},"T":{"ha":839,"x_min":21,"x_max":819,"o":"m 819 840 l 524 840 l 524 0 l 315 0 l 315 840 l 21 840 l 21 1008 l 819 1008 l 819 840 z "},"Ŧ":{"ha":855,"x_min":28,"x_max":826,"o":"m 532 840 l 532 592 l 745 592 l 745 476 l 532 476 l 532 0 l 323 0 l 323 476 l 110 476 l 110 592 l 323 592 l 323 840 l 28 840 l 28 1008 l 826 1008 l 826 840 l 532 840 z "},"U":{"ha":1035,"x_min":93,"x_max":942,"o":"m 518 167 q 609 184 569 167 q 677 232 649 201 q 719 308 705 263 q 734 408 734 352 l 734 1008 l 942 1008 l 942 408 q 913 239 942 316 q 828 107 883 163 q 695 20 774 51 q 518 -11 617 -11 q 341 20 419 -11 q 207 107 262 51 q 123 239 152 163 q 93 408 93 316 l 93 1008 l 301 1008 l 301 408 q 316 308 301 352 q 358 232 331 263 q 426 184 386 201 q 518 167 467 167 z "},"Ų":{"ha":1035,"x_min":93,"x_max":942,"o":"m 942 1008 l 942 408 q 919 257 942 326 q 852 134 896 188 q 745 44 808 80 q 603 -4 683 8 q 560 -41 578 -19 q 541 -90 541 -63 q 552 -121 541 -110 q 585 -132 564 -132 q 604 -131 597 -132 q 616 -128 612 -130 q 624 -125 621 -126 q 631 -124 628 -124 q 649 -136 644 -124 l 678 -206 q 619 -231 654 -221 q 544 -241 584 -241 q 436 -212 473 -241 q 399 -138 399 -183 q 420 -71 399 -104 q 483 -10 441 -38 q 319 29 392 -4 q 197 117 247 62 q 120 246 147 172 q 93 408 93 320 l 93 1008 l 301 1008 l 301 408 q 316 308 301 352 q 358 232 331 263 q 426 184 386 201 q 518 167 467 167 q 609 184 569 167 q 677 232 649 201 q 719 308 705 263 q 734 408 734 352 l 734 1008 l 942 1008 z "},"V":{"ha":975,"x_min":-12,"x_max":988,"o":"m 988 1008 l 582 0 l 393 0 l -12 1008 l 156 1008 q 200 995 183 1008 q 225 962 217 982 l 443 381 q 468 310 456 349 q 490 229 480 272 q 510 310 499 272 q 533 381 521 349 l 750 962 q 775 993 757 979 q 819 1008 792 1008 l 988 1008 z "},"W":{"ha":1469,"x_min":8,"x_max":1461,"o":"m 1461 1008 l 1149 0 l 960 0 l 754 659 q 744 690 749 673 q 735 725 740 706 q 726 690 731 706 q 717 659 722 673 l 508 0 l 319 0 l 8 1008 l 183 1008 q 228 995 210 1008 q 252 962 247 983 l 408 394 q 420 343 414 370 q 431 285 426 315 q 444 343 438 316 q 460 394 451 370 l 642 962 q 666 993 647 979 q 710 1008 684 1008 l 772 1008 q 816 995 799 1008 q 841 962 833 982 l 1022 394 q 1038 345 1031 372 q 1051 290 1044 319 q 1061 345 1056 319 q 1072 394 1067 372 l 1228 962 q 1252 994 1233 980 q 1297 1008 1271 1008 l 1461 1008 z "},"X":{"ha":944,"x_min":-3,"x_max":945,"o":"m 945 0 l 737 0 q 703 10 716 0 q 683 35 690 21 l 465 406 q 458 391 461 398 q 451 377 455 383 l 244 35 q 223 11 235 22 q 192 0 210 0 l -3 0 l 327 519 l 10 1008 l 218 1008 q 249 1002 239 1008 q 266 984 258 997 l 483 628 q 490 645 486 636 q 500 663 494 653 l 694 981 q 713 1001 703 994 q 738 1008 723 1008 l 937 1008 l 617 528 l 945 0 z "},"Y":{"ha":914,"x_min":-13,"x_max":927,"o":"m 561 388 l 561 0 l 353 0 l 353 388 l -13 1008 l 170 1008 q 214 995 197 1008 q 240 962 230 982 l 405 644 q 435 585 422 613 q 459 529 449 557 q 482 585 469 557 q 510 644 494 613 l 674 962 q 699 993 683 978 q 742 1008 716 1008 l 927 1008 l 561 388 z "},"Z":{"ha":843,"x_min":24,"x_max":809,"o":"m 809 931 q 804 899 809 915 q 789 869 799 883 l 292 163 l 795 163 l 795 0 l 24 0 l 24 81 q 29 110 24 96 q 43 136 34 124 l 542 844 l 60 844 l 60 1008 l 809 1008 l 809 931 z "},"a":{"ha":711,"x_min":29,"x_max":640,"o":"m 453 299 q 337 287 383 296 q 263 265 290 278 q 224 233 235 251 q 213 194 213 215 q 236 135 213 153 q 301 118 259 118 q 384 135 349 118 q 453 188 419 152 l 453 299 m 63 617 q 203 702 126 674 q 368 730 279 730 q 482 709 432 730 q 568 651 533 688 q 622 563 603 614 q 640 450 640 511 l 640 0 l 553 0 q 511 8 526 0 q 488 40 497 15 l 473 85 q 420 44 446 62 q 368 14 395 26 q 310 -5 341 1 q 241 -11 279 -11 q 155 1 194 -11 q 88 39 116 14 q 44 100 60 63 q 29 185 29 137 q 49 264 29 224 q 118 336 69 303 q 249 389 167 368 q 453 413 331 410 l 453 450 q 425 549 453 517 q 343 581 397 581 q 277 571 303 581 q 231 551 251 562 q 194 531 211 540 q 153 522 176 522 q 120 532 133 522 q 97 556 106 542 l 63 617 z "},"ą":{"ha":711,"x_min":29,"x_max":708,"o":"m 453 299 q 337 287 383 296 q 263 265 290 278 q 224 233 235 251 q 213 194 213 215 q 236 135 213 153 q 301 118 259 118 q 384 135 349 118 q 453 188 419 152 l 453 299 m 708 -205 q 649 -230 684 -220 q 574 -240 614 -240 q 466 -211 503 -240 q 428 -137 428 -183 q 454 -64 428 -100 q 530 1 479 -28 q 505 13 514 4 q 488 40 496 22 l 473 85 q 420 44 446 62 q 368 14 395 26 q 310 -5 341 1 q 241 -11 279 -11 q 155 1 194 -11 q 88 39 116 14 q 44 100 60 63 q 29 185 29 137 q 49 264 29 224 q 118 336 69 303 q 249 389 167 368 q 453 413 331 410 l 453 450 q 425 549 453 517 q 343 581 397 581 q 277 571 303 581 q 231 551 251 562 q 194 531 211 540 q 153 522 176 522 q 120 532 133 522 q 97 556 106 542 l 63 617 q 203 702 126 674 q 368 730 279 730 q 482 709 432 730 q 568 651 533 688 q 622 563 603 614 q 640 450 640 511 l 640 0 q 614 -17 626 -8 q 592 -38 601 -26 q 577 -62 583 -49 q 571 -90 571 -75 q 582 -120 571 -109 q 615 -131 594 -131 q 634 -130 626 -131 q 646 -127 642 -129 q 654 -125 651 -126 q 661 -124 658 -124 q 679 -135 674 -124 l 708 -205 z "},"æ":{"ha":1127,"x_min":31,"x_max":1086,"o":"m 455 315 q 338 301 385 312 q 264 276 292 291 q 225 242 237 261 q 214 202 214 223 q 238 139 214 159 q 305 118 261 118 q 364 128 337 118 q 412 158 392 138 q 443 212 432 179 q 455 292 455 245 l 455 315 m 916 428 q 909 489 916 459 q 886 541 901 518 q 845 578 870 564 q 787 592 821 592 q 683 550 719 592 q 637 428 647 507 l 916 428 m 638 315 q 693 178 648 222 q 809 135 739 135 q 884 143 856 135 q 932 163 913 152 q 964 182 951 173 q 992 190 976 190 q 1031 174 1019 190 l 1083 109 q 1016 50 1052 74 q 942 14 980 27 q 865 -5 903 0 q 790 -10 826 -10 q 718 -2 753 -10 q 651 22 683 6 q 591 64 619 38 q 542 124 563 89 q 490 63 520 88 q 422 21 459 38 q 343 -3 385 4 q 258 -11 302 -11 q 163 2 205 -11 q 91 42 121 16 q 46 106 62 68 q 31 192 31 144 q 51 273 31 232 q 120 348 71 314 q 250 404 169 381 q 455 429 332 426 l 455 450 q 426 552 455 517 q 344 586 398 586 q 278 576 305 586 q 232 554 252 566 q 195 532 213 542 q 155 522 178 522 q 121 532 135 522 q 99 556 108 542 l 65 617 q 197 702 128 674 q 349 730 265 730 q 480 701 428 730 q 560 622 531 672 q 658 699 599 671 q 795 727 717 727 q 911 703 858 727 q 1003 635 964 680 q 1064 528 1042 591 q 1086 387 1086 465 q 1084 351 1086 365 q 1078 329 1083 338 q 1065 318 1073 321 q 1044 315 1057 315 l 638 315 z "},"b":{"ha":793,"x_min":79,"x_max":749,"o":"m 271 189 q 330 145 298 158 q 395 133 361 133 q 459 145 431 133 q 509 186 488 158 q 541 260 530 215 q 552 369 552 305 q 543 466 552 426 q 516 531 534 506 q 473 569 499 557 q 413 581 447 581 q 335 561 368 581 q 271 503 302 541 l 271 189 m 271 633 q 365 701 313 676 q 480 727 416 727 q 591 702 542 727 q 676 632 641 678 q 730 521 711 586 q 749 376 749 456 q 727 218 749 289 q 665 96 706 147 q 569 17 625 45 q 444 -10 513 -10 q 385 -4 411 -10 q 336 15 358 3 q 295 43 314 26 q 260 79 276 59 l 252 36 q 236 8 247 16 q 206 0 225 0 l 79 0 l 79 1035 l 271 1035 l 271 633 z "},"c":{"ha":672,"x_min":42,"x_max":655,"o":"m 599 556 q 582 539 590 545 q 558 533 574 533 q 532 541 544 533 q 502 559 519 549 q 463 576 485 568 q 406 584 440 584 q 331 568 363 584 q 278 524 299 553 q 248 453 258 494 q 238 359 238 411 q 282 191 238 249 q 402 133 326 133 q 448 137 428 133 q 481 149 467 142 q 506 164 495 156 q 525 179 516 172 q 544 191 535 186 q 565 195 553 195 q 600 178 588 195 l 655 109 q 590 50 624 74 q 518 14 555 27 q 442 -5 481 0 q 367 -10 404 -10 q 242 14 301 -10 q 138 86 183 39 q 68 202 94 133 q 42 359 42 271 q 65 505 42 438 q 132 622 88 572 q 242 699 176 671 q 394 727 308 727 q 538 701 476 727 q 649 624 599 674 l 599 556 z "},"ç":{"ha":674,"x_min":42,"x_max":655,"o":"m 655 109 q 602 59 630 80 q 545 25 574 39 q 484 3 515 11 q 423 -8 453 -4 l 414 -39 q 469 -57 447 -47 q 505 -81 492 -68 q 525 -110 519 -94 q 531 -144 531 -126 q 518 -187 531 -168 q 482 -219 505 -206 q 426 -240 458 -233 q 353 -247 393 -247 q 300 -244 325 -247 q 251 -234 276 -241 l 269 -175 q 290 -158 273 -158 q 311 -162 300 -158 q 340 -166 322 -166 q 371 -158 361 -166 q 381 -140 381 -151 q 357 -115 381 -123 q 283 -99 334 -107 l 315 -6 q 207 31 257 3 q 121 106 158 60 q 63 216 84 153 q 42 359 42 280 q 65 505 42 438 q 132 622 88 572 q 242 699 176 671 q 394 727 308 727 q 538 701 476 727 q 649 624 599 674 l 599 556 q 582 539 590 545 q 558 533 574 533 q 532 541 544 533 q 502 559 519 549 q 463 576 485 568 q 406 584 440 584 q 331 568 363 584 q 278 524 299 553 q 248 453 258 494 q 238 359 238 411 q 282 191 238 249 q 402 133 326 133 q 448 137 428 133 q 481 149 467 142 q 506 164 495 156 q 525 179 516 172 q 544 191 535 186 q 565 195 553 195 q 600 178 588 195 l 655 109 z "},"d":{"ha":793,"x_min":43,"x_max":713,"o":"m 522 530 q 463 574 494 561 q 396 586 431 586 q 333 573 361 586 q 284 532 304 560 q 252 460 263 503 q 241 356 241 416 q 250 254 241 296 q 276 187 259 213 q 317 150 293 161 q 372 138 342 138 q 457 158 422 138 q 522 215 491 178 l 522 530 m 713 1035 l 713 0 l 595 0 q 548 33 558 0 l 532 96 q 486 53 510 72 q 435 19 463 33 q 375 -3 407 5 q 306 -10 343 -10 q 200 14 248 -10 q 117 85 152 38 q 63 200 82 132 q 43 356 43 268 q 65 504 43 435 q 127 623 87 573 q 224 701 167 673 q 351 730 281 730 q 449 713 409 730 q 522 665 489 695 l 522 1035 l 713 1035 z "},"ď":{"ha":792,"x_min":43,"x_max":963,"o":"m 522 530 q 463 574 494 561 q 396 586 431 586 q 333 573 361 586 q 284 532 304 560 q 252 460 263 503 q 241 356 241 416 q 250 254 241 296 q 276 187 259 213 q 317 150 293 161 q 372 138 342 138 q 457 158 422 138 q 522 215 491 178 l 522 530 m 713 1035 l 713 0 l 595 0 q 548 33 558 0 l 532 96 q 486 53 510 72 q 435 19 463 33 q 375 -3 407 5 q 306 -10 343 -10 q 200 14 248 -10 q 117 85 152 38 q 63 200 82 132 q 43 356 43 268 q 65 504 43 435 q 127 623 87 573 q 224 701 167 673 q 351 730 281 730 q 449 713 409 730 q 522 665 489 695 l 522 1035 l 713 1035 m 933 1037 q 958 1027 953 1037 q 963 1010 963 1018 q 961 993 963 1003 q 951 962 958 983 q 930 909 943 942 q 893 825 916 876 q 867 798 883 804 q 827 792 851 792 l 759 792 l 803 1037 l 933 1037 z "},"đ":{"ha":793,"x_min":44,"x_max":813,"o":"m 523 506 q 464 550 496 538 q 397 563 433 563 q 333 551 362 563 q 285 514 305 540 q 253 446 265 488 q 242 344 242 404 q 251 244 242 284 q 277 181 260 205 q 319 148 294 158 q 373 138 343 138 q 458 158 424 138 q 523 216 492 178 l 523 506 m 813 783 l 715 783 l 715 0 l 597 0 q 549 33 560 0 l 533 97 q 488 53 512 72 q 436 19 464 33 q 376 -3 408 5 q 307 -10 344 -10 q 201 12 249 -10 q 118 80 153 35 q 64 190 83 124 q 44 344 44 256 q 66 490 44 424 q 128 605 88 557 q 225 679 169 653 q 351 706 282 706 q 450 688 410 706 q 523 641 490 671 l 523 783 l 368 783 l 368 899 l 523 899 l 523 1035 l 715 1035 l 715 899 l 813 899 l 813 783 z "},"ð":{"ha":795,"x_min":39,"x_max":747,"o":"m 389 133 q 456 146 425 133 q 511 189 488 159 q 550 269 535 219 q 567 390 565 318 q 541 435 556 414 q 505 472 526 456 q 458 496 485 487 q 399 505 432 505 q 325 491 357 505 q 273 454 294 478 q 240 398 251 430 q 229 330 229 366 q 242 245 229 282 q 276 183 254 208 q 326 145 297 158 q 389 133 356 133 m 579 840 q 702 666 657 769 q 747 423 747 563 q 723 240 747 320 q 653 103 699 159 q 539 19 607 48 q 384 -10 472 -10 q 247 13 310 -10 q 138 80 184 36 q 65 187 92 124 q 39 331 39 251 q 62 452 39 394 q 127 553 85 509 q 228 622 169 597 q 359 648 287 648 q 476 626 424 648 q 569 564 528 605 q 522 678 554 629 q 434 764 490 726 l 292 676 l 256 736 q 249 771 244 754 q 273 797 254 788 l 317 822 q 278 834 299 828 q 236 847 258 841 q 214 857 224 850 q 198 875 203 864 q 192 901 192 886 q 199 934 192 915 l 221 999 q 358 966 292 988 q 483 910 424 944 l 607 986 l 645 926 q 651 893 656 909 q 631 867 647 877 l 579 840 z "},"e":{"ha":744,"x_min":41,"x_max":705,"o":"m 533 442 q 525 499 533 472 q 500 547 517 526 q 456 580 483 568 q 393 592 430 592 q 285 553 324 592 q 235 442 247 515 l 533 442 m 232 328 q 289 181 241 228 q 415 135 338 135 q 484 144 455 135 q 534 165 513 153 q 574 186 556 176 q 609 195 592 195 q 644 178 631 195 l 699 109 q 632 50 669 74 q 556 14 595 27 q 476 -5 516 0 q 398 -10 435 -10 q 258 14 323 -10 q 145 87 193 39 q 69 207 97 135 q 41 373 41 278 q 65 510 41 446 q 134 623 89 575 q 244 699 179 671 q 390 727 308 727 q 516 705 458 727 q 616 642 574 683 q 682 539 658 600 q 705 401 705 478 q 703 365 705 379 q 696 343 701 351 q 683 332 691 335 q 661 328 674 328 l 232 328 z "},"ę":{"ha":744,"x_min":41,"x_max":705,"o":"m 533 442 q 525 499 533 472 q 500 547 517 526 q 456 580 483 568 q 393 592 430 592 q 285 553 324 592 q 235 442 247 515 l 533 442 m 232 328 q 289 181 241 228 q 415 135 338 135 q 484 144 455 135 q 534 165 513 153 q 574 186 556 176 q 609 195 592 195 q 644 178 631 195 l 699 109 q 599 32 655 58 q 485 -3 543 6 q 441 -40 460 -18 q 422 -90 422 -62 q 434 -120 422 -109 q 466 -131 445 -131 q 485 -130 478 -131 q 498 -127 493 -129 q 506 -125 502 -126 q 513 -124 509 -124 q 531 -135 526 -124 l 559 -205 q 500 -230 535 -220 q 426 -240 465 -240 q 317 -211 354 -240 q 280 -137 280 -183 q 301 -70 280 -103 q 364 -9 322 -37 q 236 23 295 -4 q 134 98 177 50 q 66 215 90 147 q 41 373 41 284 q 65 510 41 446 q 134 623 89 575 q 244 699 179 671 q 390 727 308 727 q 516 705 458 727 q 616 642 574 683 q 682 539 658 600 q 705 401 705 478 q 703 365 705 379 q 696 343 701 351 q 683 332 691 335 q 661 328 674 328 l 232 328 z "},"f":{"ha":503,"x_min":27,"x_max":501,"o":"m 131 0 l 131 578 l 76 588 q 41 603 54 592 q 27 635 27 615 l 27 712 l 131 712 l 131 759 q 150 870 131 820 q 205 954 169 919 q 292 1007 240 988 q 408 1026 343 1026 q 455 1023 433 1026 q 501 1013 478 1019 l 497 919 q 478 891 495 897 q 440 884 461 884 q 388 878 411 884 q 349 857 365 872 q 324 816 333 842 q 316 753 316 791 l 316 712 l 494 712 l 494 578 l 322 578 l 322 0 l 131 0 z "},"ﬀ":{"ha":958,"x_min":27,"x_max":956,"o":"m 131 0 l 131 578 l 76 588 q 41 603 54 592 q 27 635 27 615 l 27 712 l 131 712 l 131 747 q 150 857 131 808 q 205 941 169 907 q 292 994 240 976 q 408 1013 343 1013 q 455 1010 433 1013 q 501 1000 478 1006 l 497 906 q 478 878 495 885 q 440 871 461 871 q 388 865 411 871 q 349 843 365 858 q 324 803 333 828 q 316 740 316 778 l 316 712 l 586 712 l 586 771 q 605 882 586 832 q 660 966 624 931 q 747 1019 695 1000 q 863 1038 798 1038 q 910 1034 888 1038 q 956 1025 933 1031 l 951 931 q 933 902 950 909 q 895 896 916 896 q 843 890 866 896 q 804 868 819 883 q 780 828 788 853 q 772 765 772 803 l 772 712 l 949 712 l 949 578 l 777 578 l 777 0 l 586 0 l 586 578 l 322 578 l 322 0 l 131 0 z "},"ﬁ":{"ha":851,"x_min":27,"x_max":765,"o":"m 131 0 l 131 578 l 76 588 q 41 603 54 592 q 27 635 27 615 l 27 712 l 131 712 l 131 729 q 153 851 131 794 q 220 950 175 908 q 336 1016 266 992 q 501 1040 406 1040 q 563 1036 531 1040 q 618 1027 595 1033 l 612 929 q 607 916 611 921 q 594 908 602 911 q 577 905 587 906 q 558 904 568 904 q 442 893 488 904 q 367 858 395 881 q 328 801 340 835 q 317 723 317 767 l 317 712 l 765 712 l 765 0 l 574 0 l 574 578 l 323 578 l 323 0 l 131 0 z "},"ﬃ":{"ha":1306,"x_min":27,"x_max":1220,"o":"m 131 0 l 131 578 l 76 588 q 41 603 54 592 q 27 635 27 615 l 27 712 l 131 712 l 131 747 q 150 857 131 808 q 205 941 169 907 q 292 994 241 976 q 408 1013 343 1013 q 456 1010 433 1013 q 501 1000 478 1006 l 497 906 q 478 878 496 885 q 441 871 461 871 q 388 865 411 871 q 349 843 365 858 q 325 803 333 828 q 317 740 317 778 l 317 712 l 586 712 l 586 729 q 608 851 586 794 q 675 950 630 908 q 791 1016 721 992 q 956 1040 860 1040 q 1018 1036 986 1040 q 1073 1027 1050 1033 l 1067 929 q 1049 908 1065 913 q 1013 904 1033 904 q 897 893 943 904 q 822 858 850 881 q 783 801 794 835 q 772 723 772 767 l 772 712 l 1220 712 l 1220 0 l 1028 0 l 1028 578 l 778 578 l 778 0 l 586 0 l 586 578 l 323 578 l 323 0 l 131 0 z "},"ﬂ":{"ha":863,"x_min":27,"x_max":783,"o":"m 131 0 l 131 578 l 76 588 q 41 603 54 592 q 27 635 27 615 l 27 712 l 131 712 l 131 740 q 149 848 131 796 q 205 940 167 900 q 299 1005 242 981 q 435 1029 356 1029 q 558 1025 500 1029 q 675 1020 616 1020 l 783 1020 l 783 0 l 592 0 l 592 890 q 522 893 556 892 q 465 895 488 895 q 355 855 393 895 q 317 740 317 815 l 317 712 l 479 712 l 479 578 l 323 578 l 323 0 l 131 0 z "},"ﬄ":{"ha":1317,"x_min":27,"x_max":1237,"o":"m 131 0 l 131 578 l 76 588 q 41 603 54 592 q 27 635 27 615 l 27 712 l 131 712 l 131 747 q 150 857 131 808 q 205 941 169 907 q 292 994 240 976 q 408 1013 343 1013 q 455 1010 433 1013 q 501 1000 478 1006 l 497 906 q 478 878 495 885 q 440 871 461 871 q 388 865 411 871 q 349 843 365 858 q 324 803 333 828 q 316 740 316 778 l 316 712 l 586 712 l 586 740 q 604 848 586 796 q 659 940 622 900 q 753 1005 697 981 q 889 1029 810 1029 q 1013 1025 954 1029 q 1130 1020 1072 1020 l 1237 1020 l 1237 0 l 1047 0 l 1047 890 q 976 893 1010 892 q 919 895 942 895 q 809 855 847 895 q 772 740 772 815 l 772 712 l 949 712 l 949 578 l 777 578 l 777 0 l 586 0 l 586 578 l 322 578 l 322 0 l 131 0 z "},"g":{"ha":738,"x_min":31,"x_max":717,"o":"m 346 385 q 433 415 405 385 q 461 492 461 444 q 433 569 461 541 q 346 597 405 597 q 259 569 287 597 q 231 492 231 541 q 259 415 231 445 q 346 385 288 385 m 527 -29 q 515 1 527 -10 q 484 20 503 13 q 437 30 464 27 q 379 35 410 33 q 316 38 349 37 q 252 43 283 40 q 212 9 228 28 q 197 -36 197 -11 q 205 -68 197 -53 q 231 -93 213 -83 q 281 -109 250 -103 q 357 -115 311 -115 q 437 -109 404 -115 q 490 -91 469 -103 q 518 -64 510 -80 q 527 -29 527 -48 m 717 692 l 717 622 q 708 596 717 606 q 677 581 699 586 l 619 569 q 631 497 631 535 q 609 400 631 443 q 549 327 587 358 q 458 281 510 297 q 346 265 406 265 q 274 271 308 265 q 245 231 245 253 q 265 202 245 211 q 317 189 285 193 q 391 184 349 185 q 475 180 432 183 q 559 168 517 176 q 632 139 600 159 q 684 87 665 119 q 704 3 704 54 q 681 -90 704 -45 q 612 -171 657 -135 q 502 -228 567 -206 q 353 -249 437 -249 q 210 -234 271 -249 q 109 -192 149 -218 q 50 -132 69 -166 q 31 -61 31 -98 q 60 20 31 -13 q 140 74 89 53 q 97 114 113 89 q 81 178 81 138 q 104 245 81 210 q 176 304 127 281 q 89 382 121 333 q 57 497 57 431 q 79 593 57 550 q 140 666 101 636 q 231 713 178 697 q 346 728 284 728 q 508 692 438 728 l 717 692 z "},"h":{"ha":788,"x_min":79,"x_max":715,"o":"m 271 646 q 313 679 291 664 q 359 705 335 694 q 412 721 384 715 q 473 727 440 727 q 576 707 531 727 q 652 651 622 687 q 699 565 683 615 q 715 455 715 515 l 715 0 l 524 0 l 524 455 q 496 548 524 515 q 414 581 468 581 q 338 563 374 581 q 271 515 303 546 l 271 0 l 79 0 l 79 1035 l 271 1035 l 271 646 z "},"ĥ":{"ha":788,"x_min":-81,"x_max":715,"o":"m 271 646 q 313 679 291 664 q 359 705 335 694 q 412 721 384 715 q 473 727 440 727 q 576 707 531 727 q 652 651 622 687 q 699 565 683 615 q 715 455 715 515 l 715 0 l 524 0 l 524 455 q 496 548 524 515 q 414 581 468 581 q 338 563 374 581 q 271 515 303 546 l 271 0 l 79 0 l 79 1035 l 271 1035 l 271 646 m 429 1076 l 290 1076 q 263 1081 279 1076 q 229 1105 247 1085 l 182 1170 q 176 1178 178 1174 q 171 1187 174 1183 q 166 1178 168 1183 q 160 1170 163 1174 l 113 1105 q 79 1081 95 1085 q 51 1076 63 1076 l -81 1076 l 87 1268 l 260 1268 l 429 1076 z "},"ħ":{"ha":788,"x_min":-17,"x_max":714,"o":"m 270 622 q 312 655 290 640 q 359 681 334 670 q 411 698 383 692 q 472 703 440 703 q 576 683 531 703 q 652 627 621 663 q 698 541 683 591 q 714 431 714 491 l 714 0 l 523 0 l 523 431 q 495 524 523 491 q 413 557 467 557 q 338 539 373 557 q 270 491 302 522 l 270 0 l 79 0 l 79 786 l -17 786 l -17 902 l 79 902 l 79 1035 l 270 1035 l 270 902 l 462 902 l 462 786 l 270 786 l 270 622 z "},"i":{"ha":361,"x_min":62,"x_max":299,"o":"m 276 716 l 276 0 l 85 0 l 85 716 l 276 716 m 299 919 q 290 874 299 895 q 264 838 280 853 q 225 813 247 822 q 178 803 203 803 q 134 813 155 803 q 97 838 113 822 q 71 874 81 853 q 62 919 62 895 q 71 965 62 944 q 97 1002 81 986 q 134 1027 113 1018 q 178 1036 155 1036 q 225 1027 203 1036 q 264 1002 247 1018 q 290 965 280 986 q 299 919 299 944 z "},"į":{"ha":361,"x_min":47,"x_max":326,"o":"m 178 803 q 134 813 155 803 q 97 838 113 822 q 71 874 81 853 q 62 919 62 895 q 71 965 62 944 q 97 1002 81 986 q 134 1027 113 1018 q 178 1036 155 1036 q 225 1027 203 1036 q 264 1002 247 1018 q 290 965 280 986 q 299 919 299 944 q 290 874 299 895 q 264 838 280 853 q 225 813 247 822 q 178 803 203 803 m 326 -205 q 268 -230 303 -220 q 193 -240 233 -240 q 84 -211 122 -240 q 47 -137 47 -183 q 72 -65 47 -100 q 146 0 97 -29 l 85 0 l 85 716 l 276 716 l 276 0 l 259 0 q 233 -17 245 -8 q 211 -38 220 -26 q 195 -62 201 -49 q 190 -90 190 -75 q 201 -120 190 -109 q 233 -131 213 -131 q 253 -130 245 -131 q 265 -127 260 -129 q 273 -125 269 -126 q 280 -124 276 -124 q 298 -135 293 -124 l 326 -205 z "},"ı":{"ha":363,"x_min":85,"x_max":277,"o":"m 277 716 l 277 0 l 85 0 l 85 716 l 277 716 z "},"j":{"ha":361,"x_min":-54,"x_max":299,"o":"m 276 716 l 276 -14 q 264 -105 276 -62 q 223 -180 251 -148 q 150 -231 195 -212 q 38 -249 104 -249 q -9 -246 13 -249 q -54 -236 -31 -242 l -47 -135 q -37 -115 -46 -121 q -3 -110 -28 -110 q 40 -105 23 -110 q 66 -90 56 -101 q 81 -60 76 -78 q 85 -14 85 -42 l 85 716 l 276 716 m 299 919 q 290 874 299 895 q 264 838 280 853 q 225 813 247 822 q 178 803 203 803 q 134 813 155 803 q 97 838 113 822 q 71 874 81 853 q 62 919 62 895 q 71 965 62 944 q 97 1002 81 986 q 134 1027 113 1018 q 178 1036 155 1036 q 225 1027 203 1036 q 264 1002 247 1018 q 290 965 280 986 q 299 919 299 944 z "},"ȷ":{"ha":363,"x_min":-53,"x_max":277,"o":"m 277 716 l 277 -14 q 265 -105 277 -62 q 224 -180 252 -148 q 150 -231 196 -212 q 38 -249 105 -249 q -9 -246 13 -249 q -53 -236 -31 -242 l -47 -135 q -36 -115 -45 -121 q -2 -110 -28 -110 q 40 -105 24 -110 q 67 -90 57 -101 q 81 -60 77 -78 q 85 -14 85 -42 l 85 716 l 277 716 z "},"k":{"ha":758,"x_min":79,"x_max":760,"o":"m 271 1035 l 271 448 l 303 448 q 331 453 321 448 q 352 472 342 458 l 510 683 q 537 708 522 699 q 575 716 552 716 l 750 716 l 544 455 q 488 403 520 422 q 516 378 504 392 q 539 345 528 363 l 760 0 l 588 0 q 550 7 566 0 q 524 33 534 15 l 363 297 q 342 318 353 313 q 311 323 332 323 l 271 323 l 271 0 l 79 0 l 79 1035 l 271 1035 z "},"ĸ":{"ha":758,"x_min":79,"x_max":760,"o":"m 271 716 l 271 448 l 303 448 q 331 453 321 448 q 352 472 342 458 l 510 683 q 537 708 522 699 q 575 716 552 716 l 750 716 l 544 455 q 488 403 520 422 q 516 378 504 392 q 539 345 528 363 l 760 0 l 588 0 q 550 7 566 0 q 524 33 534 15 l 363 297 q 342 318 353 313 q 311 323 332 323 l 271 323 l 271 0 l 79 0 l 79 716 l 271 716 z "},"ł":{"ha":470,"x_min":26,"x_max":451,"o":"m 451 723 l 451 615 q 425 574 451 585 l 331 535 l 331 0 l 139 0 l 139 469 l 26 424 l 26 536 q 49 572 26 561 l 139 610 l 139 1035 l 331 1035 l 331 676 l 451 723 z "},"ľ":{"ha":352,"x_min":81,"x_max":535,"o":"m 272 1035 l 272 0 l 81 0 l 81 1035 l 272 1035 m 505 1037 q 531 1027 526 1037 q 535 1010 535 1018 q 533 993 535 1003 q 523 962 531 983 q 502 909 515 942 q 465 825 488 876 q 439 798 455 804 q 399 792 424 792 l 331 792 l 376 1037 l 505 1037 z "},"m":{"ha":1172,"x_min":79,"x_max":1099,"o":"m 79 0 l 79 716 l 197 716 q 245 683 233 716 l 256 636 q 295 672 275 656 q 338 701 315 689 q 387 720 360 713 q 445 727 414 727 q 554 692 511 727 q 619 599 597 657 q 662 657 637 633 q 718 697 688 682 q 782 720 748 713 q 849 727 815 727 q 956 709 910 727 q 1034 656 1003 691 q 1083 570 1066 621 q 1099 455 1099 519 l 1099 0 l 908 0 l 908 455 q 800 581 908 581 q 755 573 776 581 q 719 549 735 565 q 695 509 703 533 q 686 455 686 485 l 686 0 l 494 0 l 494 455 q 468 552 494 523 q 389 581 441 581 q 326 565 356 581 q 271 522 297 549 l 271 0 l 79 0 z "},"n":{"ha":788,"x_min":79,"x_max":715,"o":"m 257 633 q 302 671 278 653 q 351 701 325 688 q 407 720 377 713 q 473 727 438 727 q 576 707 531 727 q 652 651 622 687 q 699 565 683 615 q 715 455 715 515 l 715 0 l 524 0 l 524 455 q 496 548 524 515 q 414 581 468 581 q 338 563 374 581 q 271 515 303 546 l 271 0 l 79 0 l 79 716 l 197 716 q 245 683 233 716 l 257 633 z "},"ŋ":{"ha":788,"x_min":79,"x_max":715,"o":"m 257 633 q 302 671 278 653 q 351 701 325 688 q 407 720 377 713 q 473 727 438 727 q 576 707 531 727 q 652 651 622 687 q 699 565 683 615 q 715 455 715 515 l 715 34 q 699 -80 715 -28 q 651 -169 683 -131 q 566 -228 618 -207 q 443 -249 515 -249 q 407 -248 424 -249 q 374 -242 390 -246 q 342 -234 358 -239 q 308 -221 326 -228 l 329 -139 q 347 -110 335 -117 q 372 -103 358 -103 q 393 -107 383 -103 q 426 -110 404 -110 q 499 -81 475 -110 q 524 12 524 -51 l 524 455 q 496 548 524 515 q 414 581 468 581 q 338 563 374 581 q 271 515 303 546 l 271 0 l 79 0 l 79 716 l 197 716 q 245 683 233 716 l 257 633 z "},"o":{"ha":802,"x_min":42,"x_max":760,"o":"m 402 727 q 549 701 483 727 q 662 628 615 676 q 735 513 709 581 q 760 359 760 444 q 735 205 760 274 q 662 89 709 137 q 549 15 615 41 q 402 -10 483 -10 q 255 15 321 -10 q 141 89 188 41 q 68 205 94 137 q 42 359 42 274 q 68 513 42 444 q 141 628 94 581 q 255 701 188 676 q 402 727 321 727 m 402 133 q 524 190 484 133 q 563 358 563 247 q 524 526 563 469 q 402 583 484 583 q 278 526 318 583 q 239 358 239 469 q 278 190 239 247 q 402 133 318 133 z "},"ø":{"ha":801,"x_min":26,"x_max":790,"o":"m 317 146 q 402 128 355 128 q 530 187 484 128 q 575 358 575 247 q 571 422 575 393 q 560 475 567 451 l 317 146 m 485 570 q 402 589 450 589 q 272 529 318 589 q 226 358 226 469 q 231 294 226 323 q 242 240 235 265 l 485 570 m 668 622 q 736 508 713 574 q 760 359 760 442 q 735 205 760 274 q 662 89 709 137 q 549 15 615 41 q 402 -10 483 -10 q 229 26 305 -10 l 210 1 q 186 -25 200 -15 q 158 -42 173 -35 q 127 -51 142 -48 q 96 -53 111 -53 l 26 -53 l 135 94 q 66 209 90 142 q 42 359 42 276 q 68 513 42 444 q 141 628 94 581 q 255 701 188 676 q 402 727 321 727 q 574 690 499 727 l 609 738 q 626 761 618 752 q 644 777 635 771 q 666 785 654 783 q 695 788 678 788 l 790 788 l 668 622 z "},"œ":{"ha":1218,"x_min":42,"x_max":1177,"o":"m 389 133 q 501 190 465 133 q 538 358 538 247 q 501 526 538 469 q 389 583 465 583 q 275 526 311 583 q 239 358 239 469 q 275 190 239 247 q 389 133 311 133 m 1006 428 q 999 489 1006 459 q 976 541 992 518 q 936 578 961 564 q 878 592 912 592 q 774 550 810 592 q 728 428 738 507 l 1006 428 m 728 315 q 784 178 739 222 q 900 135 830 135 q 964 144 938 135 q 1011 165 990 153 q 1049 186 1032 176 q 1084 195 1066 195 q 1117 178 1105 195 l 1174 109 q 1108 50 1144 74 q 1033 14 1072 27 q 957 -5 995 0 q 882 -10 918 -10 q 744 22 809 -10 q 635 122 678 53 q 525 24 592 58 q 371 -10 458 -10 q 240 15 300 -10 q 135 89 179 41 q 66 205 91 137 q 42 359 42 274 q 67 513 42 444 q 136 628 92 581 q 242 701 181 676 q 378 727 304 727 q 527 694 462 727 q 634 598 592 660 q 736 692 674 657 q 886 727 799 727 q 1002 703 949 727 q 1094 635 1055 680 q 1155 528 1133 591 q 1177 387 1177 465 q 1175 351 1177 365 q 1169 329 1174 338 q 1156 318 1164 321 q 1135 315 1148 315 l 728 315 z "},"p":{"ha":793,"x_min":79,"x_max":749,"o":"m 271 189 q 330 145 298 158 q 397 133 361 133 q 460 146 432 133 q 509 187 489 159 q 541 259 530 215 q 552 363 552 303 q 543 465 552 423 q 516 532 533 506 q 475 569 499 558 q 421 581 451 581 q 336 561 370 581 q 271 503 301 541 l 271 189 m 260 622 q 306 666 281 646 q 358 700 330 685 q 417 722 385 714 q 487 730 449 730 q 593 705 544 730 q 676 634 641 681 q 730 519 710 587 q 749 363 749 451 q 727 214 749 283 q 665 96 706 146 q 568 18 625 46 q 442 -10 512 -10 q 343 7 384 -10 q 271 54 303 24 l 271 -231 l 79 -231 l 79 716 l 197 716 q 245 683 233 716 l 260 622 z "},"þ":{"ha":793,"x_min":79,"x_max":749,"o":"m 271 189 q 330 145 298 158 q 397 133 361 133 q 460 146 432 133 q 509 187 489 159 q 541 259 530 215 q 552 363 552 303 q 543 465 552 423 q 516 532 533 506 q 475 569 499 558 q 421 581 451 581 q 336 561 370 581 q 271 503 301 541 l 271 189 m 271 633 q 365 702 313 676 q 487 727 417 727 q 593 703 544 727 q 676 632 641 678 q 730 518 710 586 q 749 363 749 451 q 727 214 749 283 q 665 96 706 146 q 568 18 625 46 q 442 -10 512 -10 q 343 11 383 -10 q 271 67 303 32 l 271 -231 l 79 -231 l 79 1035 l 271 1035 l 271 633 z "},"q":{"ha":792,"x_min":43,"x_max":713,"o":"m 522 530 q 463 574 494 561 q 396 586 431 586 q 333 573 361 586 q 284 532 304 560 q 252 460 263 503 q 241 356 241 416 q 250 254 241 296 q 276 187 259 213 q 317 150 293 161 q 372 138 342 138 q 457 158 422 138 q 522 215 491 178 l 522 530 m 713 716 l 713 -231 l 522 -231 l 522 85 q 428 16 480 42 q 306 -10 376 -10 q 200 14 248 -10 q 117 85 152 38 q 63 200 82 132 q 43 356 43 268 q 65 504 43 435 q 127 623 87 573 q 224 701 167 673 q 351 730 281 730 q 410 724 383 730 q 460 708 438 718 q 502 682 483 697 q 539 648 521 667 l 548 683 q 595 716 558 716 l 713 716 z "},"r":{"ha":524,"x_min":79,"x_max":521,"o":"m 259 598 q 338 694 293 659 q 442 730 382 730 q 521 707 490 730 l 508 565 q 498 546 505 551 q 478 541 490 541 q 446 544 467 541 q 407 547 425 547 q 360 540 381 547 q 324 518 340 532 q 295 484 308 504 q 271 438 282 464 l 271 0 l 79 0 l 79 716 l 192 716 q 233 706 222 716 q 249 669 244 695 l 259 598 z "},"s":{"ha":615,"x_min":28,"x_max":574,"o":"m 524 569 q 509 552 517 557 q 487 547 501 547 q 458 553 473 547 q 426 568 444 560 q 384 583 408 576 q 331 590 361 590 q 258 571 284 590 q 233 521 233 552 q 247 485 233 499 q 286 459 262 470 q 340 439 310 449 q 403 419 371 430 q 466 393 435 408 q 520 357 497 378 q 559 304 544 335 q 574 229 574 273 q 555 133 574 177 q 499 57 535 89 q 407 7 462 25 q 281 -11 352 -11 q 208 -5 244 -11 q 139 14 172 2 q 78 42 106 26 q 28 77 49 58 l 73 149 q 92 168 81 161 q 122 175 103 175 q 153 166 139 175 q 186 148 168 158 q 229 129 204 138 q 290 120 253 120 q 338 126 318 120 q 371 143 358 133 q 389 168 383 154 q 395 196 395 181 q 380 234 395 219 q 341 260 365 249 q 286 281 317 272 q 223 301 255 290 q 159 327 190 312 q 105 366 128 342 q 66 423 81 389 q 51 506 51 457 q 68 590 51 550 q 120 660 85 630 q 207 709 155 691 q 326 727 258 727 q 465 702 403 727 q 568 637 528 677 l 524 569 z "},"ş":{"ha":615,"x_min":28,"x_max":574,"o":"m 524 569 q 509 552 517 557 q 487 547 501 547 q 458 553 473 547 q 426 568 444 560 q 384 583 408 576 q 331 590 361 590 q 258 571 284 590 q 233 521 233 552 q 247 485 233 499 q 286 459 262 470 q 340 439 310 449 q 403 419 371 430 q 466 393 435 408 q 520 357 497 378 q 559 304 544 335 q 574 229 574 273 q 559 143 574 183 q 516 73 544 103 q 444 22 487 42 q 346 -7 401 1 l 337 -39 q 392 -57 369 -47 q 427 -81 414 -68 q 447 -110 441 -94 q 453 -144 453 -126 q 440 -187 453 -168 q 404 -219 427 -206 q 348 -240 381 -233 q 276 -247 315 -247 q 223 -244 247 -247 q 174 -234 198 -241 l 191 -175 q 213 -158 195 -158 q 233 -162 222 -158 q 263 -166 244 -166 q 293 -158 283 -166 q 303 -140 303 -151 q 280 -115 303 -123 q 205 -99 256 -107 l 236 -8 q 176 3 206 -5 q 119 22 146 10 q 69 47 92 33 q 28 77 46 61 l 73 149 q 92 168 81 161 q 122 175 103 175 q 153 166 139 175 q 186 148 168 158 q 229 129 204 138 q 290 120 253 120 q 338 126 318 120 q 371 143 358 133 q 389 168 383 154 q 395 196 395 181 q 380 234 395 219 q 341 260 365 249 q 286 281 317 272 q 223 301 255 290 q 159 327 190 312 q 105 366 128 342 q 66 423 81 389 q 51 506 51 457 q 68 590 51 550 q 120 660 85 630 q 207 709 155 691 q 326 727 258 727 q 465 702 403 727 q 568 637 528 677 l 524 569 z "},"ß":{"ha":850,"x_min":79,"x_max":817,"o":"m 453 1026 q 556 1014 510 1026 q 636 984 601 1003 q 695 940 671 965 q 736 889 720 915 q 759 835 752 862 q 767 784 767 808 q 753 716 767 744 q 721 667 740 688 q 678 631 701 647 q 636 601 656 615 q 603 573 617 588 q 590 539 590 558 q 607 501 590 517 q 649 469 624 485 q 703 434 674 453 q 758 389 733 415 q 800 324 783 362 q 817 234 817 287 q 794 127 817 174 q 733 51 772 81 q 644 5 694 20 q 537 -11 593 -11 q 474 -5 506 -11 q 413 14 442 2 q 358 42 384 26 q 310 77 331 58 l 355 149 q 374 168 363 161 q 403 175 385 175 q 436 166 421 175 q 467 148 451 158 q 505 129 484 138 q 554 120 525 120 q 614 143 590 120 q 638 204 638 167 q 619 255 638 235 q 573 293 601 276 q 514 326 546 310 q 454 366 481 343 q 408 421 426 389 q 390 501 390 453 q 404 571 390 542 q 439 622 418 600 q 485 661 460 644 q 531 697 510 679 q 566 735 552 715 q 581 783 581 756 q 573 826 581 806 q 549 859 565 845 q 506 882 532 874 q 445 890 481 890 q 313 834 356 890 q 270 675 270 778 l 270 0 l 79 0 l 79 681 q 105 818 79 755 q 179 927 131 881 q 297 1000 227 974 q 453 1026 366 1026 z "},"ſ":{"ha":429,"x_min":27,"x_max":501,"o":"m 131 759 q 150 870 131 820 q 205 954 169 919 q 292 1007 241 988 q 408 1026 343 1026 q 456 1023 433 1026 q 501 1013 478 1019 l 495 915 q 477 894 494 899 q 441 890 461 890 q 389 883 411 890 q 352 859 367 876 q 330 817 338 843 q 323 753 323 791 l 323 0 l 131 0 l 131 578 l 76 588 q 41 603 54 592 q 27 635 27 615 l 27 712 l 131 712 l 131 759 z "},"t":{"ha":524,"x_min":21,"x_max":519,"o":"m 326 -11 q 240 3 278 -11 q 177 44 203 17 q 138 108 151 70 q 125 192 125 145 l 125 578 l 58 578 q 32 588 42 578 q 21 617 21 598 l 21 692 l 135 713 l 174 899 q 217 930 182 930 l 317 930 l 317 712 l 501 712 l 501 578 l 317 578 l 317 205 q 331 158 317 175 q 372 140 345 140 q 395 143 385 140 q 412 150 405 147 q 425 157 419 154 q 437 160 431 160 q 451 157 445 160 q 462 144 456 153 l 519 52 q 430 5 480 21 q 326 -11 380 -11 z "},"ť":{"ha":524,"x_min":21,"x_max":621,"o":"m 326 -11 q 240 3 278 -11 q 177 44 203 17 q 138 108 151 70 q 125 192 125 145 l 125 578 l 58 578 q 32 588 42 578 q 21 617 21 598 l 21 692 l 135 713 l 174 899 q 217 930 182 930 l 317 930 l 317 712 l 501 712 l 501 578 l 317 578 l 317 205 q 331 158 317 175 q 372 140 345 140 q 395 143 385 140 q 412 150 405 147 q 425 157 419 154 q 437 160 431 160 q 451 157 445 160 q 462 144 456 153 l 519 52 q 430 5 480 21 q 326 -11 380 -11 m 590 1037 q 616 1027 611 1037 q 621 1010 621 1018 q 618 993 621 1003 q 608 962 616 983 q 587 909 601 942 q 551 825 574 876 q 525 798 540 804 q 485 792 509 792 l 417 792 l 461 1037 l 590 1037 z "},"ŧ":{"ha":530,"x_min":22,"x_max":521,"o":"m 40 483 l 126 483 l 126 578 l 59 578 q 33 588 44 578 q 22 617 22 598 l 22 692 l 137 713 l 176 899 q 218 930 183 930 l 318 930 l 318 712 l 503 712 l 503 578 l 318 578 l 318 483 l 509 483 l 509 367 l 318 367 l 318 205 q 332 158 318 175 q 373 140 347 140 q 397 143 387 140 q 413 150 406 147 q 426 157 420 154 q 438 160 432 160 q 452 157 447 160 q 463 144 458 153 l 521 52 q 431 5 481 21 q 328 -11 381 -11 q 242 3 279 -11 q 178 44 204 17 q 140 108 153 70 q 126 192 126 145 l 126 367 l 40 367 l 40 483 z "},"u":{"ha":787,"x_min":72,"x_max":708,"o":"m 708 716 l 708 0 l 590 0 q 542 33 553 0 l 530 83 q 485 45 508 63 q 436 15 463 28 q 380 -4 410 3 q 315 -11 350 -11 q 211 9 256 -11 q 135 65 165 29 q 88 151 104 101 q 72 261 72 201 l 72 716 l 264 716 l 264 261 q 291 168 264 201 q 373 135 319 135 q 449 153 413 135 q 516 201 484 171 l 516 716 l 708 716 z "},"ų":{"ha":787,"x_min":72,"x_max":775,"o":"m 775 -205 q 716 -230 751 -220 q 642 -240 681 -240 q 533 -211 570 -240 q 496 -137 496 -183 q 520 -65 496 -100 q 594 0 545 -29 l 590 0 q 542 33 553 0 l 530 83 q 485 45 508 63 q 436 15 463 28 q 380 -4 410 3 q 315 -11 350 -11 q 211 9 256 -11 q 135 65 165 29 q 88 151 104 101 q 72 261 72 201 l 72 716 l 264 716 l 264 261 q 291 168 264 201 q 373 135 319 135 q 449 153 413 135 q 516 201 484 171 l 516 716 l 708 716 l 708 0 q 681 -17 694 -8 q 659 -38 669 -26 q 644 -62 650 -49 q 638 -90 638 -75 q 650 -120 638 -109 q 682 -131 661 -131 q 701 -130 694 -131 q 714 -127 709 -129 q 722 -125 718 -126 q 728 -124 725 -124 q 747 -135 742 -124 l 775 -205 z "},"v":{"ha":740,"x_min":2,"x_max":738,"o":"m 738 716 l 457 0 l 283 0 l 2 716 l 161 716 q 196 706 182 716 q 215 681 210 697 l 335 327 q 356 257 347 291 q 372 188 365 222 q 389 257 380 222 q 411 327 399 291 l 535 681 q 554 706 540 697 q 587 716 568 716 l 738 716 z "},"w":{"ha":1124,"x_min":8,"x_max":1116,"o":"m 1116 716 l 891 0 l 736 0 q 715 8 724 0 q 701 33 706 15 l 584 421 q 572 465 577 443 q 563 509 567 487 q 552 464 558 487 q 540 419 547 442 l 422 33 q 381 0 413 0 l 233 0 l 8 716 l 161 716 q 196 706 182 716 q 215 681 210 697 l 303 327 q 318 261 312 293 q 330 198 324 229 q 348 261 338 229 q 367 327 357 293 l 472 683 q 491 707 477 697 q 524 717 505 717 l 608 717 q 643 707 628 717 q 662 683 657 697 l 763 327 q 782 261 773 294 q 799 197 791 229 q 811 261 804 228 q 826 327 817 293 l 919 681 q 938 706 924 697 q 970 716 951 716 l 1116 716 z "},"x":{"ha":739,"x_min":-1,"x_max":740,"o":"m 740 0 l 556 0 q 522 10 535 0 q 501 35 509 21 l 360 270 q 342 228 354 247 l 222 35 q 201 11 213 22 q 170 0 189 0 l -1 0 l 242 369 l 9 716 l 193 716 q 224 710 214 716 q 241 692 233 705 l 381 465 q 390 489 385 477 q 403 513 396 501 l 511 689 q 554 716 528 716 l 730 716 l 497 378 l 740 0 z "},"y":{"ha":739,"x_min":0,"x_max":743,"o":"m 743 716 l 357 -192 q 335 -222 348 -212 q 294 -231 322 -231 l 152 -231 l 288 58 l 0 716 l 168 716 q 203 706 191 716 q 222 681 216 695 l 358 339 q 371 298 365 319 q 383 258 377 278 q 411 340 395 299 l 538 681 q 558 706 543 697 q 590 716 572 716 l 743 716 z "},"z":{"ha":642,"x_min":34,"x_max":602,"o":"m 602 638 q 595 599 602 618 q 577 568 588 580 l 256 144 l 593 144 l 593 0 l 34 0 l 34 79 q 41 109 34 91 q 59 143 47 127 l 383 572 l 54 572 l 54 716 l 602 716 l 602 638 z "},"ª":{"ha":510,"x_min":51,"x_max":438,"o":"m 303 755 q 243 749 267 753 q 206 739 219 745 q 187 723 192 732 q 182 705 182 715 q 193 678 182 685 q 226 671 204 671 q 267 679 249 671 q 303 705 285 687 l 303 755 m 72 953 q 159 1006 111 990 q 263 1022 207 1022 q 336 1009 303 1022 q 391 974 368 997 q 425 919 413 951 q 438 852 438 888 l 438 584 l 373 584 q 345 590 354 584 q 327 611 335 595 l 319 633 q 287 609 302 619 q 257 592 272 599 q 223 582 241 585 q 182 578 205 578 q 86 609 122 578 q 51 699 51 640 q 62 745 51 721 q 102 789 74 769 q 180 823 131 809 q 303 838 228 836 l 303 852 q 289 901 303 888 q 246 915 274 915 q 209 910 224 915 q 184 900 195 906 q 161 889 172 894 q 135 885 150 885 q 111 893 121 885 q 95 910 102 901 l 72 953 z "},"º":{"ha":556,"x_min":45,"x_max":510,"o":"m 279 1021 q 373 1006 330 1021 q 446 962 415 990 q 493 892 476 933 q 510 800 510 851 q 493 706 510 748 q 446 636 476 665 q 373 591 415 607 q 279 576 330 576 q 184 591 227 576 q 110 636 141 607 q 62 706 79 665 q 45 800 45 748 q 62 892 45 851 q 110 962 79 933 q 184 1006 141 990 q 279 1021 227 1021 m 279 685 q 341 713 321 685 q 360 799 360 740 q 341 885 360 858 q 279 911 321 911 q 215 885 235 911 q 194 799 194 858 q 215 713 194 740 q 279 685 235 685 z "},"ⁿ":{"ha":438,"x_min":47,"x_max":395,"o":"m 158 964 q 181 983 169 974 q 206 999 192 992 q 234 1009 219 1006 q 269 1013 249 1013 q 323 1002 299 1013 q 363 973 347 992 q 387 928 378 953 q 395 872 395 902 l 395 638 l 263 638 l 263 872 q 227 910 263 910 q 203 906 215 910 q 180 892 192 901 l 180 638 l 47 638 l 47 1008 l 118 1008 q 139 1002 131 1008 q 153 982 147 996 l 158 964 z "},"`":{"ha":556,"x_min":40,"x_max":387,"o":"m 219 1019 q 264 1009 249 1019 q 290 980 279 999 l 387 810 l 278 810 q 243 816 257 810 q 216 837 230 822 l 40 1019 l 219 1019 z "},"´":{"ha":556,"x_min":181,"x_max":534,"o":"m 534 1019 l 358 837 q 331 816 344 822 q 296 810 317 810 l 181 810 l 278 980 q 303 1009 288 999 q 349 1019 318 1019 l 534 1019 z "},"ˆ":{"ha":556,"x_min":27,"x_max":528,"o":"m 528 811 l 401 811 q 379 815 390 811 q 358 829 369 819 l 297 895 q 289 903 293 899 q 281 913 285 908 q 265 895 273 903 l 203 829 q 160 811 183 811 l 27 811 l 188 1008 l 367 1008 l 528 811 z "},"ˇ":{"ha":556,"x_min":27,"x_max":528,"o":"m 528 1008 l 367 811 l 188 811 l 27 1008 l 160 1008 q 182 1004 172 1008 q 197 995 192 1000 l 264 924 q 281 906 272 916 q 289 916 285 911 q 297 924 292 920 l 363 995 q 379 1003 369 999 q 401 1008 390 1008 l 528 1008 z "},"̕":{"ha":0,"x_min":182,"x_max":386,"o":"m 356 1037 q 381 1027 376 1037 q 386 1010 386 1018 q 384 993 386 1003 q 374 962 381 983 q 352 909 366 942 q 316 825 339 876 q 290 798 306 804 q 250 792 274 792 l 182 792 l 226 1037 l 356 1037 z "},"˜":{"ha":556,"x_min":49,"x_max":509,"o":"m 351 953 q 381 963 370 953 q 392 1002 392 973 l 509 1002 q 498 928 509 961 q 466 871 486 894 q 418 835 446 848 q 358 822 390 822 q 311 831 333 822 q 270 850 290 840 q 235 868 251 860 q 207 877 219 877 q 177 866 188 877 q 167 826 167 856 l 49 826 q 60 901 49 867 q 92 958 72 934 q 140 994 113 981 q 199 1007 167 1007 q 247 999 225 1007 q 288 980 269 990 q 323 961 307 969 q 351 953 338 953 z "},"¨":{"ha":556,"x_min":31,"x_max":525,"o":"m 237 899 q 228 860 237 878 q 206 828 220 842 q 173 807 192 815 q 132 799 153 799 q 93 807 112 799 q 61 828 75 815 q 39 860 47 842 q 31 899 31 878 q 39 938 31 919 q 61 971 47 957 q 93 993 75 985 q 132 1001 112 1001 q 173 993 153 1001 q 206 971 192 985 q 228 938 220 957 q 237 899 237 919 m 525 899 q 517 860 525 878 q 494 828 508 842 q 461 807 481 815 q 421 799 442 799 q 381 807 400 799 q 349 828 363 815 q 327 860 335 842 q 319 899 319 878 q 327 938 319 919 q 349 971 335 957 q 381 993 363 985 q 421 1001 400 1001 q 461 993 442 1001 q 494 971 481 985 q 517 938 508 957 q 525 899 525 919 z "},"¯":{"ha":556,"x_min":67,"x_max":489,"o":"m 67 959 l 489 959 l 489 840 l 67 840 l 67 959 z "},"˘":{"ha":556,"x_min":60,"x_max":496,"o":"m 278 806 q 174 822 216 806 q 107 865 132 838 q 70 930 81 893 q 60 1008 60 967 l 194 1008 q 197 972 194 988 q 210 945 201 956 q 236 929 219 935 q 278 924 252 924 q 320 929 303 924 q 345 945 336 935 q 358 972 355 956 q 362 1008 362 988 l 496 1008 q 485 930 496 967 q 449 865 474 893 q 382 822 424 838 q 278 806 340 806 z "},"˚":{"ha":556,"x_min":117,"x_max":440,"o":"m 117 923 q 130 984 117 956 q 165 1030 143 1011 q 216 1060 187 1049 q 276 1071 244 1071 q 339 1060 309 1071 q 391 1030 369 1049 q 427 984 414 1011 q 440 923 440 956 q 427 864 440 890 q 391 819 414 838 q 339 790 369 800 q 276 779 309 779 q 216 790 244 779 q 165 819 187 800 q 130 864 143 838 q 117 923 117 890 m 219 923 q 235 880 219 897 q 279 864 250 864 q 322 880 306 864 q 338 923 338 897 q 322 967 338 951 q 279 983 306 983 q 235 967 250 983 q 219 923 219 951 z "},"˝":{"ha":556,"x_min":93,"x_max":624,"o":"m 373 1019 l 234 837 q 208 816 222 821 q 172 810 193 810 l 93 810 l 178 980 q 203 1009 188 999 q 249 1019 219 1019 l 373 1019 m 624 1019 l 447 837 q 420 816 433 822 q 385 810 406 810 l 294 810 l 417 980 q 430 996 424 989 q 444 1008 436 1003 q 463 1016 452 1013 q 488 1019 474 1019 l 624 1019 z "},"˙":{"ha":556,"x_min":160,"x_max":397,"o":"m 397 921 q 388 876 397 897 q 361 839 378 855 q 323 814 345 824 q 276 805 301 805 q 232 814 253 805 q 194 839 210 824 q 169 876 178 855 q 160 921 160 897 q 169 966 160 945 q 194 1003 178 988 q 232 1029 210 1019 q 276 1038 253 1038 q 323 1029 301 1038 q 361 1003 345 1019 q 388 966 378 988 q 397 921 397 945 z "},"¸":{"ha":556,"x_min":156,"x_max":435,"o":"m 319 -39 q 374 -57 351 -47 q 409 -81 396 -68 q 429 -110 423 -94 q 435 -144 435 -126 q 422 -187 435 -168 q 386 -219 409 -206 q 330 -240 363 -233 q 258 -247 297 -247 q 205 -244 229 -247 q 156 -234 180 -241 l 173 -175 q 194 -158 177 -158 q 215 -162 204 -158 q 244 -166 226 -166 q 275 -158 265 -166 q 285 -140 285 -151 q 261 -115 285 -123 q 187 -99 238 -107 l 230 27 l 337 27 l 319 -39 z "},"˛":{"ha":556,"x_min":143,"x_max":422,"o":"m 376 -124 q 394 -135 389 -124 l 422 -205 q 364 -230 399 -220 q 289 -240 328 -240 q 180 -211 217 -240 q 143 -137 143 -183 q 172 -60 143 -98 q 256 8 200 -22 l 355 0 q 328 -17 341 -8 q 307 -38 316 -26 q 291 -62 297 -49 q 285 -90 285 -75 q 297 -120 285 -109 q 329 -131 308 -131 q 349 -130 341 -131 q 361 -127 356 -129 q 369 -125 365 -126 q 376 -124 372 -124 z "},"Γ":{"ha":768,"x_min":106,"x_max":747,"o":"m 747 850 l 315 850 l 315 0 l 106 0 l 106 1008 l 747 1008 l 747 850 z "},"Δ":{"ha":980,"x_min":10,"x_max":969,"o":"m 223 162 l 736 162 l 528 691 q 506 754 517 717 q 483 833 494 791 q 461 753 473 790 q 438 690 449 717 l 223 162 m 944 178 q 969 58 969 121 l 969 0 l 10 0 l 10 58 q 34 176 10 113 l 385 1008 l 598 1008 l 944 178 z "},"Θ":{"ha":1126,"x_min":47,"x_max":1079,"o":"m 381 587 l 744 587 l 744 423 l 381 423 l 381 587 m 1079 504 q 1042 299 1079 394 q 937 136 1005 205 q 774 28 869 67 q 563 -11 679 -11 q 352 28 447 -11 q 189 136 257 67 q 84 299 121 205 q 47 504 47 394 q 84 709 47 615 q 189 872 121 803 q 352 980 257 940 q 563 1019 447 1019 q 774 980 679 1019 q 937 871 869 940 q 1042 708 1005 802 q 1079 504 1079 614 m 866 504 q 845 646 866 583 q 785 753 824 709 q 690 820 746 797 q 563 844 634 844 q 436 820 492 844 q 341 753 380 797 q 281 646 301 709 q 260 504 260 583 q 281 361 260 424 q 341 255 301 299 q 436 188 380 211 q 563 165 492 165 q 690 188 634 165 q 785 255 746 211 q 845 361 824 299 q 866 504 866 424 z "},"Λ":{"ha":973,"x_min":-14,"x_max":985,"o":"m 985 0 l 806 0 q 761 13 778 0 q 736 46 744 26 l 518 626 q 493 698 506 659 q 471 778 481 736 q 451 698 462 736 q 428 626 440 659 l 211 46 q 186 14 204 28 q 142 0 169 0 l -14 0 l 392 1008 l 580 1008 l 985 0 z "},"Ξ":{"ha":867,"x_min":50,"x_max":819,"o":"m 819 1008 l 819 838 l 50 838 l 50 1008 l 819 1008 m 819 169 l 819 0 l 50 0 l 50 169 l 819 169 m 223 592 l 645 592 l 645 417 l 223 417 l 223 592 z "},"Π":{"ha":1074,"x_min":106,"x_max":969,"o":"m 969 0 l 759 0 l 759 850 l 315 850 l 315 0 l 106 0 l 106 1008 l 969 1008 l 969 0 z "},"Σ":{"ha":853,"x_min":40,"x_max":809,"o":"m 404 850 q 331 853 363 850 q 267 861 299 856 q 383 777 338 827 l 511 618 q 539 585 528 599 q 555 560 549 571 q 562 539 560 549 q 564 522 564 530 q 562 500 564 511 q 555 477 560 490 q 539 449 549 465 q 510 415 528 434 l 343 215 q 304 174 320 189 q 272 149 288 159 q 330 156 303 154 q 379 158 357 158 l 809 158 l 809 0 l 40 0 l 40 76 q 51 121 40 99 q 78 160 62 143 l 380 503 l 64 863 q 47 889 53 874 q 40 920 40 904 l 40 1008 l 809 1008 l 809 850 l 404 850 z "},"Φ":{"ha":1194,"x_min":35,"x_max":1160,"o":"m 697 214 q 804 239 756 215 q 886 301 852 262 q 939 393 921 340 q 958 505 958 445 q 939 617 958 565 q 886 709 921 669 q 804 772 852 748 q 697 797 756 795 l 697 214 m 499 797 q 391 772 439 795 q 309 709 343 749 q 256 617 274 670 q 238 505 238 565 q 256 393 238 445 q 309 301 274 340 q 391 239 343 262 q 499 214 439 215 l 499 797 m 697 955 q 888 918 802 953 q 1034 821 974 882 q 1127 678 1094 760 q 1160 505 1160 597 q 1127 331 1160 413 q 1034 189 1094 250 q 888 93 974 128 q 697 56 802 57 l 697 -77 l 499 -77 l 499 56 q 307 93 393 57 q 161 189 222 128 q 68 331 101 250 q 35 505 35 413 q 68 678 35 597 q 162 821 101 760 q 308 918 222 882 q 499 955 393 953 l 499 1085 l 697 1085 l 697 955 z "},"Ψ":{"ha":1167,"x_min":56,"x_max":1110,"o":"m 1110 1008 l 1110 645 q 1083 485 1110 557 q 1003 360 1056 413 q 871 277 950 308 q 687 240 792 246 l 687 0 l 477 0 l 477 240 q 294 277 373 246 q 162 361 215 308 q 82 485 109 413 q 56 645 56 557 l 56 1008 l 196 1008 q 247 988 229 1008 q 265 939 265 968 l 265 645 q 275 547 265 590 q 310 474 285 504 q 375 426 335 444 q 477 404 416 409 l 477 1008 l 687 1008 l 687 404 q 789 426 748 409 q 855 474 831 444 q 890 547 880 503 q 901 645 901 590 l 901 939 q 919 988 901 968 q 970 1008 937 1008 l 1110 1008 z "},"Ω":{"ha":1137,"x_min":53,"x_max":1084,"o":"m 1084 169 l 1084 64 q 1065 18 1084 35 q 1015 0 1046 0 l 643 0 l 643 231 q 727 266 688 238 q 795 338 766 294 q 842 437 825 381 q 860 556 860 493 q 837 683 860 629 q 774 773 814 738 q 682 826 735 808 q 568 844 628 844 q 456 826 508 844 q 363 773 403 808 q 300 683 324 738 q 277 556 277 629 q 294 437 277 493 q 341 338 312 381 q 410 266 371 294 q 494 231 450 238 l 494 0 l 123 0 q 72 18 91 0 q 53 64 53 35 l 53 169 l 197 169 q 269 165 232 169 q 342 156 306 162 q 232 219 282 179 q 145 310 181 258 q 90 425 110 363 q 70 558 70 488 q 108 741 70 656 q 213 887 147 825 q 371 984 280 949 q 569 1019 463 1019 q 766 984 675 1019 q 924 887 857 949 q 1029 741 991 825 q 1067 558 1067 656 q 1048 425 1067 488 q 992 310 1028 363 q 906 219 956 258 q 796 157 856 180 q 868 165 831 162 q 940 169 905 169 l 1084 169 z "},"α":{"ha":843,"x_min":42,"x_max":840,"o":"m 538 499 q 515 532 529 517 q 483 560 501 548 q 443 579 465 572 q 398 586 422 586 q 339 573 367 586 q 289 532 310 560 q 253 458 267 503 q 240 348 240 413 q 251 249 240 290 q 281 184 262 209 q 325 149 300 160 q 378 138 350 138 q 430 149 406 138 q 473 182 454 159 q 504 242 492 206 q 522 332 517 279 l 538 499 m 840 131 l 840 56 q 832 33 840 44 q 809 13 824 22 q 772 -2 794 3 q 723 -7 750 -7 q 627 20 671 -7 q 559 103 583 47 q 507 50 535 72 q 448 15 478 28 q 388 -5 418 1 q 329 -10 358 -10 q 215 14 268 -10 q 124 85 163 39 q 64 196 85 131 q 42 343 42 261 q 66 501 42 429 q 134 623 90 572 q 236 702 177 674 q 364 730 295 730 q 479 707 428 730 q 566 647 530 684 l 575 683 q 623 716 586 716 l 740 716 l 705 351 q 701 284 704 317 q 698 220 698 251 q 705 180 698 197 q 724 152 713 163 q 752 136 736 142 q 786 131 768 131 l 840 131 z "},"β":{"ha":795,"x_min":78,"x_max":757,"o":"m 270 195 q 323 148 294 162 q 392 133 351 133 q 469 148 437 133 q 522 188 501 163 q 553 247 543 213 q 563 319 563 281 q 548 400 563 369 q 510 447 533 431 q 457 469 486 464 q 399 475 428 475 l 356 475 l 356 622 l 376 622 q 437 628 411 622 q 480 649 463 635 q 506 688 497 664 q 515 746 515 711 q 483 850 515 818 q 398 882 451 882 q 339 869 363 882 q 299 827 315 856 q 277 752 284 798 q 270 639 270 706 l 270 195 m 78 644 q 98 799 78 730 q 157 917 117 868 q 257 992 197 965 q 401 1018 318 1018 q 535 996 480 1018 q 626 938 591 974 q 678 856 662 901 q 694 763 694 810 q 661 636 694 692 q 560 553 628 581 q 644 515 607 540 q 706 458 681 491 q 744 384 731 425 q 757 298 757 344 q 734 181 757 237 q 670 83 712 125 q 570 15 628 40 q 440 -10 512 -10 q 346 5 388 -10 q 270 51 303 19 l 270 -236 l 78 -236 l 78 644 z "},"γ":{"ha":785,"x_min":22,"x_max":781,"o":"m 781 716 q 735 559 765 642 q 665 393 705 476 q 580 229 626 310 q 487 76 534 148 l 487 -231 l 295 -231 l 295 74 q 275 189 287 129 q 246 306 263 249 q 210 413 230 363 q 165 502 190 464 q 111 563 140 540 q 49 585 83 585 l 22 585 l 22 653 q 26 681 22 668 q 40 702 30 693 q 69 717 51 712 q 115 723 87 723 q 239 689 186 723 q 331 592 292 654 q 394 444 369 531 q 432 254 419 358 q 477 354 456 302 q 514 458 497 406 q 542 562 530 511 q 563 659 554 613 q 583 704 568 692 q 617 716 599 716 l 781 716 z "},"δ":{"ha":781,"x_min":39,"x_max":742,"o":"m 391 133 q 456 145 426 133 q 507 183 485 158 q 539 243 528 208 q 551 322 551 278 q 538 406 551 369 q 502 472 524 443 q 450 524 480 501 q 388 567 421 547 q 332 534 359 554 q 283 486 304 515 q 249 420 262 458 q 237 332 237 382 q 246 255 237 291 q 274 191 256 218 q 322 148 293 164 q 391 133 351 133 m 649 869 q 634 838 645 846 q 600 830 623 830 q 561 836 587 830 q 506 849 536 842 q 442 863 475 856 q 381 869 409 869 q 326 857 342 869 q 309 828 309 845 q 328 792 309 809 q 377 756 347 774 q 446 717 407 738 q 525 671 485 697 q 605 613 566 645 q 674 539 644 581 q 723 444 704 497 q 742 326 742 392 q 718 192 742 253 q 650 86 694 131 q 540 16 605 42 q 391 -9 474 -9 q 243 16 308 -9 q 133 85 178 41 q 63 191 88 130 q 39 326 39 253 q 94 514 39 435 q 264 639 150 593 q 211 674 235 656 q 168 716 187 693 q 140 766 150 738 q 129 828 129 793 q 145 904 129 869 q 195 963 162 938 q 278 1001 228 988 q 394 1015 328 1015 q 456 1013 422 1015 q 527 1006 491 1010 q 599 997 564 1002 q 664 985 635 991 l 649 869 z "},"ε":{"ha":637,"x_min":44,"x_max":618,"o":"m 618 109 q 552 51 588 74 q 480 15 517 28 q 408 -4 444 1 q 343 -9 373 -9 q 231 5 285 -9 q 135 47 176 19 q 69 116 94 75 q 44 210 44 157 q 76 308 44 268 q 158 372 108 349 q 112 403 131 385 q 80 442 92 422 q 63 484 68 462 q 57 527 57 506 q 76 604 57 567 q 132 668 95 640 q 225 711 169 695 q 353 727 281 727 q 498 702 438 727 q 599 637 558 677 l 556 565 q 536 543 545 548 q 513 538 527 538 q 489 545 501 538 q 459 561 476 553 q 417 577 441 569 q 357 584 392 584 q 273 564 301 584 q 244 510 244 544 q 276 453 244 474 q 372 431 309 431 l 488 431 l 488 310 l 372 310 q 270 288 301 310 q 239 226 239 265 q 268 159 239 186 q 353 133 297 133 q 418 142 393 133 q 463 164 444 152 q 496 185 481 176 q 528 195 510 195 q 563 178 551 195 l 618 109 z "},"ζ":{"ha":569,"x_min":40,"x_max":592,"o":"m 582 930 q 582 909 584 920 q 570 883 580 898 q 543 848 561 868 q 497 800 525 828 q 443 747 472 776 q 383 684 413 718 q 324 613 353 651 q 274 533 296 574 q 238 447 251 492 q 224 355 224 402 q 234 290 224 317 q 263 242 243 263 q 314 205 283 221 q 388 175 344 190 q 488 133 449 155 q 551 86 528 111 q 583 32 574 60 q 592 -28 592 3 q 526 -224 592 -122 l 378 -168 q 391 -146 384 -158 q 402 -120 397 -134 q 411 -93 408 -107 q 415 -68 415 -80 q 410 -45 415 -57 q 391 -22 405 -33 q 352 2 377 -10 q 287 27 327 15 q 180 72 226 47 q 102 132 133 97 q 56 211 72 166 q 40 315 40 256 q 65 459 40 390 q 133 597 89 529 q 236 732 176 665 q 369 868 297 799 q 305 859 338 863 q 236 856 272 856 l 154 856 q 117 861 132 856 q 93 876 102 867 q 79 896 83 885 q 75 917 75 907 l 75 1008 l 565 1008 l 582 930 z "},"η":{"ha":829,"x_min":12,"x_max":757,"o":"m 12 660 q 17 684 12 672 q 34 704 22 695 q 63 718 45 713 q 108 724 81 724 q 207 699 163 724 q 274 625 252 675 q 325 666 298 647 q 381 698 351 685 q 444 719 411 712 q 515 727 478 727 q 618 707 573 727 q 694 651 664 687 q 741 565 725 615 q 757 455 757 515 l 757 -231 l 565 -231 l 565 455 q 538 548 565 515 q 456 581 510 581 q 381 563 416 581 q 313 515 345 546 l 313 0 l 122 0 l 122 499 q 102 564 122 543 q 48 585 83 585 l 12 585 l 12 660 z "},"θ":{"ha":840,"x_min":60,"x_max":781,"o":"m 246 451 q 262 307 249 367 q 298 209 275 247 q 351 153 320 171 q 422 135 382 135 q 490 153 460 135 q 543 209 521 171 q 577 307 565 247 q 594 451 590 367 l 246 451 m 592 579 q 575 715 588 658 q 539 807 561 771 q 488 859 517 842 q 422 876 458 876 q 353 859 383 876 q 301 807 323 842 q 265 715 278 771 q 247 579 251 658 l 592 579 m 422 1020 q 568 987 502 1020 q 681 890 634 954 q 755 729 728 825 q 781 506 781 633 q 755 282 781 379 q 681 120 728 185 q 568 23 634 56 q 422 -10 502 -10 q 274 23 340 -10 q 159 120 207 56 q 86 282 112 185 q 60 506 60 379 q 86 729 60 633 q 159 890 112 825 q 274 987 207 954 q 422 1020 340 1020 z "},"ι":{"ha":397,"x_min":74,"x_max":408,"o":"m 74 716 l 266 716 l 266 218 q 283 152 266 174 q 341 130 301 130 l 408 130 l 408 73 q 395 39 408 53 q 362 13 383 24 q 315 -2 341 3 q 264 -8 290 -8 q 182 9 217 -8 q 123 54 147 25 q 86 122 99 83 q 74 207 74 161 l 74 716 z "},"λ":{"ha":769,"x_min":11,"x_max":770,"o":"m 770 129 l 770 55 q 764 23 770 35 q 747 3 758 10 q 720 -6 736 -3 q 686 -8 705 -8 q 623 -2 655 -8 q 563 22 592 5 q 511 67 535 38 q 472 142 488 97 l 394 360 q 376 424 381 395 q 366 393 372 409 q 355 362 361 378 l 230 35 q 211 10 224 21 q 176 0 199 0 l 11 0 l 286 640 l 229 809 q 213 844 222 831 q 193 865 205 858 q 166 876 182 873 q 128 879 151 879 l 74 879 l 74 948 q 79 975 74 963 q 96 997 84 988 q 129 1011 108 1006 q 180 1017 149 1017 q 239 1011 208 1017 q 299 990 270 1005 q 351 948 327 974 q 390 878 375 921 l 636 195 q 667 146 647 163 q 727 129 686 129 l 770 129 z "},"μ":{"ha":844,"x_min":79,"x_max":846,"o":"m 846 131 l 846 56 q 838 33 846 44 q 815 13 830 22 q 777 -2 799 3 q 728 -8 756 -8 q 672 1 699 -8 q 622 26 644 9 q 581 69 599 44 q 554 131 564 95 q 473 43 518 74 q 368 13 427 13 q 300 22 330 13 q 245 50 269 32 q 256 -13 253 19 q 258 -74 258 -45 l 258 -231 l 163 -231 q 101 -211 124 -231 q 79 -153 79 -191 l 79 716 l 271 716 l 271 297 q 298 201 271 237 q 380 165 326 165 q 467 193 432 165 q 524 272 503 222 l 524 716 l 715 716 l 715 217 q 736 152 715 173 q 792 131 756 131 l 846 131 z "},"ν":{"ha":730,"x_min":1,"x_max":725,"o":"m 725 716 q 674 533 706 628 q 598 343 641 438 q 506 161 556 249 q 401 0 456 73 l 283 0 l 1 716 l 160 716 q 195 706 181 716 q 215 681 210 697 l 335 327 q 354 263 346 294 q 369 201 363 232 q 419 310 397 251 q 457 429 441 368 q 486 550 474 490 q 508 663 498 610 q 527 704 512 692 q 561 716 542 716 l 725 716 z "},"ξ":{"ha":568,"x_min":42,"x_max":575,"o":"m 567 930 q 561 900 567 913 q 544 878 555 887 q 520 864 534 869 q 493 859 507 859 l 427 859 q 359 848 390 859 q 306 817 328 837 q 272 769 284 797 q 260 707 260 741 q 303 625 260 651 q 424 599 347 599 l 497 599 l 497 453 l 385 453 q 316 443 344 453 q 268 416 287 433 q 241 374 249 399 q 232 320 232 350 q 242 268 232 290 q 274 228 251 247 q 335 193 297 210 q 428 155 372 176 q 541 82 508 124 q 575 -21 575 39 q 559 -124 575 -74 q 510 -224 542 -174 l 362 -168 q 374 -147 367 -159 q 386 -122 381 -135 q 394 -95 391 -108 q 398 -72 398 -83 q 381 -25 398 -46 q 320 9 365 -4 q 216 47 266 24 q 127 105 165 70 q 65 187 88 139 q 42 301 42 235 q 49 362 42 330 q 72 426 56 394 q 115 486 88 458 q 183 534 142 514 q 109 599 135 559 q 84 693 84 638 q 93 748 84 723 q 118 795 102 774 q 156 835 134 817 q 202 867 177 853 l 133 867 q 72 887 90 867 q 54 940 54 907 l 54 1008 l 567 1008 l 567 930 z "},"π":{"ha":886,"x_min":46,"x_max":850,"o":"m 850 626 q 835 585 850 602 q 791 568 820 568 l 710 568 l 710 560 q 712 392 710 463 q 719 275 715 322 q 731 199 724 227 q 748 155 738 170 q 769 136 757 140 q 795 131 781 131 l 829 131 l 829 56 q 820 30 829 41 q 794 10 810 18 q 758 -2 778 2 q 713 -6 737 -6 q 572 58 617 -6 q 526 237 526 122 q 530 301 526 268 q 538 374 533 335 q 547 461 542 414 q 556 568 552 508 l 353 568 q 342 360 350 449 q 320 207 334 271 q 289 102 307 143 q 247 36 270 60 q 194 3 223 13 q 130 -6 165 -6 q 105 -4 118 -6 q 80 2 91 -2 q 60 13 68 6 q 53 29 53 19 l 53 155 l 67 155 q 110 177 90 155 q 146 248 131 199 q 172 376 161 297 q 186 568 182 455 l 46 568 l 46 647 q 51 670 46 658 q 65 692 56 682 q 87 708 74 701 q 117 714 100 714 l 850 714 l 850 626 z "},"ρ":{"ha":795,"x_min":70,"x_max":753,"o":"m 261 203 q 328 149 290 165 q 401 133 365 133 q 465 146 436 133 q 514 187 493 159 q 545 259 534 215 q 556 363 556 303 q 545 465 556 423 q 515 532 535 506 q 469 569 496 558 q 408 581 442 581 q 351 569 378 581 q 305 535 324 558 q 273 480 285 513 q 261 403 261 447 l 261 203 m 70 403 q 92 537 70 477 q 157 639 114 597 q 263 705 200 681 q 408 728 326 728 q 541 703 478 728 q 651 631 603 678 q 726 516 698 583 q 753 363 753 448 q 732 214 753 283 q 669 96 710 146 q 573 18 629 46 q 447 -10 516 -10 q 345 7 391 -10 q 261 55 299 24 l 261 -231 l 70 -231 l 70 403 z "},"σ":{"ha":865,"x_min":41,"x_max":875,"o":"m 456 572 q 290 517 342 572 q 238 344 238 461 q 401 133 238 133 q 523 188 483 133 q 563 354 563 242 q 559 422 563 388 q 546 485 555 456 q 524 538 538 515 q 490 572 510 560 l 456 572 m 875 715 l 875 625 q 871 607 875 617 q 859 590 867 598 q 840 577 851 583 q 816 572 829 572 l 672 572 q 736 478 713 534 q 759 346 759 422 q 733 203 759 269 q 661 90 708 138 q 548 16 614 43 q 401 -10 482 -10 q 255 14 321 -10 q 141 85 188 39 q 67 198 93 132 q 41 348 41 265 q 70 503 41 435 q 153 619 99 572 q 285 691 208 666 q 458 715 362 715 l 875 715 z "},"ς":{"ha":660,"x_min":40,"x_max":648,"o":"m 597 556 q 581 539 589 545 q 558 533 573 533 q 530 541 543 533 q 501 559 517 549 q 462 576 485 568 q 405 584 439 584 q 330 569 362 584 q 278 528 299 554 q 247 469 257 503 q 237 397 237 435 q 250 300 237 337 q 291 238 263 263 q 364 194 319 213 q 472 155 408 176 q 586 82 552 125 q 620 -21 620 40 q 604 -124 620 -74 q 555 -224 588 -174 l 406 -168 q 418 -146 412 -158 q 430 -121 425 -134 q 439 -95 435 -108 q 442 -72 442 -82 q 426 -25 442 -45 q 365 10 409 -4 q 281 38 322 22 q 203 73 240 53 q 138 120 167 93 q 86 185 108 147 q 52 271 65 222 q 40 385 40 320 q 63 516 40 453 q 131 625 86 578 q 241 699 176 672 q 393 727 307 727 q 537 701 475 727 q 648 624 599 674 l 597 556 z "},"τ":{"ha":669,"x_min":9,"x_max":657,"o":"m 657 640 q 640 591 657 608 q 592 574 623 574 l 405 574 l 405 219 q 422 153 405 175 q 480 131 440 131 l 547 131 l 547 74 q 534 39 547 54 q 501 14 522 24 q 454 -2 480 3 q 403 -7 428 -7 q 321 9 356 -7 q 261 55 285 26 q 225 123 238 84 q 213 208 213 163 l 213 574 l 9 574 l 9 654 q 25 696 9 678 q 73 714 40 714 l 657 714 l 657 640 z "},"υ":{"ha":781,"x_min":72,"x_max":721,"o":"m 685 716 q 699 630 692 672 q 710 548 705 589 q 718 465 715 507 q 721 380 721 424 q 691 203 721 277 q 613 82 662 129 q 502 11 565 34 q 372 -11 439 -11 q 244 8 300 -11 q 149 63 188 27 q 91 148 111 98 q 72 261 72 199 l 72 716 l 263 716 l 263 261 q 272 208 263 231 q 297 168 281 185 q 335 144 313 152 q 385 135 358 135 q 439 147 412 135 q 487 185 466 158 q 522 260 508 213 q 535 380 535 308 q 532 449 535 415 q 522 517 528 483 q 511 586 517 551 q 501 656 505 620 q 504 684 499 672 q 516 702 508 695 q 534 713 524 710 q 553 716 544 716 l 685 716 z "},"φ":{"ha":1094,"x_min":40,"x_max":1054,"o":"m 633 128 q 803 193 742 130 q 863 376 863 256 q 849 466 863 426 q 813 533 835 506 q 764 575 791 560 q 712 589 738 589 q 680 584 694 589 q 656 566 666 578 q 639 533 645 553 q 633 483 633 513 l 633 128 m 454 483 q 472 594 454 548 q 524 670 490 641 q 605 714 558 700 q 712 727 653 727 q 852 700 789 727 q 960 626 915 674 q 1030 515 1005 579 q 1054 376 1054 451 q 1023 216 1054 287 q 935 94 991 144 q 802 17 879 44 q 633 -10 725 -10 l 633 -231 l 454 -231 l 454 -10 q 287 18 363 -9 q 156 93 211 45 q 70 209 101 141 q 40 359 40 276 q 59 478 40 422 q 114 581 78 535 q 198 664 149 628 q 306 723 247 699 l 356 647 q 364 625 363 637 q 362 602 365 613 q 352 583 358 592 q 338 572 345 575 q 260 487 289 540 q 231 358 231 433 q 247 264 231 306 q 291 192 263 222 q 361 146 320 163 q 454 128 403 129 l 454 483 z "},"χ":{"ha":693,"x_min":-1,"x_max":703,"o":"m 703 -107 l 703 -181 q 700 -214 703 -201 q 688 -233 697 -226 q 666 -242 680 -240 q 632 -244 653 -244 q 565 -239 597 -244 q 507 -216 534 -233 q 456 -171 479 -200 q 413 -94 433 -142 l 322 117 q 315 75 319 95 q 305 38 310 54 l 199 -195 q 181 -219 193 -209 q 146 -230 168 -230 l 8 -230 l 238 269 l 131 518 q 112 552 122 539 q 91 574 103 566 q 64 585 79 582 q 26 588 48 588 l -1 588 l -1 657 q -1 684 -1 672 q 6 706 0 697 q 27 721 13 715 q 72 726 42 726 q 145 719 112 726 q 205 696 178 712 q 254 653 233 680 q 292 588 276 626 l 385 372 q 392 415 388 394 q 402 451 397 435 l 505 682 q 523 706 510 696 q 558 717 535 717 l 695 717 l 467 224 l 582 -41 q 597 -69 589 -57 q 615 -90 604 -82 q 640 -103 626 -99 q 675 -107 655 -107 l 703 -107 z "},"ψ":{"ha":1113,"x_min":69,"x_max":1052,"o":"m 1016 716 q 1031 630 1024 672 q 1042 548 1038 589 q 1050 465 1047 507 q 1052 380 1052 424 q 1021 207 1052 277 q 936 91 990 136 q 810 24 883 47 q 653 -7 737 1 l 653 -231 l 462 -231 l 462 -8 q 283 29 357 1 q 161 103 208 57 q 91 213 113 150 q 69 352 69 275 l 69 716 l 201 716 q 224 709 213 716 q 242 692 234 702 q 255 669 250 681 q 260 645 260 656 l 260 352 q 312 209 260 260 q 462 142 365 158 l 462 1008 l 653 1008 l 653 140 q 742 161 703 147 q 807 205 781 176 q 847 275 833 233 q 860 380 860 318 q 855 475 860 436 q 844 544 850 514 q 832 600 838 574 q 825 656 826 625 q 830 684 825 672 q 842 702 834 695 q 859 713 849 710 q 878 716 868 716 l 1016 716 z "},"ω":{"ha":1118,"x_min":45,"x_max":1074,"o":"m 987 716 q 1022 633 1006 676 q 1050 546 1038 590 q 1067 458 1061 502 q 1074 371 1074 413 q 1053 219 1074 290 q 996 98 1033 149 q 904 18 958 47 q 781 -11 849 -11 q 705 -2 739 -11 q 644 22 672 6 q 595 58 617 38 q 558 104 574 79 q 521 58 542 79 q 472 22 499 38 q 412 -2 445 6 q 338 -11 378 -11 q 215 18 269 -11 q 123 98 161 47 q 65 219 85 149 q 45 371 45 290 q 51 458 45 413 q 69 546 58 502 q 97 633 81 590 q 133 716 113 676 l 270 716 q 291 712 280 716 q 311 698 303 708 q 322 673 319 688 q 315 635 324 657 q 298 600 311 627 q 272 535 285 573 q 248 454 258 497 q 237 371 237 410 q 248 253 237 299 q 278 181 260 208 q 318 145 296 155 q 363 135 340 135 q 409 149 390 135 q 441 188 428 163 q 458 247 453 213 q 463 322 463 281 l 463 483 l 655 483 l 655 322 l 656 322 q 661 247 656 281 q 678 188 666 213 q 709 149 690 163 q 756 135 728 135 q 800 145 778 135 q 841 181 823 155 q 870 253 859 208 q 882 371 882 299 q 871 454 882 410 q 847 535 860 497 q 821 600 833 573 q 805 635 808 627 q 797 673 795 657 q 808 698 799 688 q 827 712 816 708 q 849 716 839 716 l 987 716 z "},"΄":{"ha":556,"x_min":221,"x_max":420,"o":"m 221 793 l 258 1054 l 375 1054 q 411 1038 401 1054 q 410 995 420 1022 l 331 793 l 221 793 z "},"΅":{"ha":556,"x_min":28,"x_max":585,"o":"m 218 799 l 255 1060 l 373 1060 q 408 1044 399 1060 q 408 1001 417 1028 l 328 799 l 218 799 m 585 903 q 578 872 585 886 q 560 847 572 858 q 534 829 549 835 q 501 823 519 823 q 469 829 484 823 q 443 847 454 835 q 425 872 431 858 q 418 903 418 886 q 425 935 418 920 q 443 961 431 950 q 469 980 454 973 q 501 986 484 986 q 534 980 519 986 q 560 961 549 973 q 578 935 572 950 q 585 903 585 920 m 194 903 q 188 872 194 886 q 170 847 181 858 q 143 829 158 835 q 110 823 127 823 q 78 829 93 823 q 52 847 64 835 q 34 872 41 858 q 28 903 28 886 q 34 935 28 920 q 52 961 41 950 q 78 980 64 973 q 110 986 93 986 q 143 980 127 986 q 170 961 158 973 q 188 935 181 950 q 194 903 194 920 z "},"ʹ":{"ha":319,"x_min":40,"x_max":280,"o":"m 251 1057 q 247 824 280 936 q 121 617 214 713 l 60 653 q 42 679 43 664 q 49 704 40 694 q 85 758 69 732 q 108 809 101 783 q 109 862 115 835 q 81 922 103 890 l 81 1009 q 93 1043 81 1030 q 131 1057 105 1057 l 251 1057 z "},"͵":{"ha":319,"x_min":40,"x_max":280,"o":"m 251 270 q 247 38 280 149 q 121 -170 214 -74 l 60 -134 q 42 -108 43 -123 q 49 -83 40 -93 q 85 -29 69 -55 q 108 22 101 -3 q 109 75 115 48 q 81 135 103 103 l 81 222 q 93 257 81 243 q 131 270 105 270 l 251 270 z "},"Б":{"ha":880,"x_min":106,"x_max":840,"o":"m 465 160 q 547 171 515 160 q 599 201 580 182 q 627 245 619 220 q 635 298 635 270 q 627 355 635 329 q 600 399 619 381 q 548 427 581 417 q 465 437 515 437 l 314 437 l 314 160 l 465 160 m 465 597 q 638 575 566 597 q 754 515 709 553 q 819 426 799 476 q 840 319 840 376 q 815 188 840 247 q 742 88 790 129 q 624 23 694 46 q 465 0 554 0 l 106 0 l 106 1008 l 803 1008 l 803 849 l 314 849 l 314 597 l 465 597 z "},"Г":{"ha":754,"x_min":106,"x_max":733,"o":"m 733 850 l 315 850 l 315 0 l 106 0 l 106 1008 l 733 1008 l 733 850 z "},"Ґ":{"ha":754,"x_min":106,"x_max":733,"o":"m 733 850 l 315 850 l 315 0 l 106 0 l 106 1008 l 572 1008 l 572 1230 l 733 1230 l 733 850 z "},"Д":{"ha":1135,"x_min":10,"x_max":1103,"o":"m 740 158 l 740 850 l 490 850 q 467 600 481 710 q 435 406 453 490 q 395 261 417 322 q 347 158 373 200 l 740 158 m 1103 158 l 1103 -179 q 1085 -222 1103 -206 q 1038 -237 1067 -237 l 913 -237 l 913 0 l 201 0 l 201 -179 q 183 -222 201 -206 q 135 -237 165 -237 l 10 -237 l 10 158 l 122 158 q 158 191 140 168 q 195 255 177 213 q 228 359 213 296 q 257 512 244 422 q 279 725 269 603 q 292 1008 288 847 l 950 1008 l 950 158 l 1103 158 z "},"Ж":{"ha":1500,"x_min":-3,"x_max":1503,"o":"m 1503 0 l 1363 0 q 1286 19 1318 0 q 1235 71 1253 38 l 1049 381 q 1007 424 1031 412 q 951 437 984 437 l 848 437 l 848 0 l 651 0 l 651 437 l 549 437 q 492 424 515 437 q 451 381 469 412 l 265 71 q 214 19 246 38 q 136 0 182 0 l -3 0 l 245 424 q 302 494 272 468 q 370 535 332 521 q 316 569 339 547 q 273 624 294 591 l 27 1008 l 192 1008 q 250 992 224 1008 q 293 950 277 977 l 480 642 q 519 601 497 611 q 567 592 540 592 l 651 592 l 651 1008 l 848 1008 l 848 592 l 932 592 q 981 601 960 592 q 1020 642 1002 611 l 1207 950 q 1250 992 1223 977 q 1308 1008 1276 1008 l 1473 1008 l 1227 624 q 1184 569 1206 591 q 1130 535 1161 547 q 1198 494 1168 521 q 1254 424 1228 468 l 1503 0 z "},"З":{"ha":811,"x_min":10,"x_max":759,"o":"m 48 912 q 190 990 107 962 q 372 1019 272 1019 q 522 999 455 1019 q 636 945 589 980 q 709 861 683 910 q 734 753 734 812 q 703 626 734 683 q 608 531 672 568 q 669 492 641 515 q 717 443 697 470 q 748 385 737 416 q 759 319 759 353 q 733 190 759 250 q 659 86 708 130 q 538 16 610 42 q 375 -10 467 -10 q 271 0 323 -10 q 172 27 219 10 q 84 69 125 44 q 10 123 42 93 l 72 222 q 92 240 80 233 q 119 247 104 247 q 160 233 138 247 q 213 203 183 219 q 283 172 242 186 q 381 158 324 158 q 515 194 467 158 q 563 310 563 231 q 550 368 563 342 q 512 410 536 393 q 453 437 488 428 q 376 445 418 446 l 232 445 l 231 610 l 360 610 q 493 642 447 610 q 539 735 539 674 q 496 820 539 789 q 370 851 453 851 q 287 841 322 851 q 225 818 251 831 q 180 794 199 805 q 146 784 161 784 q 119 791 130 784 q 99 814 109 799 l 48 912 z "},"И":{"ha":1074,"x_min":106,"x_max":969,"o":"m 969 1008 l 969 0 l 759 0 l 759 601 q 761 680 759 638 q 769 767 763 721 q 737 690 754 726 q 703 628 719 655 l 354 64 q 338 41 347 52 q 316 20 328 30 q 291 6 305 11 q 263 0 278 0 l 106 0 l 106 1008 l 315 1008 l 315 407 q 313 328 315 369 q 305 241 311 287 q 338 317 320 282 q 371 379 355 353 l 720 944 q 737 967 727 956 q 758 988 747 978 q 783 1002 769 997 q 812 1008 797 1008 l 969 1008 z "},"К":{"ha":981,"x_min":106,"x_max":982,"o":"m 982 0 l 792 0 q 744 15 763 0 q 708 59 724 30 l 515 387 q 498 411 507 401 q 477 427 488 421 q 453 435 467 433 q 423 437 440 437 l 314 437 l 314 0 l 106 0 l 106 1008 l 314 1008 l 314 592 l 405 592 q 452 601 432 592 q 490 638 472 611 l 693 953 q 728 992 708 977 q 778 1008 749 1008 l 957 1008 l 696 607 q 655 562 678 580 q 603 534 631 544 q 678 495 647 522 q 735 421 708 469 l 982 0 z "},"Л":{"ha":1044,"x_min":-2,"x_max":938,"o":"m 938 0 l 728 0 l 728 850 l 477 850 q 449 526 467 663 q 405 293 431 389 q 348 139 380 198 q 277 46 315 79 q 194 1 238 13 q 101 -10 150 -10 q 22 -1 47 -10 q -2 28 -2 9 l -2 156 l 53 156 q 100 164 76 156 q 147 198 124 171 q 192 280 170 226 q 232 429 214 334 q 262 665 249 524 q 281 1008 275 806 l 938 1008 l 938 0 z "},"Љ":{"ha":1488,"x_min":-2,"x_max":1465,"o":"m 1089 160 q 1172 171 1139 160 q 1223 201 1204 182 q 1250 245 1242 220 q 1258 298 1258 270 q 1250 355 1258 329 q 1223 399 1242 381 q 1172 427 1204 417 q 1089 437 1139 437 l 938 437 l 938 160 l 1089 160 m 1089 597 q 1261 575 1190 597 q 1378 515 1333 553 q 1444 426 1423 476 q 1465 319 1465 376 q 1439 188 1465 247 q 1366 88 1414 129 q 1248 23 1318 46 q 1089 0 1178 0 l 728 0 l 728 850 l 477 850 q 449 526 467 663 q 405 293 431 389 q 348 139 380 198 q 277 46 315 79 q 194 1 238 13 q 101 -10 150 -10 q 22 -1 47 -10 q -2 28 -2 9 l -2 156 l 53 156 q 100 164 76 156 q 147 198 124 171 q 192 280 170 226 q 232 429 214 334 q 262 665 249 524 q 281 1008 275 806 l 938 1008 l 938 597 l 1089 597 z "},"Њ":{"ha":1519,"x_min":106,"x_max":1495,"o":"m 1119 160 q 1202 171 1169 160 q 1254 201 1235 182 q 1281 245 1273 220 q 1289 298 1289 270 q 1281 355 1289 329 q 1254 399 1274 381 q 1202 427 1235 417 q 1120 437 1170 437 l 969 437 l 969 160 l 1119 160 m 1120 597 q 1292 575 1221 597 q 1409 515 1364 553 q 1474 426 1453 476 q 1495 319 1495 376 q 1470 188 1495 247 q 1397 88 1444 129 q 1279 23 1349 46 q 1119 0 1209 0 l 759 0 l 759 434 l 315 434 l 315 0 l 106 0 l 106 1008 l 315 1008 l 315 580 l 759 580 l 759 1008 l 969 1008 l 969 597 l 1120 597 z "},"Ѳ":{"ha":1126,"x_min":47,"x_max":1079,"o":"m 264 435 q 297 321 272 371 q 359 236 321 271 q 449 183 398 201 q 563 165 501 165 q 677 183 626 165 q 767 236 728 201 q 829 321 805 271 q 862 435 853 371 l 264 435 m 860 587 q 825 695 849 647 q 762 776 800 743 q 674 826 724 809 q 563 844 624 844 q 452 826 502 844 q 364 776 402 809 q 301 695 326 743 q 266 587 276 647 l 860 587 m 563 1019 q 774 980 679 1019 q 937 871 869 940 q 1042 708 1005 802 q 1079 504 1079 614 q 1042 299 1079 394 q 937 136 1005 205 q 774 28 869 67 q 563 -11 679 -11 q 352 28 447 -11 q 189 136 257 67 q 84 299 121 205 q 47 504 47 394 q 84 709 47 615 q 189 872 121 803 q 352 980 257 940 q 563 1019 447 1019 z "},"П":{"ha":1041,"x_min":106,"x_max":935,"o":"m 935 0 l 726 0 l 726 850 l 315 850 l 315 0 l 106 0 l 106 1008 l 935 1008 l 935 0 z "},"У":{"ha":906,"x_min":-16,"x_max":925,"o":"m 925 1008 l 519 143 q 471 67 497 97 q 416 20 445 37 q 353 -4 386 3 q 281 -10 319 -10 q 202 -1 226 -10 q 178 28 178 9 l 178 156 l 234 156 q 264 159 248 156 q 295 169 279 161 q 325 192 310 177 q 352 231 340 206 l 388 303 l -16 1008 l 180 1008 q 223 995 207 1008 q 249 962 239 982 l 424 624 q 455 560 442 592 q 479 496 469 528 q 529 624 498 561 l 683 962 q 709 993 692 978 q 752 1008 726 1008 l 925 1008 z "},"Ѵ":{"ha":999,"x_min":-15,"x_max":989,"o":"m 681 855 q 760 975 706 936 q 904 1015 813 1015 q 948 1013 931 1015 q 974 1006 965 1010 q 986 994 983 1001 q 989 976 989 987 l 989 849 l 951 849 q 898 832 919 849 q 863 778 876 815 l 579 0 l 390 0 l -15 1008 l 152 1008 q 196 995 179 1008 q 222 962 213 982 l 440 381 q 465 310 452 349 q 487 230 477 272 q 507 310 496 272 q 531 381 518 349 l 681 855 z "},"Ф":{"ha":1130,"x_min":38,"x_max":1092,"o":"m 664 278 q 753 299 713 279 q 823 351 794 318 q 868 430 852 385 q 884 526 884 474 q 868 621 884 576 q 823 699 852 665 q 753 752 794 732 q 664 773 713 772 l 664 278 m 467 773 q 377 752 417 772 q 307 699 336 732 q 262 621 278 665 q 246 526 246 576 q 262 430 246 474 q 307 351 278 385 q 377 299 336 318 q 467 278 417 279 l 467 773 m 664 931 q 835 894 756 927 q 970 807 913 862 q 1060 680 1028 753 q 1092 526 1092 608 q 1060 370 1092 443 q 970 243 1028 298 q 835 156 913 189 q 664 119 756 123 l 664 0 l 467 0 l 467 119 q 295 156 374 123 q 159 243 217 189 q 70 370 102 298 q 38 526 38 443 q 70 680 38 608 q 159 807 102 753 q 295 894 217 862 q 467 931 374 927 l 467 1049 l 664 1049 l 664 931 z "},"Ц":{"ha":1112,"x_min":106,"x_max":1076,"o":"m 1076 158 l 1076 -179 q 1058 -222 1076 -206 q 1010 -237 1040 -237 l 885 -237 l 885 0 l 106 0 l 106 1008 l 315 1008 l 315 158 l 726 158 l 726 1008 l 935 1008 l 935 158 l 1076 158 z "},"Џ":{"ha":1041,"x_min":106,"x_max":935,"o":"m 935 1008 l 935 0 l 616 0 l 616 -179 q 598 -222 616 -206 q 550 -237 579 -237 l 424 -237 l 424 0 l 106 0 l 106 1008 l 315 1008 l 315 158 l 726 158 l 726 1008 l 935 1008 z "},"Ч":{"ha":947,"x_min":51,"x_max":842,"o":"m 842 1008 l 842 0 l 632 0 l 632 392 q 475 364 550 373 q 336 359 401 355 q 219 383 272 363 q 129 440 166 402 q 71 535 92 478 q 51 674 51 593 l 51 1008 l 260 1008 l 260 674 q 277 582 260 619 q 336 526 294 544 q 450 510 378 508 q 632 538 522 513 l 632 1008 l 842 1008 z "},"Ш":{"ha":1512,"x_min":106,"x_max":1406,"o":"m 1406 1008 l 1406 0 l 106 0 l 106 1008 l 315 1008 l 315 158 l 651 158 l 651 1008 l 860 1008 l 860 158 l 1197 158 l 1197 1008 l 1406 1008 z "},"Щ":{"ha":1583,"x_min":106,"x_max":1547,"o":"m 1547 158 l 1547 -179 q 1528 -222 1547 -206 q 1481 -237 1510 -237 l 1356 -237 l 1356 0 l 106 0 l 106 1008 l 315 1008 l 315 158 l 651 158 l 651 1008 l 860 1008 l 860 158 l 1197 158 l 1197 1008 l 1406 1008 l 1406 158 l 1547 158 z "},"Ъ":{"ha":1062,"x_min":20,"x_max":1038,"o":"m 663 160 q 744 171 712 160 q 797 201 777 182 q 824 245 816 220 q 832 298 832 270 q 824 355 832 329 q 797 399 816 381 q 745 427 778 417 q 663 437 713 437 l 511 437 l 511 160 l 663 160 m 663 597 q 835 575 763 597 q 951 515 906 553 q 1017 426 996 476 q 1038 319 1038 376 q 1012 188 1038 247 q 939 88 987 129 q 821 23 891 46 q 663 0 751 0 l 303 0 l 303 844 l 20 844 l 20 1008 l 511 1008 l 511 597 l 663 597 z "},"Ы":{"ha":1288,"x_min":106,"x_max":1182,"o":"m 465 160 q 547 171 515 160 q 599 201 580 182 q 627 245 619 220 q 635 298 635 270 q 627 355 635 329 q 600 399 619 381 q 548 427 581 417 q 465 437 515 437 l 314 437 l 314 160 l 465 160 m 465 597 q 638 575 566 597 q 754 515 709 553 q 819 426 799 476 q 840 319 840 376 q 815 188 840 247 q 742 88 790 129 q 624 23 694 46 q 465 0 554 0 l 106 0 l 106 1008 l 314 1008 l 314 597 l 465 597 m 1182 0 l 972 0 l 972 1008 l 1182 1008 l 1182 0 z "},"Ь":{"ha":865,"x_min":106,"x_max":840,"o":"m 465 160 q 547 171 515 160 q 599 201 580 182 q 627 245 619 220 q 635 298 635 270 q 627 355 635 329 q 600 399 619 381 q 548 427 581 417 q 465 437 515 437 l 314 437 l 314 160 l 465 160 m 465 597 q 638 575 566 597 q 754 515 709 553 q 819 426 799 476 q 840 319 840 376 q 815 188 840 247 q 742 88 790 129 q 624 23 694 46 q 465 0 554 0 l 106 0 l 106 1008 l 314 1008 l 314 597 l 465 597 z "},"Э":{"ha":923,"x_min":20,"x_max":876,"o":"m 33 886 q 177 982 91 945 q 376 1019 264 1019 q 515 1002 449 1019 q 637 952 581 985 q 736 874 692 920 q 812 772 781 828 q 859 647 843 715 q 876 504 876 579 q 842 298 876 392 q 744 135 808 203 q 591 27 681 66 q 388 -11 501 -11 q 172 29 263 -11 q 20 147 81 69 l 103 235 q 117 245 110 242 q 132 248 124 248 q 150 244 142 248 q 167 233 159 240 q 210 200 188 213 q 257 178 233 187 q 310 167 281 170 q 374 163 339 163 q 475 181 427 163 q 560 234 522 199 q 623 319 597 268 q 658 435 649 369 l 208 435 l 208 587 l 656 587 q 622 696 647 648 q 561 777 597 744 q 478 827 525 810 q 377 844 431 844 q 283 832 319 844 q 221 806 246 820 q 179 779 196 791 q 145 767 163 767 q 119 774 128 767 q 103 790 110 781 l 33 886 z "},"Є":{"ha":924,"x_min":48,"x_max":903,"o":"m 792 248 q 821 235 809 248 l 903 147 q 752 29 842 69 q 536 -11 661 -11 q 333 27 423 -11 q 179 135 242 66 q 82 298 116 203 q 48 504 48 392 q 64 647 48 579 q 112 772 81 715 q 187 874 143 828 q 287 952 231 920 q 408 1002 342 985 q 548 1019 474 1019 q 653 1009 603 1019 q 746 982 703 999 q 825 940 789 965 q 891 886 862 915 l 821 790 q 805 774 815 781 q 778 767 795 767 q 745 779 762 767 q 703 806 728 791 q 641 832 678 820 q 547 844 604 844 q 445 827 492 844 q 363 777 399 810 q 302 696 326 744 q 267 587 277 648 l 715 587 l 715 435 l 266 435 q 301 319 275 369 q 364 234 326 268 q 449 181 401 199 q 549 163 496 163 q 614 167 585 163 q 667 178 642 170 q 714 200 692 187 q 758 233 735 213 q 774 244 765 240 q 792 248 782 248 z "},"Ю":{"ha":1494,"x_min":106,"x_max":1446,"o":"m 962 158 q 1077 183 1026 158 q 1162 252 1127 207 q 1215 360 1197 297 q 1233 504 1233 424 q 1215 647 1233 583 q 1162 756 1197 711 q 1077 825 1127 801 q 962 849 1026 849 q 847 825 897 849 q 763 756 797 801 q 710 647 728 711 q 692 504 692 583 q 710 360 692 424 q 763 252 728 297 q 847 183 797 207 q 962 158 897 158 m 482 581 q 531 757 493 676 q 631 895 569 837 q 777 986 693 953 q 962 1019 860 1019 q 1163 980 1073 1019 q 1315 872 1252 940 q 1412 709 1378 803 q 1446 504 1446 615 q 1412 300 1446 394 q 1315 136 1378 206 q 1163 28 1252 67 q 962 -10 1073 -10 q 777 22 860 -10 q 633 111 694 54 q 533 248 572 169 q 483 423 494 328 l 315 423 l 315 0 l 106 0 l 106 1008 l 315 1008 l 315 581 l 482 581 z "},"Я":{"ha":951,"x_min":-13,"x_max":846,"o":"m 638 571 l 638 848 l 481 848 q 398 837 431 848 q 346 807 365 826 q 319 763 327 788 q 311 710 311 738 q 319 653 311 679 q 346 609 326 628 q 398 581 365 591 q 480 571 431 571 l 638 571 m 846 0 l 638 0 l 638 411 l 548 411 q 488 397 515 411 q 435 341 460 383 l 274 71 q 222 19 254 38 q 144 0 190 0 l -13 0 l 207 349 q 256 409 229 385 q 317 448 282 433 q 223 489 263 463 q 157 548 183 515 q 118 623 131 582 q 105 709 105 663 q 130 828 105 774 q 203 923 156 883 q 321 985 251 963 q 481 1008 391 1008 l 846 1008 l 846 0 z "},"Ђ":{"ha":1051,"x_min":19,"x_max":1040,"o":"m 665 597 q 837 575 765 597 q 953 515 908 553 q 1019 426 998 476 q 1040 319 1040 376 q 1014 188 1040 247 q 941 88 989 129 q 823 23 893 46 q 664 0 753 0 l 607 0 l 607 160 l 664 160 q 747 171 714 160 q 798 201 779 182 q 825 245 817 220 q 833 298 833 270 q 825 355 833 329 q 798 399 817 381 q 747 427 779 417 q 665 437 714 437 l 487 437 l 487 0 l 278 0 l 278 845 l 19 845 l 19 1008 l 767 1008 l 767 845 l 487 845 l 487 597 l 665 597 z "},"Ћ":{"ha":1058,"x_min":19,"x_max":1016,"o":"m 487 592 q 704 625 606 620 q 871 600 802 630 q 978 499 940 569 q 1016 308 1016 429 l 1016 -1 l 806 -1 l 806 309 q 795 400 806 363 q 751 456 785 438 q 655 473 718 474 q 487 446 592 471 l 487 0 l 278 0 l 278 845 l 19 845 l 19 1008 l 767 1008 l 767 845 l 487 845 l 487 592 z "},"Ѣ":{"ha":1026,"x_min":29,"x_max":1002,"o":"m 627 160 q 709 171 676 160 q 761 201 742 182 q 789 245 781 220 q 797 298 797 270 q 789 355 797 329 q 761 399 781 381 q 710 427 742 417 q 627 437 677 437 l 476 437 l 476 160 l 627 160 m 627 597 q 799 575 728 597 q 916 515 871 553 q 981 426 960 476 q 1002 319 1002 376 q 977 188 1002 247 q 903 88 951 129 q 786 23 856 46 q 627 0 716 0 l 267 0 l 267 723 l 29 723 l 29 874 l 267 874 l 267 1008 l 476 1008 l 476 874 l 765 874 l 765 723 l 476 723 l 476 597 l 627 597 z "},"б":{"ha":824,"x_min":60,"x_max":781,"o":"m 422 126 q 543 180 503 126 q 583 340 583 234 q 544 499 583 445 q 423 553 505 553 q 258 345 258 553 q 298 182 258 237 q 422 126 338 126 m 472 832 q 364 809 409 828 q 290 755 319 789 q 247 675 261 722 q 229 573 232 629 q 271 620 247 599 q 326 657 295 641 q 393 681 357 672 q 472 690 430 690 q 600 665 542 690 q 697 594 657 640 q 759 483 738 548 q 781 340 781 419 q 755 194 781 259 q 681 84 728 129 q 568 14 634 38 q 422 -10 502 -10 q 275 15 342 -10 q 161 98 209 41 q 86 245 113 154 q 60 465 60 335 q 80 667 60 573 q 146 832 99 760 q 268 947 192 903 q 456 999 344 990 l 710 1017 l 720 919 q 711 867 724 888 q 667 844 699 845 l 472 832 z "},"в":{"ha":701,"x_min":79,"x_max":659,"o":"m 378 128 q 455 153 426 128 q 483 219 483 177 q 478 252 483 236 q 463 279 474 267 q 431 297 451 290 q 379 303 411 303 l 261 303 l 261 128 l 378 128 m 261 594 l 261 419 l 364 419 q 438 445 410 419 q 467 513 467 472 q 462 543 467 528 q 445 568 457 557 q 413 587 433 580 q 364 594 393 594 l 261 594 m 369 716 q 488 703 438 716 q 571 666 538 690 q 619 611 603 643 q 635 542 635 579 q 629 494 635 519 q 608 447 623 469 q 567 406 593 424 q 502 376 542 387 q 565 355 536 369 q 615 321 594 341 q 647 273 635 301 q 659 212 659 246 q 636 116 659 156 q 574 50 613 76 q 484 12 535 24 q 380 0 434 0 l 79 0 l 79 716 l 369 716 z "},"г":{"ha":588,"x_min":79,"x_max":573,"o":"m 573 576 l 271 576 l 271 0 l 79 0 l 79 716 l 573 716 l 573 576 z "},"ґ":{"ha":588,"x_min":79,"x_max":573,"o":"m 573 886 l 573 576 l 271 576 l 271 0 l 79 0 l 79 716 l 399 716 l 399 886 l 573 886 z "},"д":{"ha":889,"x_min":11,"x_max":868,"o":"m 551 134 l 551 572 l 394 572 q 378 421 388 489 q 356 299 369 353 q 327 205 342 245 q 294 134 311 164 l 551 134 m 868 140 l 868 -182 q 853 -223 868 -208 q 814 -237 838 -237 l 694 -237 l 694 0 l 185 0 l 185 -185 q 172 -221 185 -205 q 132 -237 160 -237 l 11 -237 l 11 134 l 30 134 q 76 140 53 134 q 120 166 99 146 q 159 224 141 185 q 193 327 178 263 q 220 487 208 392 q 238 716 231 582 l 736 716 l 736 140 l 868 140 z "},"ж":{"ha":1152,"x_min":8,"x_max":1144,"o":"m 1144 0 l 1012 0 q 935 15 961 0 q 893 65 908 31 l 801 254 q 768 291 789 279 q 719 303 747 303 l 669 303 l 669 0 l 483 0 l 483 303 l 433 303 q 384 291 406 303 q 351 254 363 279 l 259 65 q 217 15 244 31 q 140 0 191 0 l 8 0 l 167 295 q 207 348 185 327 q 265 380 229 369 q 221 407 239 390 q 185 453 203 424 l 26 716 l 177 716 q 225 702 203 716 q 260 667 247 689 l 369 469 q 397 436 381 447 q 442 426 413 426 l 483 426 l 483 716 l 669 716 l 669 426 l 706 426 q 753 436 735 426 q 783 469 772 447 l 892 667 q 926 702 904 689 q 975 716 949 716 l 1126 716 l 966 453 q 931 407 949 424 q 888 380 913 390 q 945 348 923 369 q 984 295 967 327 l 1144 0 z "},"з":{"ha":626,"x_min":19,"x_max":581,"o":"m 39 637 q 141 702 81 677 q 287 727 201 727 q 406 711 353 727 q 494 668 458 695 q 549 607 531 642 q 568 533 568 572 q 562 492 568 513 q 543 450 556 470 q 508 411 530 429 q 455 381 487 393 q 546 316 511 358 q 581 210 581 274 q 557 116 581 157 q 492 47 532 75 q 400 4 451 19 q 294 -10 348 -10 q 229 -5 264 -10 q 158 14 194 0 q 86 50 122 27 q 19 109 50 74 l 75 178 q 110 195 88 195 q 142 185 127 195 q 175 164 156 176 q 218 142 193 152 q 281 133 243 133 q 370 159 340 133 q 399 226 399 185 q 368 288 399 265 q 265 310 337 310 l 185 310 l 185 431 l 265 431 q 361 453 328 431 q 394 510 394 474 q 365 564 394 544 q 281 584 336 584 q 222 577 246 584 q 180 561 197 569 q 149 545 162 553 q 124 538 136 538 q 102 543 111 538 q 82 565 92 548 l 39 637 z "},"и":{"ha":815,"x_min":79,"x_max":735,"o":"m 735 716 l 735 0 l 543 0 l 543 394 q 545 430 543 410 q 550 471 547 451 q 517 412 534 436 q 505 394 516 410 q 476 351 494 377 q 435 292 458 325 q 389 226 413 260 q 265 46 334 147 q 252 30 259 38 q 236 15 244 22 q 217 3 227 8 q 197 -1 208 -1 l 79 -1 l 79 715 l 271 715 l 271 322 q 269 284 271 305 q 263 243 267 263 q 280 276 272 261 q 297 303 288 292 q 309 322 297 305 q 338 364 320 338 q 379 423 356 390 q 425 490 401 456 q 550 669 480 569 q 578 701 560 686 q 618 716 596 716 l 735 716 z "},"к":{"ha":769,"x_min":79,"x_max":761,"o":"m 504 667 q 542 702 518 688 q 592 716 566 716 l 744 716 l 584 453 q 549 407 567 424 q 505 380 531 390 q 563 348 540 369 q 602 295 585 327 l 761 0 l 629 0 q 585 4 604 0 q 551 17 566 8 q 525 37 536 25 q 504 65 514 49 l 413 254 q 379 291 401 279 q 331 303 358 303 l 271 303 l 271 0 l 79 0 l 79 716 l 271 716 l 271 426 l 321 426 q 366 436 350 426 q 394 469 383 447 l 504 667 z "},"л":{"ha":838,"x_min":3,"x_max":759,"o":"m 759 0 l 567 0 l 567 572 l 413 572 q 386 348 403 442 q 344 189 369 254 q 290 85 320 124 q 226 25 260 46 q 156 -3 192 3 q 83 -10 120 -10 q 22 -3 40 -10 q 3 17 3 3 l 3 133 l 46 133 q 90 140 68 133 q 134 167 113 147 q 174 227 155 188 q 208 331 192 266 q 236 490 224 395 q 255 716 248 584 l 759 716 l 759 0 z "},"љ":{"ha":1174,"x_min":3,"x_max":1149,"o":"m 876 134 q 953 161 928 134 q 979 231 979 188 q 973 265 979 249 q 955 294 967 282 q 923 315 942 307 q 876 322 903 322 l 759 322 l 759 134 l 876 134 m 875 456 q 1002 438 950 456 q 1088 389 1055 419 q 1135 317 1120 358 q 1149 231 1149 276 q 1131 138 1149 180 q 1077 65 1113 95 q 992 17 1042 34 q 877 0 942 0 l 567 0 l 567 572 l 413 572 q 386 348 403 442 q 344 189 369 254 q 290 85 320 124 q 226 25 260 46 q 156 -3 192 3 q 83 -10 120 -10 q 22 -3 40 -10 q 3 17 3 3 l 3 133 l 46 133 q 90 140 68 133 q 134 167 113 147 q 174 227 155 188 q 208 331 192 266 q 236 490 224 395 q 255 716 248 584 l 759 716 l 759 456 l 875 456 z "},"м":{"ha":1001,"x_min":79,"x_max":922,"o":"m 922 717 l 922 0 l 749 0 l 749 372 q 752 429 749 397 q 760 490 755 461 l 565 124 q 512 91 548 91 l 491 91 q 437 124 456 91 l 240 491 q 249 430 246 463 q 252 372 252 398 l 252 0 l 79 0 l 79 717 l 239 717 q 278 708 258 717 q 311 675 297 700 l 458 399 q 481 352 470 377 q 501 300 492 326 q 521 352 510 326 q 544 399 532 377 l 690 675 q 724 709 704 701 q 763 717 743 717 l 922 717 z "},"н":{"ha":794,"x_min":79,"x_max":715,"o":"m 715 716 l 715 0 l 524 0 l 524 310 l 271 310 l 271 0 l 79 0 l 79 716 l 271 716 l 271 450 l 524 450 l 524 716 l 715 716 z "},"њ":{"ha":1131,"x_min":79,"x_max":1106,"o":"m 833 134 q 909 161 883 134 q 935 231 935 188 q 930 265 935 249 q 911 294 924 282 q 879 315 899 307 q 832 322 859 322 l 715 322 l 715 134 l 833 134 m 831 456 q 959 438 906 456 q 1044 389 1011 419 q 1091 317 1076 358 q 1106 231 1106 276 q 1087 138 1106 180 q 1034 65 1069 95 q 948 17 999 34 q 833 0 897 0 l 524 0 l 524 310 l 271 310 l 271 0 l 79 0 l 79 716 l 271 716 l 271 450 l 524 450 l 524 716 l 715 716 l 715 456 l 831 456 z "},"ѳ":{"ha":802,"x_min":42,"x_max":760,"o":"m 230 303 q 284 171 240 215 q 402 128 328 128 q 517 171 474 128 q 572 303 561 215 l 230 303 m 570 425 q 515 548 558 507 q 402 589 472 589 q 287 548 331 589 q 231 425 244 507 l 570 425 m 402 727 q 549 701 483 727 q 662 628 615 676 q 735 513 709 581 q 760 359 760 444 q 735 205 760 274 q 662 89 709 137 q 549 15 615 41 q 402 -10 483 -10 q 255 15 321 -10 q 141 89 188 41 q 68 205 94 137 q 42 359 42 274 q 68 513 42 444 q 141 628 94 581 q 255 701 188 676 q 402 727 321 727 z "},"п":{"ha":794,"x_min":79,"x_max":715,"o":"m 715 0 l 524 0 l 524 576 l 271 576 l 271 0 l 79 0 l 79 716 l 715 716 l 715 0 z "},"т":{"ha":717,"x_min":15,"x_max":701,"o":"m 701 576 l 454 576 l 454 0 l 263 0 l 263 576 l 15 576 l 15 716 l 701 716 l 701 576 z "},"ѵ":{"ha":771,"x_min":0,"x_max":751,"o":"m 487 578 q 518 653 500 624 q 560 698 537 681 q 610 720 583 714 q 669 726 638 726 q 711 723 695 726 q 736 716 727 720 q 748 707 745 712 q 751 699 751 702 l 751 595 l 730 595 q 682 584 702 595 q 652 546 662 572 l 456 0 l 283 0 l 0 716 l 159 716 q 194 706 180 716 q 213 681 208 697 l 335 327 q 373 183 360 254 q 390 254 381 219 q 410 327 399 290 l 487 578 z "},"ф":{"ha":1031,"x_min":40,"x_max":991,"o":"m 599 129 q 683 151 645 133 q 746 197 720 168 q 786 266 772 226 q 800 358 800 307 q 786 450 800 409 q 746 519 772 490 q 683 566 720 549 q 599 588 645 583 l 599 129 m 432 588 q 348 566 385 583 q 284 519 310 549 q 244 450 258 490 q 231 358 231 409 q 244 266 231 307 q 284 197 258 226 q 348 150 310 167 q 432 129 385 133 l 432 588 m 605 726 q 761 693 690 720 q 883 618 832 665 q 963 505 934 571 q 991 359 991 440 q 963 212 991 278 q 883 99 934 147 q 761 24 832 52 q 605 -9 690 -4 l 605 -237 l 426 -237 l 426 -9 q 269 24 340 -4 q 148 99 199 51 q 68 212 97 147 q 40 359 40 278 q 68 505 40 440 q 148 618 97 571 q 269 693 199 665 q 426 726 340 721 l 426 1008 l 605 1008 l 605 726 z "},"ц":{"ha":868,"x_min":79,"x_max":847,"o":"m 847 140 l 847 -182 q 831 -223 847 -208 q 792 -237 816 -237 l 672 -237 l 672 0 l 79 0 l 79 716 l 271 716 l 271 140 l 524 140 l 524 716 l 715 716 l 715 140 l 847 140 z "},"џ":{"ha":794,"x_min":79,"x_max":715,"o":"m 715 716 l 715 0 l 484 0 l 484 -182 q 469 -223 484 -208 q 430 -237 453 -237 l 310 -237 l 310 0 l 79 0 l 79 716 l 271 716 l 271 140 l 524 140 l 524 716 l 715 716 z "},"ч":{"ha":740,"x_min":44,"x_max":660,"o":"m 660 716 l 660 0 l 468 0 l 468 274 q 298 250 376 251 q 164 271 220 248 q 75 344 107 294 q 44 478 44 395 l 44 716 l 235 716 l 235 506 q 247 440 235 465 q 286 402 259 414 q 358 391 314 390 q 468 404 403 392 l 468 716 l 660 716 z "},"ш":{"ha":1160,"x_min":79,"x_max":1081,"o":"m 1081 716 l 1081 0 l 79 0 l 79 716 l 271 716 l 271 140 l 485 140 l 485 716 l 676 716 l 676 140 l 890 140 l 890 716 l 1081 716 z "},"щ":{"ha":1234,"x_min":79,"x_max":1213,"o":"m 1213 140 l 1213 -182 q 1197 -223 1213 -208 q 1158 -237 1182 -237 l 1039 -237 l 1039 0 l 79 0 l 79 716 l 271 716 l 271 140 l 485 140 l 485 716 l 676 716 l 676 140 l 890 140 l 890 716 l 1081 716 l 1081 0 l 1081 0 l 1081 140 l 1213 140 z "},"ъ":{"ha":830,"x_min":17,"x_max":804,"o":"m 531 134 q 609 161 583 134 q 635 231 635 188 q 629 265 635 249 q 610 294 623 282 q 578 315 597 307 q 531 322 558 322 l 414 322 l 414 134 l 531 134 m 531 456 q 658 438 606 456 q 743 389 710 419 q 790 317 775 358 q 804 231 804 276 q 786 138 804 180 q 733 65 767 95 q 647 17 698 34 q 532 0 597 0 l 232 0 l 232 574 l 17 574 l 17 716 l 414 716 l 414 456 l 531 456 z "},"ы":{"ha":1042,"x_min":79,"x_max":962,"o":"m 378 134 q 456 161 430 134 q 482 231 482 188 q 476 265 482 249 q 457 294 470 282 q 425 315 444 307 q 378 322 406 322 l 261 322 l 261 134 l 378 134 m 378 456 q 505 438 453 456 q 590 389 558 419 q 638 317 623 358 q 652 231 652 276 q 634 138 652 180 q 580 65 615 95 q 494 17 545 34 q 379 0 444 0 l 79 0 l 79 716 l 261 716 l 261 456 l 378 456 m 962 716 l 962 0 l 771 0 l 771 716 l 962 716 z "},"ь":{"ha":677,"x_min":79,"x_max":652,"o":"m 378 134 q 456 161 430 134 q 482 231 482 188 q 476 265 482 249 q 457 294 470 282 q 425 315 444 307 q 378 322 406 322 l 261 322 l 261 134 l 378 134 m 378 456 q 505 438 453 456 q 590 389 558 419 q 638 317 623 358 q 652 231 652 276 q 634 138 652 180 q 580 65 615 95 q 494 17 545 34 q 379 0 444 0 l 79 0 l 79 716 l 261 716 l 261 456 l 378 456 z "},"э":{"ha":679,"x_min":24,"x_max":638,"o":"m 31 624 q 142 701 80 674 q 285 727 203 727 q 437 699 372 727 q 548 622 503 671 q 615 505 592 572 q 638 359 638 438 q 612 202 638 271 q 542 86 586 133 q 438 14 497 39 q 313 -10 378 -10 q 237 -5 275 -10 q 161 14 199 0 q 90 50 124 27 q 24 109 55 74 l 76 172 q 111 190 88 190 q 142 181 128 190 q 172 161 156 172 q 213 142 189 151 q 277 133 238 133 q 388 176 343 133 q 444 302 432 220 l 155 302 l 155 430 l 442 430 q 386 544 428 503 q 274 584 344 584 q 216 577 240 584 q 176 561 193 570 q 146 546 159 553 q 118 539 133 539 q 95 545 103 539 q 78 562 87 551 l 31 624 z "},"є":{"ha":679,"x_min":42,"x_max":655,"o":"m 601 562 q 584 545 592 551 q 561 539 576 539 q 533 546 547 539 q 503 561 520 553 q 463 577 486 570 q 406 584 440 584 q 293 543 335 584 q 238 430 251 503 l 525 430 l 525 302 l 235 302 q 291 176 247 219 q 402 133 336 133 q 466 142 442 133 q 507 161 490 151 q 538 181 524 172 q 568 190 551 190 q 603 172 591 190 l 655 109 q 590 50 624 74 q 518 14 555 27 q 442 -5 481 0 q 367 -10 404 -10 q 242 14 301 -10 q 138 86 183 39 q 68 202 94 133 q 42 359 42 271 q 65 505 42 438 q 132 622 88 572 q 242 699 176 671 q 394 727 308 727 q 538 701 476 727 q 649 624 599 674 l 601 562 z "},"ю":{"ha":1126,"x_min":79,"x_max":1084,"o":"m 737 133 q 851 190 815 133 q 887 358 887 247 q 851 526 887 469 q 737 583 815 583 q 623 526 659 583 q 587 358 587 469 q 623 190 587 247 q 737 133 659 133 m 401 431 q 438 555 410 500 q 509 648 465 610 q 610 707 552 686 q 737 727 667 727 q 879 701 815 727 q 989 628 943 676 q 1059 513 1034 581 q 1084 359 1084 444 q 1058 205 1084 274 q 986 89 1032 137 q 876 15 940 41 q 737 -10 813 -10 q 606 11 665 -10 q 504 72 547 32 q 434 169 460 112 q 399 297 408 226 l 271 297 l 271 0 l 79 0 l 79 716 l 271 716 l 271 431 l 401 431 z "},"я":{"ha":713,"x_min":-4,"x_max":633,"o":"m 451 398 l 451 594 l 369 594 q 320 585 340 594 q 288 563 300 576 q 271 531 276 549 q 266 497 266 514 q 295 424 266 451 q 373 398 325 398 l 451 398 m 633 716 l 633 0 l 451 0 l 451 282 l 432 282 q 397 278 410 282 q 373 267 383 274 q 358 250 364 260 q 344 228 351 240 l 247 65 q 227 36 238 49 q 204 16 217 24 q 172 4 190 8 q 128 0 153 0 l -4 0 l 165 247 q 202 292 181 274 q 253 319 224 310 q 169 348 203 328 q 114 393 135 368 q 83 448 92 419 q 74 504 74 476 q 90 583 74 544 q 141 650 106 621 q 231 698 176 680 q 363 716 286 716 l 633 716 z "},"ђ":{"ha":786,"x_min":-29,"x_max":730,"o":"m 270 581 q 312 614 290 599 q 359 639 334 628 q 411 656 383 650 q 472 662 440 662 q 667 578 604 662 q 730 332 730 494 q 719 189 730 261 q 687 45 708 116 q 638 -94 667 -26 q 572 -225 608 -162 l 418 -168 q 470 -49 448 -108 q 508 71 492 10 q 531 197 523 132 q 538 332 538 261 q 529 418 538 383 q 503 475 519 453 q 463 506 486 497 q 413 515 440 515 q 338 498 373 515 q 270 449 302 480 l 270 0 l 79 0 l 79 745 l -29 745 l -29 886 l 79 886 l 79 1035 l 270 1035 l 270 886 l 481 886 l 481 745 l 270 745 l 270 581 z "},"ѣ":{"ha":794,"x_min":18,"x_max":774,"o":"m 501 134 q 578 161 552 134 q 604 231 604 188 q 598 265 604 249 q 580 294 592 282 q 547 315 567 307 q 501 322 528 322 l 369 322 l 369 134 l 501 134 m 500 456 q 627 438 575 456 q 712 389 680 419 q 759 317 744 358 q 774 231 774 276 q 755 138 774 180 q 702 65 737 95 q 617 17 667 34 q 501 0 566 0 l 188 0 l 188 574 l 18 574 l 18 715 l 188 715 l 188 897 l 369 897 l 369 715 l 583 715 l 583 574 l 369 574 l 369 456 l 500 456 z "},"!":{"ha":397,"x_min":84,"x_max":310,"o":"m 289 1008 l 289 610 q 282 485 289 547 q 264 357 276 424 l 135 357 q 116 485 123 424 q 110 610 110 547 l 110 1008 l 289 1008 m 84 101 q 93 144 84 124 q 117 180 101 165 q 152 203 132 194 q 197 212 173 212 q 241 203 221 212 q 277 180 262 194 q 301 144 292 165 q 310 101 310 124 q 301 57 310 77 q 277 22 292 37 q 241 -1 262 7 q 197 -10 221 -10 q 152 -1 173 -10 q 117 22 132 7 q 93 57 101 37 q 84 101 84 77 z "},"?":{"ha":646,"x_min":46,"x_max":595,"o":"m 46 916 q 100 956 71 938 q 162 989 128 975 q 235 1011 196 1003 q 319 1019 274 1019 q 433 1002 382 1019 q 519 953 483 985 q 575 877 556 922 q 595 778 595 833 q 580 686 595 725 q 543 619 565 648 q 493 570 520 591 q 442 531 466 549 q 400 495 417 513 q 378 456 382 478 l 360 357 l 229 357 l 216 469 q 224 527 211 503 q 260 573 238 552 q 309 612 282 593 q 361 653 337 631 q 401 702 385 675 q 417 767 417 730 q 386 840 417 813 q 302 867 354 867 q 238 859 264 867 q 193 841 212 851 q 161 822 174 831 q 136 814 148 814 q 97 837 110 814 l 46 916 m 176 101 q 184 144 176 124 q 208 180 193 165 q 244 203 224 194 q 289 212 265 212 q 333 203 313 212 q 369 180 354 194 q 393 144 385 165 q 402 101 402 124 q 393 57 402 77 q 369 22 385 37 q 333 -1 354 7 q 289 -10 313 -10 q 244 -1 265 -10 q 208 22 224 7 q 184 57 193 37 q 176 101 176 77 z "},"‽":{"ha":721,"x_min":49,"x_max":674,"o":"m 313 212 q 357 203 336 212 q 393 180 378 194 q 417 144 408 165 q 426 101 426 124 q 417 57 426 77 q 393 22 408 37 q 357 -1 378 7 q 313 -10 336 -10 q 268 -1 288 -10 q 232 22 247 7 q 208 57 217 37 q 199 101 199 77 q 208 144 199 124 q 232 180 217 165 q 268 203 247 194 q 313 212 288 212 m 292 994 q 351 1009 316 1003 q 421 1014 385 1014 q 522 1000 476 1014 q 602 959 569 987 q 655 891 636 932 q 674 796 674 850 q 655 699 674 738 q 606 633 635 660 q 542 586 577 606 q 476 549 508 567 q 422 509 445 531 q 393 456 399 488 l 379 352 l 260 352 q 219 456 240 401 q 181 565 198 511 l 49 985 l 225 1029 l 314 688 q 323 651 317 674 q 335 600 329 628 q 387 647 358 628 q 441 685 416 667 q 482 723 465 703 q 499 774 499 744 q 493 807 499 792 q 475 835 487 823 q 448 854 464 847 q 411 861 432 861 q 382 858 397 861 q 360 856 367 856 q 330 863 340 856 q 317 887 319 871 l 292 994 z "},",":{"ha":328,"x_min":54,"x_max":274,"o":"m 78 -171 q 68 -158 71 -165 q 65 -143 65 -152 q 69 -130 65 -137 q 80 -116 74 -122 q 99 -95 88 -108 q 121 -68 110 -83 q 141 -35 132 -53 q 156 3 151 -17 q 114 13 133 3 q 82 36 95 22 q 61 70 69 51 q 54 113 54 90 q 62 152 54 134 q 84 183 69 170 q 118 204 98 197 q 162 212 138 212 q 211 202 190 212 q 247 175 233 192 q 267 136 260 158 q 274 88 274 113 q 264 16 274 54 q 233 -60 253 -22 q 182 -134 212 -98 q 112 -201 151 -171 l 78 -171 z "},";":{"ha":381,"x_min":76,"x_max":302,"o":"m 106 -171 q 95 -158 98 -165 q 92 -143 92 -152 q 96 -130 92 -137 q 107 -116 101 -122 q 126 -95 115 -108 q 148 -68 137 -83 q 168 -35 159 -53 q 183 3 178 -17 q 141 13 160 3 q 109 36 122 22 q 89 70 96 51 q 81 113 81 90 q 89 152 81 134 q 111 183 97 170 q 145 204 125 197 q 189 212 165 212 q 239 202 217 212 q 274 175 260 192 q 294 136 288 158 q 301 88 301 113 q 291 16 301 54 q 260 -60 281 -22 q 209 -134 239 -98 q 139 -201 178 -171 l 106 -171 m 76 587 q 84 630 76 610 q 108 666 93 651 q 144 689 124 681 q 189 698 165 698 q 233 689 213 698 q 269 666 254 681 q 293 630 285 651 q 302 587 302 610 q 293 543 302 563 q 269 508 285 523 q 233 485 254 493 q 189 476 213 476 q 144 485 165 476 q 108 508 124 493 q 84 543 93 523 q 76 587 76 563 z "},":":{"ha":363,"x_min":68,"x_max":294,"o":"m 68 101 q 77 144 68 124 q 101 180 85 165 q 136 203 116 194 q 181 212 157 212 q 226 203 205 212 q 262 180 247 194 q 286 144 277 165 q 294 101 294 124 q 286 57 294 77 q 262 22 277 37 q 226 -1 247 7 q 181 -10 205 -10 q 136 -1 157 -10 q 101 22 116 7 q 77 57 85 37 q 68 101 68 77 m 68 587 q 77 630 68 610 q 101 666 85 651 q 136 689 116 681 q 181 698 157 698 q 226 689 205 698 q 262 666 247 681 q 286 630 277 651 q 294 587 294 610 q 286 543 294 563 q 262 508 277 523 q 226 485 247 493 q 181 476 205 476 q 136 485 157 476 q 101 508 116 493 q 77 543 85 523 q 68 587 68 563 z "},".":{"ha":331,"x_min":52,"x_max":278,"o":"m 52 101 q 61 144 52 124 q 85 180 69 165 q 120 203 100 194 q 165 212 141 212 q 210 203 189 212 q 246 180 231 194 q 270 144 261 165 q 278 101 278 124 q 270 57 278 77 q 246 22 261 37 q 210 -1 231 7 q 165 -10 189 -10 q 120 -1 141 -10 q 85 22 100 7 q 61 57 69 37 q 52 101 52 77 z "},"…":{"ha":1084,"x_min":52,"x_max":1031,"o":"m 52 101 q 61 144 52 124 q 85 180 69 165 q 120 203 100 194 q 165 212 141 212 q 210 203 189 212 q 246 180 231 194 q 270 144 261 165 q 278 101 278 124 q 270 57 278 77 q 246 22 261 37 q 210 -1 231 7 q 165 -10 189 -10 q 120 -1 141 -10 q 85 22 100 7 q 61 57 69 37 q 52 101 52 77 m 805 101 q 814 144 805 124 q 838 180 822 165 q 873 203 853 194 q 918 212 894 212 q 963 203 942 212 q 999 180 983 194 q 1023 144 1014 165 q 1031 101 1031 124 q 1023 57 1031 77 q 999 22 1014 37 q 963 -1 983 7 q 918 -10 942 -10 q 873 -1 894 -10 q 838 22 853 7 q 814 57 822 37 q 805 101 805 77 m 428 101 q 437 144 428 124 q 461 180 446 165 q 497 203 476 194 q 542 212 517 212 q 586 203 565 212 q 622 180 607 194 q 646 144 638 165 q 655 101 655 124 q 646 57 655 77 q 622 22 638 37 q 586 -1 607 7 q 542 -10 565 -10 q 497 -1 517 -10 q 461 22 476 7 q 437 57 446 37 q 428 101 428 77 z "},"‘":{"ha":310,"x_min":46,"x_max":263,"o":"m 106 640 q 58 758 70 697 q 56 879 46 819 q 100 993 67 938 q 188 1092 133 1048 l 248 1056 q 259 1044 256 1051 q 262 1032 263 1038 q 259 1019 262 1025 q 252 1008 256 1013 q 225 966 239 993 q 206 903 212 938 q 206 827 200 868 q 239 744 213 786 q 247 707 253 723 q 221 684 240 690 l 106 640 z "},"’":{"ha":310,"x_min":52,"x_max":269,"o":"m 209 1074 q 257 956 244 1017 q 258 836 269 895 q 215 722 248 776 q 126 623 182 667 l 67 659 q 55 670 58 664 q 52 684 52 677 q 56 696 53 690 q 63 706 58 702 q 89 749 76 722 q 108 811 103 776 q 108 888 114 847 q 76 970 101 928 q 68 1008 62 992 q 93 1031 74 1024 l 209 1074 z "},"“":{"ha":549,"x_min":46,"x_max":501,"o":"m 106 640 q 58 758 70 697 q 56 879 46 819 q 100 993 67 938 q 188 1092 133 1048 l 248 1056 q 259 1044 256 1051 q 262 1032 263 1038 q 259 1019 262 1025 q 252 1008 256 1013 q 225 966 239 993 q 206 903 212 938 q 206 827 200 868 q 239 744 213 786 q 247 707 253 723 q 221 684 240 690 l 106 640 m 344 640 q 297 758 309 697 q 295 879 285 819 q 339 993 306 938 q 427 1092 372 1048 l 487 1056 q 498 1044 495 1051 q 501 1032 501 1038 q 498 1019 501 1025 q 491 1008 495 1013 q 464 966 478 993 q 445 903 451 938 q 445 827 439 868 q 478 744 451 786 q 485 707 492 723 q 460 684 479 690 l 344 640 z "},"”":{"ha":549,"x_min":52,"x_max":508,"o":"m 209 1074 q 257 956 244 1017 q 258 836 269 895 q 215 722 248 776 q 126 623 182 667 l 67 659 q 55 670 58 664 q 52 684 52 677 q 56 696 53 690 q 63 706 58 702 q 89 749 76 722 q 108 811 103 776 q 108 888 114 847 q 76 970 101 928 q 68 1008 62 992 q 93 1031 74 1024 l 209 1074 m 448 1074 q 495 956 483 1017 q 497 836 508 895 q 454 722 487 776 q 365 623 421 667 l 306 659 q 294 670 297 664 q 291 684 291 677 q 294 696 292 690 q 301 706 297 702 q 328 749 315 722 q 347 811 342 776 q 347 888 353 847 q 315 970 340 928 q 307 1008 301 992 q 332 1031 313 1024 l 448 1074 z "},"‚":{"ha":304,"x_min":37,"x_max":253,"o":"m 194 219 q 241 101 229 163 q 243 -19 253 40 q 200 -133 233 -78 q 111 -232 167 -188 l 51 -196 q 40 -184 43 -191 q 37 -171 37 -178 q 40 -159 38 -165 q 47 -149 43 -153 q 74 -106 60 -133 q 93 -43 88 -78 q 92 33 99 -8 q 60 115 86 74 q 53 153 47 137 q 78 176 59 169 l 194 219 z "},"„":{"ha":542,"x_min":37,"x_max":492,"o":"m 194 219 q 241 101 229 163 q 243 -19 253 40 q 200 -133 233 -78 q 111 -232 167 -188 l 51 -196 q 40 -184 43 -191 q 37 -171 37 -178 q 40 -159 38 -165 q 47 -149 43 -153 q 74 -106 60 -133 q 93 -43 88 -78 q 92 33 99 -8 q 60 115 86 74 q 53 153 47 137 q 78 176 59 169 l 194 219 m 433 219 q 480 101 468 163 q 482 -19 492 40 q 439 -133 472 -78 q 350 -232 406 -188 l 290 -196 q 279 -184 282 -191 q 276 -171 276 -178 q 279 -159 276 -165 q 286 -149 282 -153 q 313 -106 299 -133 q 332 -43 326 -78 q 331 33 338 -8 q 299 115 325 74 q 292 153 285 137 q 317 176 298 169 l 433 219 z "},"‹":{"ha":409,"x_min":60,"x_max":334,"o":"m 322 188 q 330 146 334 165 q 302 115 326 126 l 240 86 l 60 363 l 60 388 l 240 665 l 302 636 q 330 605 326 624 q 322 563 334 585 l 231 406 q 208 376 221 388 q 231 345 221 363 l 322 188 z "},"›":{"ha":410,"x_min":75,"x_max":350,"o":"m 350 388 l 350 363 l 170 86 l 107 115 q 79 146 83 126 q 88 188 75 165 l 178 345 q 201 376 188 363 q 178 406 188 388 l 88 563 q 79 605 75 585 q 107 636 83 624 l 170 665 l 350 388 z "},"«":{"ha":648,"x_min":60,"x_max":572,"o":"m 322 188 q 330 146 334 165 q 302 115 326 126 l 240 86 l 60 363 l 60 388 l 240 665 l 302 636 q 330 605 326 624 q 322 563 334 585 l 231 406 q 208 376 221 388 q 231 345 221 363 l 322 188 m 560 188 q 568 146 572 165 q 540 115 565 126 l 478 86 l 298 363 l 298 388 l 478 665 l 540 636 q 568 605 565 624 q 560 563 572 585 l 469 406 q 446 376 459 388 q 469 345 459 363 l 560 188 z "},"»":{"ha":648,"x_min":75,"x_max":588,"o":"m 350 388 l 350 363 l 170 86 l 107 115 q 79 146 83 126 q 88 188 75 165 l 178 345 q 201 376 188 363 q 178 406 188 388 l 88 563 q 79 605 75 585 q 107 636 83 624 l 170 665 l 350 388 m 588 388 l 588 363 l 408 86 l 345 115 q 317 146 321 126 q 326 188 313 165 l 416 345 q 440 376 426 363 q 416 406 426 388 l 326 563 q 317 605 313 585 q 345 636 321 624 l 408 665 l 588 388 z "},"/":{"ha":656,"x_min":38,"x_max":617,"o":"m 220 3 q 178 -50 207 -32 q 119 -67 149 -67 l 38 -67 l 439 969 q 476 1018 451 1001 q 535 1035 502 1035 l 617 1035 l 220 3 z "},"|":{"ha":368,"x_min":110,"x_max":258,"o":"m 110 1078 l 258 1078 l 258 -237 l 110 -237 l 110 1078 z "},"¦":{"ha":372,"x_min":112,"x_max":260,"o":"m 112 1078 l 260 1078 l 260 513 l 112 513 l 112 1078 m 112 334 l 260 334 l 260 -231 l 112 -231 l 112 334 z "},"\\":{"ha":656,"x_min":38,"x_max":617,"o":"m 38 1035 l 119 1035 q 179 1018 153 1035 q 217 969 205 1001 l 617 -67 l 536 -67 q 477 -50 506 -67 q 435 3 449 -32 l 38 1035 z "},"-":{"ha":519,"x_min":76,"x_max":442,"o":"m 76 499 l 442 499 l 442 342 l 76 342 l 76 499 z "},"–":{"ha":806,"x_min":120,"x_max":685,"o":"m 120 485 l 685 485 l 685 352 l 120 352 l 120 485 z "},"—":{"ha":1110,"x_min":81,"x_max":1031,"o":"m 81 485 l 1031 485 l 1031 352 l 81 352 l 81 485 z "},"_":{"ha":652,"x_min":52,"x_max":599,"o":"m 599 -85 l 599 -207 l 52 -207 l 52 -85 l 599 -85 z "},"•":{"ha":806,"x_min":81,"x_max":724,"o":"m 81 412 q 107 535 81 477 q 176 636 132 593 q 278 704 219 679 q 402 729 336 729 q 527 704 469 729 q 630 636 586 679 q 699 535 674 593 q 724 412 724 477 q 699 289 724 347 q 630 189 674 232 q 527 121 586 146 q 402 96 469 96 q 278 121 336 96 q 176 189 219 146 q 107 289 132 232 q 81 412 81 347 z "},"·":{"ha":390,"x_min":52,"x_max":338,"o":"m 52 413 q 63 468 52 442 q 94 513 74 494 q 139 543 113 532 q 194 553 165 553 q 250 543 224 553 q 296 513 276 532 q 326 468 315 494 q 338 413 338 442 q 326 359 338 385 q 296 315 315 334 q 250 285 276 297 q 194 274 224 274 q 139 285 165 274 q 94 315 113 297 q 63 359 74 334 q 52 413 52 385 z "},"(":{"ha":385,"x_min":46,"x_max":349,"o":"m 212 435 q 245 157 212 294 q 339 -101 278 19 q 348 -127 347 -116 q 346 -148 349 -139 q 336 -163 343 -157 q 322 -174 330 -169 l 237 -225 q 149 -66 185 -146 q 90 96 113 14 q 57 263 67 178 q 46 435 46 347 q 57 608 46 523 q 90 774 67 692 q 149 936 113 856 q 237 1095 185 1017 l 322 1045 q 336 1034 330 1040 q 346 1019 343 1028 q 348 998 349 1010 q 339 971 347 986 q 245 714 278 851 q 212 435 212 576 z "},")":{"ha":385,"x_min":36,"x_max":339,"o":"m 174 435 q 141 714 174 576 q 47 971 108 851 q 37 998 38 986 q 39 1019 36 1010 q 49 1034 42 1028 q 63 1045 56 1040 l 149 1095 q 235 936 199 1017 q 294 774 272 856 q 328 608 317 692 q 339 435 339 523 q 328 263 339 347 q 294 96 317 178 q 235 -66 272 14 q 149 -225 199 -146 l 63 -174 q 49 -163 56 -169 q 39 -148 42 -157 q 37 -127 36 -139 q 47 -101 38 -116 q 141 157 108 19 q 174 435 174 294 z "},"[":{"ha":440,"x_min":110,"x_max":407,"o":"m 269 956 l 269 -97 l 356 -97 q 393 -111 378 -97 q 407 -145 407 -126 l 407 -219 l 110 -219 l 110 1078 l 407 1078 l 407 1003 q 393 970 407 984 q 356 956 378 956 l 269 956 z "},"]":{"ha":440,"x_min":33,"x_max":330,"o":"m 330 -219 l 33 -219 l 33 -145 q 47 -111 33 -126 q 83 -97 61 -97 l 170 -97 l 170 956 l 83 956 q 47 970 61 956 q 33 1003 33 984 l 33 1078 l 330 1078 l 330 -219 z "},"{":{"ha":428,"x_min":36,"x_max":391,"o":"m 347 956 q 277 927 301 956 q 254 847 254 898 q 258 774 254 809 q 266 707 261 740 q 274 644 270 675 q 277 581 277 613 q 270 530 277 554 q 249 486 263 506 q 214 452 235 467 q 168 429 194 437 q 214 407 194 422 q 249 372 235 392 q 270 328 263 352 q 277 278 277 304 q 274 215 277 247 q 266 151 270 183 q 258 84 261 119 q 254 11 254 49 q 277 -68 254 -39 q 347 -97 301 -97 l 351 -97 q 363 -99 356 -97 q 376 -106 369 -101 q 386 -118 382 -111 q 391 -135 391 -125 l 391 -219 l 354 -219 q 235 -201 285 -219 q 152 -152 185 -184 q 103 -76 119 -121 q 88 23 88 -31 q 92 89 88 56 q 101 153 96 121 q 111 217 106 185 q 115 281 115 249 q 97 349 115 322 q 36 375 79 375 l 36 483 q 97 510 79 483 q 115 578 115 536 q 111 641 115 610 q 101 705 106 673 q 92 770 96 738 q 88 835 88 802 q 103 934 88 890 q 152 1011 119 979 q 235 1060 185 1043 q 354 1078 285 1078 l 391 1078 l 391 994 q 386 976 391 983 q 376 965 382 969 q 363 958 369 960 q 351 956 356 956 l 347 956 z "},"}":{"ha":428,"x_min":37,"x_max":392,"o":"m 392 375 q 331 349 349 375 q 313 281 313 322 q 317 217 313 249 q 326 153 321 185 q 336 89 331 121 q 340 23 340 56 q 325 -76 340 -31 q 276 -152 309 -121 q 193 -201 243 -184 q 74 -219 142 -219 l 37 -219 l 37 -135 q 41 -118 37 -125 q 51 -106 45 -111 q 65 -99 58 -101 q 77 -97 72 -97 l 81 -97 q 150 -68 127 -97 q 174 11 174 -39 q 170 84 174 49 q 162 151 167 119 q 154 215 158 183 q 151 278 151 247 q 158 328 151 304 q 179 372 165 352 q 214 407 193 392 q 260 429 234 422 q 214 452 234 437 q 179 486 193 467 q 158 530 165 506 q 151 581 151 554 q 154 644 151 613 q 162 707 158 675 q 170 774 167 740 q 174 847 174 809 q 150 927 174 898 q 81 956 127 956 l 77 956 q 65 958 72 956 q 51 965 58 960 q 41 976 45 969 q 37 994 37 983 l 37 1078 l 74 1078 q 193 1060 142 1078 q 276 1011 243 1043 q 325 934 309 979 q 340 835 340 890 q 336 770 340 802 q 326 705 331 738 q 317 641 321 673 q 313 578 313 610 q 331 510 313 536 q 392 483 349 483 l 392 375 z "},"*":{"ha":590,"x_min":65,"x_max":526,"o":"m 419 835 q 394 823 407 828 q 368 815 381 817 q 419 794 394 810 l 526 731 l 481 656 l 375 719 q 351 734 363 726 q 332 752 340 742 q 340 699 340 728 l 340 574 l 249 574 l 249 698 q 251 725 249 712 q 257 751 253 739 q 215 719 241 733 l 110 657 l 65 733 l 171 794 q 197 807 184 802 q 223 815 210 813 q 197 822 210 817 q 171 835 183 828 l 65 899 l 109 974 l 215 910 q 258 878 241 897 q 249 930 249 901 l 249 1056 l 340 1056 l 340 931 q 339 904 340 917 q 333 878 337 890 q 352 896 341 888 q 375 910 363 903 l 481 972 l 526 897 l 419 835 z "},"†":{"ha":806,"x_min":46,"x_max":760,"o":"m 477 570 l 477 340 l 501 -222 q 403 -246 460 -246 q 304 -222 345 -246 l 328 340 l 328 570 l 46 570 l 46 633 q 51 663 46 649 q 67 689 56 678 q 95 707 78 701 q 135 714 113 714 q 180 710 156 714 q 227 701 203 706 q 278 691 252 697 q 328 682 303 686 l 304 1022 q 403 1045 346 1045 q 501 1022 460 1045 l 477 682 q 528 691 502 686 q 578 701 553 697 q 626 710 603 706 q 670 714 649 714 q 710 707 693 714 q 738 689 727 701 q 755 663 749 678 q 760 633 760 649 l 760 570 l 477 570 z "},"‡":{"ha":806,"x_min":46,"x_max":760,"o":"m 477 229 l 760 229 l 760 167 q 755 136 760 151 q 738 110 749 122 q 710 93 727 99 q 670 86 693 86 q 626 90 649 86 q 578 98 603 93 q 528 108 553 103 q 478 117 503 113 l 501 -222 q 403 -246 460 -246 q 304 -222 345 -246 l 328 117 q 277 108 303 113 q 227 98 252 103 q 180 90 203 93 q 135 86 156 86 q 95 93 113 86 q 67 110 78 99 q 51 136 56 122 q 46 167 46 151 l 46 229 l 328 229 l 328 570 l 46 570 l 46 633 q 51 663 46 649 q 67 689 56 678 q 95 707 78 701 q 135 714 113 714 q 180 710 156 714 q 227 701 203 706 q 278 691 252 697 q 328 682 303 686 l 304 1022 q 403 1045 346 1045 q 501 1022 460 1045 l 477 682 q 528 691 502 686 q 578 701 553 697 q 626 710 603 706 q 670 714 649 714 q 710 707 693 714 q 738 689 727 701 q 755 663 749 678 q 760 633 760 649 l 760 570 l 477 570 l 477 229 z "},"§":{"ha":704,"x_min":58,"x_max":649,"o":"m 227 503 q 246 457 227 476 q 294 421 265 437 q 362 390 324 405 q 438 358 399 376 q 472 391 462 372 q 483 431 483 409 q 465 479 483 459 q 417 515 447 499 q 351 545 388 531 q 276 577 314 560 q 239 544 250 562 q 227 503 227 526 m 574 859 q 558 842 567 847 q 537 838 550 838 q 508 844 523 838 q 475 859 494 851 q 434 874 457 867 q 380 881 410 881 q 298 859 326 881 q 270 804 270 837 q 286 768 270 784 q 330 738 303 752 q 390 711 356 724 q 460 682 424 697 q 529 647 495 666 q 590 604 563 628 q 633 548 617 579 q 649 474 649 516 q 624 373 649 419 q 541 299 598 328 q 591 239 572 273 q 610 158 610 205 q 591 61 610 106 q 534 -15 572 17 q 442 -65 497 -47 q 316 -83 388 -83 q 243 -76 279 -83 q 174 -57 207 -69 q 113 -29 142 -45 q 64 6 85 -13 l 108 77 q 128 97 116 90 q 158 103 140 103 q 190 95 175 103 q 223 76 204 86 q 268 57 242 66 q 333 49 294 49 q 414 69 385 49 q 442 127 442 90 q 426 173 442 154 q 382 207 409 192 q 320 234 355 222 q 250 260 286 247 q 180 292 214 274 q 118 334 145 310 q 74 392 91 359 q 58 472 58 426 q 86 570 58 527 q 172 640 114 614 q 120 705 140 667 q 101 796 101 742 q 118 881 101 840 q 170 951 135 921 q 256 1000 205 982 q 376 1018 308 1018 q 515 993 452 1018 q 617 927 578 967 l 574 859 z "},"¶":{"ha":1044,"x_min":44,"x_max":994,"o":"m 994 850 l 847 850 l 847 -147 l 680 -147 l 680 850 l 529 850 l 529 -147 l 363 -147 l 363 430 q 231 453 290 430 q 131 515 172 476 q 66 607 89 554 q 44 717 44 659 q 66 835 44 781 q 131 927 89 888 q 231 986 172 965 q 363 1008 290 1008 l 994 1008 l 994 850 z "},"^":{"ha":806,"x_min":59,"x_max":747,"o":"m 747 469 l 606 469 q 577 478 589 469 q 559 500 566 486 l 438 752 q 417 798 426 776 q 401 840 408 819 q 387 798 395 819 q 368 752 378 776 l 256 500 q 238 478 251 487 q 207 469 226 469 l 59 469 l 338 1008 l 462 1008 l 747 469 z "},"~":{"ha":806,"x_min":65,"x_max":745,"o":"m 515 459 q 571 482 551 459 q 591 549 591 506 l 745 549 q 731 448 745 493 q 688 372 716 403 q 619 323 660 340 q 527 306 578 306 q 457 315 490 306 q 394 334 424 324 q 341 353 365 344 q 295 363 316 363 q 239 339 258 363 q 219 272 219 316 l 65 272 q 79 374 65 328 q 122 450 94 419 q 191 499 150 482 q 283 517 231 517 q 353 508 319 517 q 415 488 386 499 q 469 468 444 477 q 515 459 494 459 z "},"'":{"ha":298,"x_min":65,"x_max":232,"o":"m 232 1008 l 232 808 l 215 699 q 195 648 210 666 q 149 630 181 630 q 105 648 120 630 q 83 699 90 666 l 65 808 l 65 1008 l 232 1008 z "},"\"":{"ha":563,"x_min":65,"x_max":497,"o":"m 232 1008 l 232 808 l 215 699 q 195 648 210 666 q 149 630 181 630 q 105 648 120 630 q 83 699 90 666 l 65 808 l 65 1008 l 232 1008 m 497 1008 l 497 808 l 481 699 q 461 648 475 666 q 414 630 447 630 q 370 648 385 630 q 348 699 355 666 l 331 808 l 331 1008 l 497 1008 z "},"&":{"ha":1011,"x_min":47,"x_max":1011,"o":"m 331 460 q 263 384 283 426 q 242 296 242 342 q 253 231 242 260 q 286 182 265 202 q 335 150 307 161 q 397 139 364 139 q 497 155 451 139 q 581 199 543 170 l 331 460 m 1011 0 l 823 0 q 797 1 808 0 q 776 7 785 3 q 757 18 766 11 q 738 35 748 25 l 681 95 q 534 17 615 44 q 363 -11 454 -11 q 247 9 303 -11 q 145 68 190 30 q 74 159 101 106 q 47 281 47 213 q 61 369 47 327 q 102 446 76 410 q 166 510 129 481 q 246 560 202 540 q 195 661 210 612 q 179 758 179 710 q 199 858 179 810 q 255 941 218 906 q 345 998 292 977 q 468 1019 399 1019 q 582 1000 532 1019 q 667 949 632 981 q 721 876 701 917 q 745 790 741 835 l 623 765 q 574 793 589 758 q 535 852 560 829 q 468 876 510 876 q 421 866 442 876 q 386 841 400 857 q 364 804 372 825 q 357 759 357 783 q 361 722 357 740 q 373 685 365 703 q 397 647 382 667 q 432 606 411 628 l 691 335 q 725 424 713 377 q 742 520 738 471 q 754 549 744 538 q 781 559 764 559 l 901 559 q 875 378 901 463 q 800 221 848 292 l 1011 0 z "},"@":{"ha":1175,"x_min":60,"x_max":1125,"o":"m 707 553 q 687 555 697 554 q 667 556 677 556 q 592 538 627 556 q 532 490 558 520 q 491 420 506 460 q 476 337 476 381 q 493 271 476 294 q 544 249 510 249 q 577 254 560 249 q 609 272 594 259 q 636 306 624 285 q 657 360 649 327 l 707 553 m 804 380 q 794 312 794 339 q 801 270 794 285 q 823 249 809 255 q 856 243 838 243 q 908 261 883 243 q 950 311 932 279 q 978 388 968 344 q 989 484 989 432 q 962 640 989 572 q 886 753 935 708 q 768 821 837 798 q 617 844 699 844 q 502 829 556 844 q 401 786 447 814 q 317 718 354 758 q 253 630 279 678 q 212 525 226 581 q 198 408 198 469 q 233 210 198 296 q 328 68 267 125 q 472 -18 389 11 q 651 -47 554 -47 q 751 -41 705 -47 q 836 -25 797 -35 q 905 -3 874 -15 q 958 23 935 10 q 993 30 978 34 q 1015 7 1008 25 l 1042 -60 q 873 -137 970 -108 q 651 -167 776 -167 q 415 -127 523 -167 q 227 -13 306 -87 q 104 168 149 62 q 60 408 60 275 q 79 552 60 482 q 134 684 99 622 q 220 798 169 746 q 332 886 270 849 q 466 944 394 924 q 617 965 538 965 q 746 950 683 965 q 866 907 810 935 q 970 836 923 878 q 1052 740 1018 794 q 1106 623 1087 687 q 1125 484 1125 558 q 1103 345 1125 410 q 1041 231 1081 280 q 947 155 1001 183 q 828 127 892 127 q 744 148 782 127 q 690 217 707 169 q 604 148 649 169 q 506 128 558 128 q 428 143 461 128 q 373 186 395 158 q 340 251 351 213 q 328 332 328 288 q 339 412 328 372 q 369 491 349 453 q 419 562 389 528 q 491 620 450 595 q 584 659 532 644 q 699 673 635 673 q 751 671 727 673 q 795 665 774 669 q 834 654 816 660 q 872 640 853 648 l 804 380 z "},"©":{"ha":1140,"x_min":56,"x_max":1085,"o":"m 719 365 q 733 361 726 365 q 745 352 740 358 l 808 286 q 710 209 770 235 q 570 183 650 183 q 444 208 500 183 q 348 276 388 233 q 287 379 308 320 q 265 506 265 438 q 290 636 265 577 q 358 738 315 695 q 459 805 401 781 q 585 829 517 829 q 719 802 663 829 q 813 735 776 776 l 763 666 q 750 654 758 660 q 730 648 742 648 q 707 655 717 648 q 683 669 697 661 q 648 684 669 677 q 594 690 628 690 q 526 677 556 690 q 476 641 497 665 q 445 583 456 617 q 435 506 435 549 q 445 427 435 461 q 476 369 456 393 q 522 334 495 346 q 580 322 549 322 q 634 328 613 322 q 668 341 654 334 q 693 356 683 349 q 719 365 704 363 m 56 504 q 74 641 56 575 q 126 764 92 707 q 206 868 159 821 q 310 949 253 915 q 433 1000 367 982 q 569 1019 499 1019 q 706 1000 640 1019 q 830 949 772 982 q 934 868 887 915 q 1014 764 981 821 q 1066 641 1048 707 q 1085 504 1085 575 q 1066 368 1085 433 q 1014 245 1048 302 q 934 141 981 188 q 830 60 887 94 q 706 9 772 27 q 569 -10 640 -10 q 433 9 499 -10 q 310 60 367 27 q 206 141 253 94 q 126 245 159 188 q 74 368 92 302 q 56 504 56 433 m 159 504 q 191 337 159 415 q 277 202 222 260 q 408 112 333 145 q 569 79 483 79 q 732 112 656 79 q 864 202 808 145 q 952 337 919 260 q 984 504 984 415 q 969 619 984 564 q 928 721 955 674 q 864 808 901 769 q 780 874 826 847 q 681 917 734 902 q 569 932 627 932 q 408 899 483 932 q 277 808 333 865 q 191 672 222 750 q 159 504 159 594 z "},"℗":{"ha":1140,"x_min":56,"x_max":1085,"o":"m 576 506 q 633 514 612 506 q 666 534 655 521 q 681 564 678 547 q 685 603 685 582 q 681 640 685 623 q 668 668 678 656 q 639 688 658 681 q 589 694 620 694 l 522 694 l 522 506 l 576 506 m 589 818 q 705 801 656 818 q 786 755 754 784 q 833 686 818 725 q 848 603 848 647 q 833 523 848 561 q 786 455 818 485 q 705 408 754 426 q 588 390 656 390 l 522 390 l 522 194 l 356 194 l 356 818 l 589 818 m 569 79 q 732 112 656 79 q 864 202 808 145 q 952 337 919 260 q 984 504 984 415 q 969 619 984 564 q 928 721 955 674 q 864 808 901 769 q 780 874 826 847 q 681 917 734 902 q 569 932 627 932 q 408 899 483 932 q 277 808 333 865 q 191 672 222 750 q 159 504 159 594 q 191 337 159 415 q 277 202 222 260 q 408 112 333 145 q 569 79 483 79 m 569 1019 q 706 1000 640 1019 q 830 949 772 982 q 934 868 887 915 q 1014 764 981 821 q 1066 641 1048 707 q 1085 504 1085 575 q 1066 368 1085 433 q 1014 245 1048 302 q 934 141 981 188 q 830 60 887 94 q 706 9 772 27 q 569 -10 640 -10 q 433 9 499 -10 q 310 60 367 27 q 206 141 253 94 q 126 245 159 188 q 74 368 92 302 q 56 504 56 433 q 74 641 56 575 q 126 764 92 707 q 206 868 159 821 q 310 949 253 915 q 433 1000 367 982 q 569 1019 499 1019 z "},"®":{"ha":1140,"x_min":56,"x_max":1085,"o":"m 555 528 q 611 533 590 528 q 643 550 632 539 q 659 577 655 561 q 663 614 663 593 q 659 649 663 634 q 645 674 656 664 q 617 689 635 684 q 568 694 598 694 l 501 694 l 501 528 l 555 528 m 861 200 q 951 335 919 258 q 984 504 984 413 q 969 619 984 564 q 928 721 955 674 q 864 808 901 769 q 780 874 826 847 q 681 917 734 902 q 569 932 627 932 q 408 899 483 932 q 277 808 333 865 q 191 672 222 750 q 159 504 159 594 q 191 337 159 415 q 277 202 222 260 q 408 112 333 145 q 569 79 483 79 q 726 109 653 79 q 855 194 799 140 l 706 194 q 658 218 672 194 l 574 391 q 558 407 567 401 q 532 412 549 412 l 501 412 l 501 194 l 335 194 l 335 818 l 568 818 q 764 771 702 818 q 826 635 826 724 q 795 528 826 575 q 701 460 765 482 q 731 435 719 450 q 753 400 742 420 l 861 200 m 569 1019 q 706 1000 640 1019 q 830 949 772 982 q 934 868 887 915 q 1014 764 981 821 q 1066 641 1048 707 q 1085 504 1085 575 q 1066 368 1085 433 q 1014 245 1048 302 q 934 141 981 188 q 830 60 887 94 q 706 9 772 27 q 569 -10 640 -10 q 433 9 499 -10 q 310 60 367 27 q 206 141 253 94 q 126 245 159 188 q 74 368 92 302 q 56 504 56 433 q 74 641 56 575 q 126 764 92 707 q 206 868 159 821 q 310 949 253 915 q 433 1000 367 982 q 569 1019 499 1019 z "},"™":{"ha":1054,"x_min":55,"x_max":963,"o":"m 55 1008 l 405 1008 l 405 901 l 295 901 l 295 585 l 164 585 l 164 901 l 55 901 l 55 1008 m 963 1008 l 963 585 l 848 585 l 848 780 l 857 853 l 759 653 q 714 626 745 626 l 695 626 q 669 633 681 626 q 651 653 657 640 l 556 850 l 563 780 l 563 585 l 448 585 l 448 1008 l 562 1008 q 586 1005 578 1008 q 604 988 594 1001 l 683 823 q 704 770 697 795 q 714 797 708 783 q 726 823 719 810 l 808 988 q 826 1005 817 1001 q 850 1008 834 1008 l 963 1008 z "},"℠":{"ha":1058,"x_min":68,"x_max":967,"o":"m 355 914 q 343 901 349 905 q 327 897 337 897 q 311 901 319 897 q 292 909 303 905 q 269 918 282 914 q 240 922 256 922 q 210 914 223 922 q 198 892 198 907 q 211 874 198 880 q 245 861 225 867 q 290 848 266 856 q 334 825 314 840 q 368 787 355 810 q 382 726 382 763 q 371 668 382 695 q 340 621 360 641 q 291 590 320 601 q 223 578 261 578 q 181 583 203 578 q 139 595 160 587 q 100 613 119 603 q 68 636 81 624 l 100 694 q 111 705 104 701 q 127 710 119 710 q 147 705 138 710 q 167 693 156 699 q 193 682 178 688 q 226 677 207 677 q 258 687 249 677 q 267 711 267 697 q 254 734 267 726 q 220 747 240 741 q 175 760 199 753 q 131 782 151 767 q 97 821 110 797 q 83 886 83 845 q 94 936 83 912 q 124 978 104 960 q 173 1008 144 997 q 239 1019 201 1019 q 318 1006 281 1019 q 378 972 355 993 l 355 914 m 967 1008 l 967 585 l 852 585 l 852 780 l 861 853 l 763 653 q 744 633 756 640 q 718 626 733 626 l 699 626 q 654 653 668 626 l 560 849 l 567 780 l 567 585 l 452 585 l 452 1008 l 565 1008 q 580 1007 574 1008 q 590 1004 585 1006 q 599 998 594 1002 q 608 988 603 994 l 687 823 q 698 796 693 809 q 708 769 703 783 q 717 797 712 783 q 729 823 722 810 l 811 988 q 830 1005 822 1001 q 853 1008 838 1008 l 967 1008 z "},"°":{"ha":577,"x_min":42,"x_max":535,"o":"m 42 778 q 61 873 42 828 q 113 950 80 917 q 191 1001 147 983 q 288 1020 236 1020 q 385 1001 340 1020 q 464 950 431 983 q 516 873 497 917 q 535 778 535 828 q 516 686 535 729 q 464 609 497 642 q 385 557 431 576 q 288 538 340 538 q 191 557 236 538 q 113 609 147 576 q 61 686 80 642 q 42 778 42 729 m 175 778 q 183 732 175 753 q 207 695 192 710 q 243 670 222 679 q 288 661 263 661 q 333 670 313 661 q 369 695 354 679 q 392 732 384 710 q 401 778 401 753 q 392 824 401 803 q 369 862 384 846 q 333 887 354 878 q 288 896 313 896 q 243 887 263 896 q 207 862 222 878 q 183 824 192 846 q 175 778 175 803 z "},"¤":{"ha":806,"x_min":70,"x_max":735,"o":"m 284 467 q 293 421 284 443 q 319 382 303 399 q 357 356 335 365 q 403 346 378 346 q 450 356 428 346 q 488 382 472 365 q 514 421 504 399 q 523 467 523 443 q 514 516 523 493 q 488 555 504 538 q 450 581 472 572 q 403 590 428 590 q 357 581 378 590 q 319 555 335 572 q 293 516 303 538 q 284 467 284 493 m 639 140 l 534 244 q 472 218 505 227 q 403 209 439 209 q 336 217 367 209 q 276 242 304 226 l 169 137 l 74 231 l 179 335 q 152 398 162 365 q 143 467 143 431 q 152 535 143 503 q 177 597 161 567 l 70 702 l 167 795 l 272 692 q 334 717 301 708 q 403 726 367 726 q 470 718 438 726 q 531 693 502 709 l 636 799 l 732 705 l 626 600 q 653 538 644 571 q 663 467 663 504 q 654 400 663 432 q 629 340 645 368 l 735 234 l 639 140 z "},"€":{"ha":806,"x_min":19,"x_max":785,"o":"m 19 651 l 108 651 q 159 802 124 735 q 245 918 194 870 q 359 992 295 966 q 496 1017 422 1017 q 664 980 594 1017 q 779 878 733 942 l 711 806 q 695 791 703 797 q 672 784 687 784 q 644 795 656 784 q 615 820 632 806 q 573 844 599 833 q 504 856 547 856 q 378 804 430 856 q 305 651 326 753 l 640 651 l 640 594 q 626 562 640 577 q 588 547 612 547 l 292 547 q 291 526 291 537 q 291 504 291 515 l 291 475 l 574 475 l 574 417 q 559 386 574 401 q 522 371 545 371 l 301 371 q 371 206 320 260 q 496 152 422 152 q 550 158 527 152 q 589 174 572 165 q 616 193 605 183 q 636 213 627 204 q 655 228 646 222 q 674 235 663 235 q 689 232 683 235 q 702 222 695 230 l 785 147 q 661 31 738 71 q 485 -10 585 -10 q 339 18 403 -10 q 226 95 274 45 q 147 215 178 145 q 103 371 117 285 l 19 371 l 19 475 l 94 475 q 94 490 94 483 q 94 504 94 497 q 94 526 94 515 q 95 547 94 536 l 19 547 l 19 651 z "},"$":{"ha":806,"x_min":38,"x_max":759,"o":"m 444 149 q 544 194 510 158 q 577 290 577 230 q 569 331 577 313 q 546 363 560 349 q 511 387 531 376 q 467 406 491 398 l 444 149 m 390 857 q 330 841 355 852 q 289 815 305 831 q 266 782 274 800 q 259 742 259 763 q 267 700 259 719 q 290 667 275 682 q 324 641 304 653 q 369 621 344 630 l 390 857 m 483 583 q 550 562 517 574 q 614 536 583 551 q 671 502 644 522 q 717 457 697 483 q 748 397 737 431 q 759 319 759 363 q 737 197 759 254 q 673 95 715 140 q 569 24 631 51 q 429 -10 508 -4 l 421 -104 q 406 -137 419 -122 q 369 -151 392 -151 l 299 -151 l 313 -5 q 234 12 273 1 q 160 40 196 24 q 94 77 125 56 q 38 122 63 97 l 97 208 q 117 227 104 219 q 144 234 131 234 q 178 224 160 234 q 216 201 195 215 q 264 174 238 188 q 326 152 291 160 l 353 440 q 286 461 319 449 q 223 488 253 472 q 166 523 192 503 q 121 572 140 544 q 90 638 101 601 q 79 724 79 675 q 101 829 79 778 q 164 920 122 880 q 265 986 205 960 q 404 1017 326 1013 l 412 1099 q 427 1132 413 1117 q 463 1146 442 1146 l 534 1146 l 522 1010 q 650 967 597 997 q 742 899 703 937 l 694 830 q 674 807 685 814 q 647 799 663 799 q 623 805 637 799 q 591 820 608 811 q 552 838 574 828 q 508 853 531 847 l 483 583 z "},"¢":{"ha":806,"x_min":76,"x_max":735,"o":"m 418 582 q 302 511 339 569 q 265 358 265 453 q 294 220 265 274 q 377 144 323 166 l 418 582 m 735 108 q 679 58 709 78 q 617 23 649 37 q 550 2 585 10 q 481 -8 515 -6 l 472 -104 q 456 -136 470 -122 q 421 -151 442 -151 l 350 -151 l 363 -6 q 250 34 302 5 q 159 109 197 63 q 98 218 120 155 q 76 358 76 281 q 100 499 76 434 q 168 614 123 565 q 279 693 213 663 q 431 726 345 722 l 441 829 q 457 861 443 847 q 492 876 470 876 l 563 876 l 548 717 q 646 683 602 706 q 727 624 690 660 l 678 558 q 662 542 670 548 q 640 537 654 537 q 619 541 630 537 q 597 551 609 545 q 569 564 585 557 q 535 576 554 571 l 494 132 q 550 145 527 136 q 589 165 572 155 q 619 183 606 175 q 647 190 632 190 q 667 186 658 190 q 682 175 676 182 l 735 108 z "},"£":{"ha":806,"x_min":22,"x_max":782,"o":"m 22 474 q 38 518 22 499 q 86 536 54 536 l 153 536 l 153 694 q 173 818 153 759 q 233 922 193 877 q 334 993 274 967 q 478 1019 395 1019 q 578 1005 533 1019 q 658 966 623 990 q 719 907 693 941 q 765 835 746 874 l 688 786 q 637 774 662 772 q 592 798 613 776 q 567 824 579 813 q 542 844 555 835 q 513 856 528 852 q 478 860 497 860 q 381 817 413 860 q 350 694 350 774 l 350 536 l 624 536 l 624 462 q 620 444 624 453 q 609 428 617 435 q 592 417 602 422 q 571 413 583 413 l 350 413 l 350 290 q 334 211 350 247 q 289 147 317 176 q 344 156 317 152 q 401 160 372 160 l 782 160 l 782 81 q 776 52 782 67 q 759 26 770 38 q 734 7 749 15 q 700 0 719 0 l 35 0 l 35 117 q 80 132 58 122 q 118 156 101 142 q 144 192 134 171 q 153 240 153 213 l 153 413 l 22 413 l 22 474 z "},"¥":{"ha":806,"x_min":0,"x_max":806,"o":"m 531 441 l 714 441 l 714 338 l 499 338 l 499 273 l 714 273 l 714 169 l 499 169 l 499 0 l 307 0 l 307 169 l 92 169 l 92 273 l 307 273 l 307 338 l 92 338 l 92 441 l 274 441 l 0 1008 l 160 1008 q 203 995 186 1008 q 229 962 221 983 l 365 643 q 388 581 378 610 q 405 524 398 552 q 419 581 410 552 q 442 643 428 610 l 576 962 q 601 993 584 979 q 645 1008 619 1008 l 806 1008 l 531 441 z "},"℅":{"ha":1199,"x_min":25,"x_max":1179,"o":"m 849 978 q 873 999 859 990 q 910 1008 886 1008 l 1049 1008 l 297 28 q 273 8 287 16 q 239 0 258 0 l 96 0 l 849 978 m 393 649 q 413 640 404 649 l 471 578 q 392 514 440 535 q 280 493 344 493 q 172 514 219 493 q 92 570 124 534 q 42 654 59 606 q 25 758 25 702 q 44 864 25 815 q 98 948 63 913 q 180 1002 132 983 q 285 1022 228 1022 q 391 1002 345 1022 q 465 951 438 981 l 416 883 q 406 873 412 878 q 388 868 399 868 q 368 873 376 868 q 350 884 360 878 q 325 895 340 890 q 285 900 310 900 q 204 864 235 900 q 174 758 174 827 q 183 696 174 723 q 208 651 192 669 q 245 624 224 633 q 290 615 266 615 q 334 619 316 615 q 369 639 351 623 q 393 649 381 649 m 1179 254 q 1159 151 1179 199 q 1103 67 1140 103 q 1017 10 1067 31 q 904 -10 966 -10 q 791 10 842 -10 q 704 67 740 31 q 648 151 667 103 q 628 254 628 199 q 648 357 628 309 q 704 441 667 406 q 791 498 740 477 q 904 519 842 519 q 1017 498 966 519 q 1103 441 1067 477 q 1159 357 1140 405 q 1179 254 1179 308 m 1031 254 q 998 359 1031 321 q 904 397 965 397 q 809 359 842 397 q 776 254 776 321 q 809 149 776 187 q 904 112 842 112 q 998 149 965 112 q 1031 254 1031 187 z "},"№":{"ha":1645,"x_min":126,"x_max":1589,"o":"m 806 1008 l 990 1008 l 990 0 l 881 0 q 841 8 857 0 q 808 35 824 16 l 306 674 q 309 626 308 649 q 310 583 310 603 l 310 0 l 126 0 l 126 1008 l 235 1008 q 258 1007 249 1008 q 275 1002 268 1006 q 290 992 283 998 q 305 975 297 985 l 811 332 q 807 384 808 358 q 806 431 806 409 l 806 1008 m 1342 897 q 1270 867 1295 897 q 1245 786 1245 838 q 1270 706 1245 735 q 1342 676 1295 676 q 1415 706 1390 676 q 1440 786 1440 735 q 1415 867 1440 838 q 1342 897 1390 897 m 1344 550 q 1243 568 1288 550 q 1166 619 1198 587 q 1116 693 1133 651 q 1099 785 1099 736 q 1116 876 1099 833 q 1166 951 1133 919 q 1243 1002 1198 983 q 1344 1020 1288 1020 q 1444 1001 1399 1020 q 1521 951 1489 983 q 1571 876 1553 919 q 1589 785 1589 833 q 1571 693 1589 736 q 1521 619 1553 651 q 1444 568 1489 587 q 1344 550 1399 550 m 1103 488 l 1582 488 l 1582 355 l 1103 355 l 1103 488 z "},"#":{"ha":806,"x_min":15,"x_max":792,"o":"m 478 594 l 349 594 l 317 415 l 447 415 l 478 594 m 792 730 l 778 651 q 753 608 772 622 q 694 594 735 594 l 636 594 l 604 415 l 692 415 q 733 398 721 415 q 739 339 745 381 l 729 279 l 585 279 l 533 0 l 445 0 q 420 6 432 0 q 401 23 409 13 q 390 48 393 34 q 390 78 387 62 l 427 279 l 298 279 l 260 68 q 229 16 253 31 q 174 0 205 0 l 90 0 l 140 279 l 69 279 q 27 296 40 279 q 22 355 15 313 l 31 415 l 160 415 l 192 594 l 48 594 l 63 673 q 87 716 68 702 q 147 730 106 730 l 210 730 l 251 944 q 279 991 256 974 q 331 1008 301 1008 l 419 1008 l 367 730 l 497 730 l 549 1008 l 634 1008 q 682 989 664 1008 q 694 943 699 971 l 655 730 l 792 730 z "},"₀":{"ha":464,"x_min":32,"x_max":432,"o":"m 432 101 q 416 -16 432 34 q 373 -98 401 -65 q 309 -147 346 -131 q 230 -162 272 -162 q 152 -147 188 -162 q 89 -98 115 -131 q 47 -16 63 -65 q 32 101 32 34 q 47 219 32 169 q 89 302 63 269 q 152 350 115 335 q 230 366 188 366 q 309 350 272 366 q 373 302 346 335 q 416 219 401 269 q 432 101 432 169 m 294 101 q 290 183 294 152 q 277 231 285 214 q 257 253 269 247 q 230 258 244 258 q 204 253 215 258 q 185 231 193 247 q 174 183 178 214 q 169 101 169 152 q 174 20 169 51 q 187 -27 179 -10 q 206 -49 195 -44 q 230 -55 217 -55 q 255 -49 243 -55 q 275 -27 266 -44 q 289 20 284 -10 q 294 101 294 51 z "},"₁":{"ha":464,"x_min":48,"x_max":403,"o":"m 403 -71 l 403 -157 l 98 -157 l 98 -71 l 191 -71 l 191 160 l 195 196 l 150 161 q 131 153 140 154 q 114 153 122 151 q 100 159 106 155 q 90 167 94 163 l 48 224 l 213 360 l 328 360 l 328 -71 l 403 -71 z "},"₂":{"ha":464,"x_min":37,"x_max":422,"o":"m 376 -35 q 410 -47 398 -35 q 422 -78 422 -58 l 422 -157 l 37 -157 l 37 -113 q 42 -86 37 -101 q 59 -60 47 -72 l 201 79 q 229 110 216 94 q 251 144 242 127 q 267 177 261 161 q 272 208 272 194 q 261 244 272 230 q 229 258 251 258 q 199 249 210 258 q 178 221 187 240 q 155 197 168 204 q 115 195 142 190 l 38 207 q 61 278 44 248 q 103 327 78 308 q 163 357 129 347 q 237 366 197 366 q 312 354 279 366 q 366 321 344 342 q 399 272 388 300 q 410 213 410 244 q 402 161 410 185 q 379 116 393 138 q 346 74 365 94 q 308 33 327 54 l 227 -49 q 268 -39 248 -42 q 306 -35 288 -35 l 376 -35 z "},"₃":{"ha":464,"x_min":35,"x_max":416,"o":"m 47 207 q 70 278 53 248 q 112 327 87 308 q 169 357 137 347 q 238 366 201 366 q 310 354 278 366 q 363 323 342 342 q 396 280 385 304 q 407 231 407 256 q 390 157 407 187 q 335 110 374 127 q 395 71 375 96 q 416 6 416 46 q 400 -70 416 -38 q 357 -123 383 -102 q 297 -153 331 -143 q 231 -162 264 -162 q 164 -156 194 -162 q 109 -133 133 -149 q 67 -90 85 -117 q 35 -22 49 -62 l 94 3 q 136 7 117 12 q 164 -12 156 3 q 187 -40 172 -28 q 223 -51 201 -51 q 264 -36 249 -51 q 278 1 278 -22 q 274 31 278 19 q 259 49 269 42 q 230 58 248 56 q 183 60 211 60 l 183 149 q 230 152 212 149 q 258 164 248 156 q 272 182 268 171 q 276 206 276 192 q 265 242 276 228 q 230 256 255 256 q 198 247 209 256 q 179 222 186 238 q 157 197 169 203 q 118 195 145 190 l 47 207 z "},"₄":{"ha":464,"x_min":10,"x_max":434,"o":"m 259 43 l 259 141 q 260 179 259 158 q 264 222 261 199 l 135 43 l 259 43 m 434 43 l 434 -24 q 427 -41 434 -34 q 408 -49 420 -49 l 373 -49 l 373 -157 l 259 -157 l 259 -49 l 63 -49 q 35 -41 45 -49 q 22 -21 24 -33 l 10 37 l 241 360 l 373 360 l 373 43 l 434 43 z "},"₅":{"ha":464,"x_min":41,"x_max":411,"o":"m 198 178 q 244 182 221 182 q 316 170 285 182 q 368 139 347 159 q 400 90 389 118 q 411 28 411 62 q 396 -48 411 -13 q 355 -109 381 -83 q 290 -148 328 -134 q 207 -162 253 -162 q 113 -141 154 -162 q 41 -90 71 -119 l 81 -34 q 97 -20 88 -24 q 115 -16 106 -16 q 137 -22 128 -16 q 157 -34 147 -27 q 181 -46 167 -40 q 215 -51 194 -51 q 237 -48 226 -51 q 256 -37 247 -44 q 269 -17 264 -29 q 274 13 274 -5 q 258 60 274 44 q 215 75 242 75 q 182 71 199 75 q 151 61 166 67 l 69 83 l 115 360 l 390 360 l 390 305 q 373 260 390 278 q 312 242 355 242 l 209 242 l 198 178 z "},"₆":{"ha":464,"x_min":40,"x_max":426,"o":"m 237 -61 q 281 -42 263 -61 q 300 5 300 -24 q 285 56 300 38 q 238 74 269 74 q 192 56 209 74 q 174 6 174 38 q 191 -42 174 -24 q 237 -61 208 -61 m 270 215 q 235 180 256 197 q 196 144 215 164 q 235 164 214 156 q 281 172 257 172 q 330 164 304 172 q 377 138 356 156 q 412 92 398 120 q 426 22 426 63 q 412 -49 426 -15 q 373 -107 398 -82 q 313 -148 348 -133 q 233 -162 277 -162 q 151 -148 188 -162 q 90 -109 115 -134 q 52 -48 65 -83 q 40 28 40 -13 q 54 108 40 70 q 97 184 69 147 l 206 330 q 234 352 215 343 q 276 360 253 360 l 397 360 l 270 215 z "},"₇":{"ha":464,"x_min":51,"x_max":421,"o":"m 421 360 l 421 288 q 418 266 421 276 q 411 246 415 255 l 242 -114 q 235 -129 239 -122 q 224 -143 231 -137 q 207 -153 217 -149 q 180 -157 196 -157 l 74 -157 l 244 179 q 264 211 254 197 q 284 238 273 226 l 81 238 q 61 247 70 238 q 51 267 51 256 l 51 360 l 421 360 z "},"₈":{"ha":464,"x_min":42,"x_max":422,"o":"m 232 -61 q 258 -56 247 -61 q 274 -43 268 -51 q 282 -25 279 -35 q 284 -2 284 -14 q 274 44 284 29 q 232 58 263 58 q 191 44 202 58 q 180 -2 180 29 q 182 -25 180 -14 q 191 -43 185 -35 q 207 -56 197 -51 q 232 -61 217 -61 m 232 268 q 210 264 219 268 q 196 252 201 259 q 188 237 190 245 q 185 220 185 228 q 197 175 185 189 q 232 161 208 161 q 269 175 257 161 q 281 220 281 189 q 278 237 281 228 q 269 252 275 245 q 254 264 263 259 q 232 268 245 268 m 342 113 q 404 64 387 95 q 422 -5 422 33 q 408 -69 422 -40 q 369 -119 394 -99 q 309 -151 344 -140 q 232 -162 274 -162 q 155 -151 190 -162 q 95 -119 120 -140 q 56 -69 70 -99 q 42 -5 42 -40 q 60 64 42 33 q 122 113 78 95 q 59 222 59 146 q 72 279 59 253 q 109 325 85 306 q 164 355 132 344 q 232 366 195 366 q 301 355 269 366 q 356 325 333 344 q 392 279 378 306 q 405 222 405 253 q 342 113 405 146 z "},"₉":{"ha":464,"x_min":44,"x_max":415,"o":"m 174 205 q 189 158 174 173 q 233 144 203 144 q 275 159 259 144 q 291 206 291 174 q 274 250 291 234 q 233 265 258 265 q 189 249 203 265 q 174 205 174 233 m 201 6 q 226 33 213 20 q 251 60 240 47 q 222 53 238 55 q 191 51 207 51 q 140 60 166 51 q 93 88 114 69 q 58 134 72 107 q 44 198 44 162 q 57 259 44 228 q 94 313 70 289 q 153 351 119 337 q 231 366 188 366 q 309 354 274 366 q 367 320 343 342 q 403 267 390 298 q 415 197 415 235 q 397 91 415 137 q 344 -2 378 45 l 257 -127 q 229 -148 247 -139 q 188 -157 211 -157 l 65 -157 l 201 6 z "},"₊":{"ha":464,"x_min":55,"x_max":409,"o":"m 409 42 l 285 42 l 285 -91 l 177 -91 l 177 42 l 55 42 l 55 140 l 177 140 l 177 272 l 285 272 l 285 140 l 409 140 l 409 42 z "},"₋":{"ha":464,"x_min":67,"x_max":397,"o":"m 67 140 l 397 140 l 397 42 l 67 42 l 67 140 z "},"₌":{"ha":464,"x_min":67,"x_max":397,"o":"m 67 71 l 397 71 l 397 -26 l 67 -26 l 67 71 m 67 206 l 397 206 l 397 110 l 67 110 l 67 206 z "},"₍":{"ha":232,"x_min":28,"x_max":207,"o":"m 144 90 q 147 23 144 57 q 158 -44 151 -11 q 174 -110 165 -78 q 196 -169 184 -142 q 201 -202 207 -190 q 185 -219 195 -213 l 125 -256 q 51 -90 74 -176 q 28 90 28 -3 q 51 271 28 184 q 125 436 74 358 l 185 401 q 194 393 190 397 q 201 383 199 388 q 202 369 203 377 q 196 351 201 362 q 158 226 172 294 q 144 90 144 158 z "},"₎":{"ha":232,"x_min":28,"x_max":203,"o":"m 88 90 q 74 226 88 158 q 35 351 60 294 q 29 369 30 362 q 31 383 28 377 q 38 393 33 388 q 48 401 42 397 l 108 436 q 181 271 158 358 q 203 90 203 184 q 181 -90 203 -3 q 108 -256 158 -176 l 48 -219 q 38 -212 42 -217 q 31 -202 33 -208 q 29 -188 28 -196 q 35 -169 30 -180 q 58 -110 48 -142 q 74 -44 67 -78 q 84 23 81 -11 q 88 90 88 57 z "},"⁄":{"ha":194,"x_min":-285,"x_max":479,"o":"m -109 53 q -152 11 -129 22 q -204 0 -174 0 l -285 0 l 298 946 q 340 991 317 975 q 397 1008 364 1008 l 479 1008 l -109 53 z "},"⅔":{"ha":1045,"x_min":56,"x_max":992,"o":"m 347 53 q 304 11 326 22 q 251 0 281 0 l 170 0 l 753 946 q 796 991 772 975 q 853 1008 819 1008 l 935 1008 l 347 53 m 395 613 q 430 601 417 613 q 442 570 442 590 l 442 491 l 56 491 l 56 535 q 61 562 56 547 q 78 588 67 576 l 220 727 q 248 758 235 742 q 271 792 261 775 q 286 825 281 809 q 292 856 292 842 q 281 892 292 878 q 249 906 270 906 q 218 897 230 906 q 198 869 206 888 q 174 845 188 852 q 134 843 161 838 l 58 855 q 81 926 64 896 q 123 975 97 956 q 183 1005 149 995 q 256 1014 217 1014 q 331 1002 299 1014 q 386 969 364 990 q 419 920 408 948 q 430 861 430 892 q 421 809 430 833 q 398 764 413 785 q 365 722 384 742 q 327 681 347 702 l 247 599 q 288 609 267 606 q 325 613 308 613 l 395 613 m 624 364 q 647 435 630 405 q 688 484 663 465 q 745 514 713 504 q 814 523 777 523 q 886 511 855 523 q 940 480 918 499 q 972 437 961 461 q 983 388 983 413 q 967 314 983 344 q 911 267 950 284 q 972 228 951 253 q 992 163 992 203 q 976 87 992 119 q 933 34 960 55 q 874 4 907 14 q 807 -6 840 -6 q 740 1 770 -6 q 686 24 710 8 q 643 67 662 40 q 611 135 625 94 l 670 160 q 713 164 693 169 q 740 144 733 160 q 763 117 749 128 q 799 106 778 106 q 840 120 826 106 q 855 158 855 135 q 850 188 855 176 q 835 206 846 199 q 806 215 824 213 q 760 217 788 217 l 760 306 q 806 309 788 306 q 834 320 824 313 q 848 339 844 328 q 852 363 852 349 q 842 399 852 385 q 806 413 831 413 q 774 404 785 413 q 756 379 763 395 q 733 353 745 360 q 694 352 722 347 l 624 364 z "},"⅖":{"ha":1019,"x_min":54,"x_max":963,"o":"m 345 53 q 302 11 325 22 q 250 0 280 0 l 169 0 l 752 946 q 794 991 771 975 q 851 1008 818 1008 l 933 1008 l 345 53 m 393 613 q 427 601 415 613 q 440 570 440 590 l 440 491 l 54 491 l 54 535 q 59 562 54 547 q 76 588 65 576 l 218 727 q 246 758 233 742 q 269 792 259 775 q 284 825 278 809 q 290 856 290 842 q 279 892 290 878 q 247 906 268 906 q 216 897 228 906 q 196 869 204 888 q 172 845 185 852 q 132 843 159 838 l 56 855 q 78 926 62 896 q 121 975 95 956 q 181 1005 147 995 q 254 1014 215 1014 q 329 1002 297 1014 q 384 969 362 990 q 417 920 406 948 q 428 861 428 892 q 419 809 428 833 q 396 764 410 785 q 363 722 382 742 q 325 681 344 702 l 244 599 q 285 609 265 606 q 323 613 306 613 l 393 613 m 750 335 q 797 339 773 339 q 868 327 837 339 q 920 295 899 316 q 952 247 941 275 q 963 185 963 219 q 948 109 963 144 q 907 48 933 74 q 842 9 880 23 q 759 -6 805 -6 q 665 16 706 -6 q 593 67 623 38 l 633 123 q 649 137 640 133 q 667 141 658 141 q 689 135 680 141 q 709 123 699 130 q 733 111 719 117 q 767 106 747 106 q 789 109 778 106 q 808 120 799 113 q 821 140 816 128 q 826 170 826 152 q 810 217 826 201 q 767 232 794 232 q 734 228 751 232 q 703 218 718 224 l 622 240 l 667 517 l 942 517 l 942 462 q 925 417 942 435 q 864 399 907 399 l 761 399 l 750 335 z "},"+":{"ha":806,"x_min":62,"x_max":744,"o":"m 744 397 l 480 397 l 480 115 l 324 115 l 324 397 l 62 397 l 62 536 l 324 536 l 324 817 l 480 817 l 480 536 l 744 536 l 744 397 z "},"−":{"ha":806,"x_min":91,"x_max":715,"o":"m 91 536 l 715 536 l 715 397 l 91 397 l 91 536 z "},"×":{"ha":806,"x_min":69,"x_max":737,"o":"m 635 135 l 404 367 l 171 134 l 69 233 l 303 467 l 82 688 l 183 788 l 403 567 l 623 786 l 725 687 l 504 467 l 737 234 l 635 135 z "},"÷":{"ha":806,"x_min":62,"x_max":744,"o":"m 62 536 l 744 536 l 744 397 l 62 397 l 62 536 m 289 713 q 298 757 289 736 q 322 792 306 777 q 357 816 337 807 q 402 824 378 824 q 446 816 426 824 q 482 792 467 807 q 506 757 497 777 q 515 713 515 736 q 506 669 515 690 q 482 634 497 649 q 446 611 467 619 q 402 603 426 603 q 357 611 378 603 q 322 634 337 619 q 298 669 306 649 q 289 713 289 690 m 289 219 q 298 262 289 242 q 322 298 306 283 q 357 321 337 313 q 402 330 378 330 q 446 321 426 330 q 482 298 467 313 q 506 262 497 283 q 515 219 515 242 q 506 175 515 195 q 482 140 497 155 q 446 117 467 125 q 402 108 426 108 q 357 117 378 108 q 322 140 337 125 q 298 175 306 155 q 289 219 289 195 z "},"=":{"ha":806,"x_min":92,"x_max":714,"o":"m 92 412 l 714 412 l 714 272 l 92 272 l 92 412 m 92 661 l 714 661 l 714 522 l 92 522 l 92 661 z "},"≠":{"ha":806,"x_min":92,"x_max":714,"o":"m 508 522 l 452 412 l 714 412 l 714 272 l 381 272 l 299 113 l 163 113 l 244 272 l 92 272 l 92 412 l 316 412 l 372 522 l 92 522 l 92 661 l 444 661 l 519 809 l 656 809 l 580 661 l 714 661 l 714 522 l 508 522 z "},"≈":{"ha":806,"x_min":103,"x_max":701,"o":"m 550 632 q 594 637 573 632 q 632 650 615 642 q 661 665 649 657 q 678 678 674 672 l 701 558 q 628 506 673 522 q 538 490 584 490 q 464 500 501 490 q 392 523 427 510 q 323 547 356 536 q 260 557 290 557 q 216 552 238 557 q 176 539 194 547 q 146 523 158 531 q 129 509 134 515 l 103 624 q 176 681 131 663 q 273 699 222 699 q 347 688 310 699 q 419 665 383 678 q 487 642 454 653 q 550 632 520 632 m 550 380 q 594 385 573 380 q 632 398 615 390 q 661 413 649 405 q 678 426 674 420 l 701 306 q 628 254 673 270 q 538 238 584 238 q 464 249 501 238 q 392 272 427 259 q 323 294 356 284 q 260 305 290 305 q 216 300 238 305 q 176 287 194 294 q 146 272 158 280 q 129 257 134 263 l 103 372 q 176 430 131 412 q 273 447 222 447 q 347 437 310 447 q 419 414 383 426 q 487 390 454 401 q 550 380 520 380 z "},"<":{"ha":806,"x_min":102,"x_max":658,"o":"m 399 494 q 363 480 382 486 q 323 468 344 474 q 399 442 365 458 l 626 323 q 651 302 644 315 q 658 274 658 290 l 658 140 l 102 431 l 102 506 l 658 797 l 658 662 q 651 635 658 647 q 626 614 644 622 l 399 494 z "},">":{"ha":806,"x_min":147,"x_max":703,"o":"m 703 506 l 703 431 l 147 140 l 147 274 q 155 302 147 290 q 180 323 162 315 l 407 442 q 443 457 424 450 q 483 468 462 463 q 443 480 462 473 q 407 494 424 486 l 180 614 q 155 635 162 622 q 147 662 147 647 l 147 797 l 703 506 z "},"±":{"ha":806,"x_min":62,"x_max":744,"o":"m 62 195 l 744 195 l 744 56 l 62 56 l 62 195 m 744 631 l 744 492 l 480 492 l 480 262 l 324 262 l 324 492 l 62 492 l 62 631 l 324 631 l 324 872 l 480 872 l 480 631 l 744 631 z "},"≤":{"ha":806,"x_min":117,"x_max":673,"o":"m 117 195 l 673 195 l 673 56 l 117 56 l 117 195 m 413 582 q 373 569 394 574 q 328 558 351 563 q 373 547 352 553 q 413 533 394 540 l 631 434 q 664 410 656 424 q 673 382 673 397 l 673 253 l 117 519 l 117 595 l 673 859 l 673 731 q 665 702 673 715 q 632 678 656 688 l 413 582 z "},"≥":{"ha":806,"x_min":133,"x_max":689,"o":"m 133 195 l 689 195 l 689 56 l 133 56 l 133 195 m 689 595 l 689 519 l 133 253 l 133 382 q 141 410 133 397 q 174 434 150 424 l 392 533 q 433 547 412 540 q 478 558 453 553 q 433 569 454 563 q 392 582 412 574 l 174 678 q 141 702 149 688 q 133 731 133 715 l 133 859 l 689 595 z "},"¬":{"ha":806,"x_min":88,"x_max":710,"o":"m 710 201 l 549 201 l 549 397 l 88 397 l 88 536 l 710 536 l 710 201 z "},"℮":{"ha":1133,"x_min":61,"x_max":1083,"o":"m 826 645 q 809 750 826 703 q 763 831 793 797 q 687 882 732 864 q 585 900 642 900 q 486 881 531 900 q 408 828 440 863 q 358 746 376 794 q 340 640 340 698 l 340 615 l 826 615 l 826 645 m 340 390 q 359 281 340 331 q 417 192 379 230 q 508 132 454 153 q 629 110 561 110 q 796 147 721 110 q 931 268 872 183 l 1033 195 q 959 107 1001 146 q 862 40 917 67 q 739 -1 808 13 q 586 -15 671 -15 q 368 23 465 -15 q 203 128 272 60 q 98 290 135 196 q 61 497 61 384 q 78 636 61 569 q 128 761 96 703 q 206 866 160 819 q 309 947 251 913 q 434 998 367 980 q 577 1017 501 1017 q 732 997 662 1017 q 857 942 801 977 q 953 858 912 907 q 1023 752 995 810 q 1066 631 1051 695 q 1083 499 1081 566 l 340 499 l 340 390 z "},"ℓ":{"ha":817,"x_min":38,"x_max":794,"o":"m 572 879 q 503 852 539 879 q 436 779 468 826 q 379 669 404 732 q 340 533 353 606 q 458 591 404 560 q 551 657 513 622 q 611 729 590 692 q 633 805 633 766 q 617 859 633 839 q 572 879 601 879 m 326 390 q 332 270 326 317 q 348 195 338 223 q 375 157 359 167 q 410 146 390 146 q 456 158 433 146 q 497 190 478 170 q 532 235 516 210 q 560 288 548 260 l 718 250 q 664 145 698 193 q 584 64 629 98 q 484 10 539 29 q 369 -9 430 -9 q 280 9 320 -9 q 209 69 239 28 q 162 177 179 110 q 144 340 145 244 q 103 330 124 335 q 62 321 83 326 l 38 445 q 95 457 67 451 q 151 470 124 463 q 181 608 161 540 q 231 737 201 676 q 300 850 261 798 q 386 940 340 902 q 486 999 433 978 q 600 1020 540 1020 q 685 1004 649 1020 q 746 960 722 988 q 782 895 770 933 q 794 814 794 858 q 760 684 794 745 q 665 571 726 624 q 517 474 603 519 q 326 394 431 430 l 326 390 z "},"∞":{"ha":1013,"x_min":57,"x_max":956,"o":"m 715 307 q 749 313 733 307 q 778 331 766 318 q 799 363 791 343 q 806 411 806 383 q 799 459 806 439 q 778 491 791 478 q 749 509 766 503 q 715 515 733 515 q 678 507 695 515 q 646 485 661 499 q 617 452 631 471 q 590 411 603 433 q 617 370 603 389 q 646 337 631 351 q 678 315 661 323 q 715 307 695 307 m 299 307 q 335 315 319 307 q 367 337 352 323 q 397 370 383 351 q 424 411 410 389 q 397 452 410 433 q 367 485 383 471 q 335 507 352 499 q 299 515 319 515 q 265 509 281 515 q 235 491 248 503 q 215 459 222 478 q 207 411 207 439 q 215 363 207 383 q 235 331 222 343 q 265 313 248 318 q 299 307 281 307 m 722 666 q 812 647 769 666 q 886 594 854 628 q 938 514 919 560 q 956 411 956 467 q 938 308 956 355 q 886 227 919 261 q 812 174 854 193 q 722 156 769 156 q 653 165 684 156 q 595 192 622 175 q 548 231 569 208 q 507 279 526 253 q 466 231 488 253 q 418 192 444 208 q 360 165 392 175 q 291 156 329 156 q 201 174 244 156 q 127 227 159 193 q 76 308 94 261 q 57 411 57 355 q 76 514 57 467 q 127 594 94 560 q 201 647 159 628 q 291 666 244 666 q 360 656 329 666 q 418 630 392 647 q 466 591 444 613 q 507 542 488 568 q 548 591 526 568 q 595 630 569 613 q 653 656 622 647 q 722 666 684 666 z "},"∂":{"ha":814,"x_min":42,"x_max":770,"o":"m 203 926 q 260 965 232 948 q 320 993 289 981 q 388 1010 352 1004 q 467 1017 424 1017 q 588 990 533 1017 q 684 914 644 964 q 748 792 725 864 q 770 630 770 720 q 744 366 770 484 q 664 164 717 248 q 530 35 610 81 q 341 -10 449 -10 q 222 10 276 -10 q 127 70 167 31 q 65 165 88 110 q 42 290 42 221 q 70 441 42 371 q 148 562 99 510 q 263 642 197 613 q 406 672 329 672 q 519 650 472 672 q 598 588 565 628 l 598 628 q 586 734 598 689 q 554 809 575 779 q 505 854 533 839 q 441 869 476 869 q 393 862 416 869 q 351 847 371 855 q 315 831 331 838 q 287 824 299 824 q 267 830 277 824 q 245 854 256 836 l 203 926 m 363 135 q 428 149 397 135 q 488 194 460 163 q 538 275 516 225 q 572 399 559 326 q 554 447 565 424 q 526 488 543 470 q 484 516 508 506 q 426 526 460 526 q 343 509 378 526 q 285 461 308 492 q 251 387 263 430 q 240 292 240 344 q 273 176 240 217 q 363 135 305 135 z "},"∫":{"ha":693,"x_min":-1,"x_max":696,"o":"m 301 856 q 334 981 310 928 q 394 1068 358 1034 q 479 1119 431 1103 q 585 1136 527 1136 q 640 1131 610 1136 q 696 1111 669 1125 l 686 1033 q 682 1016 685 1023 q 674 1003 680 1008 q 657 996 667 999 q 630 994 647 994 q 564 986 590 994 q 520 963 537 979 q 495 922 503 947 q 483 862 487 897 l 394 44 q 361 -81 385 -28 q 300 -168 337 -134 q 215 -219 263 -203 q 110 -235 167 -235 q 55 -230 84 -235 q -1 -211 25 -225 l 8 -132 q 12 -115 10 -122 q 21 -103 15 -108 q 38 -96 27 -99 q 65 -94 48 -94 q 131 -86 104 -94 q 174 -62 158 -78 q 199 -22 191 -47 q 212 38 208 3 l 301 856 z "},"√":{"ha":860,"x_min":18,"x_max":863,"o":"m 863 1183 l 482 0 l 321 0 l 159 440 l 90 440 q 63 444 76 440 q 40 457 50 449 q 24 481 30 466 q 18 516 18 495 l 18 576 l 268 576 q 303 566 289 576 q 322 541 317 556 l 379 351 q 396 288 390 319 q 406 224 403 257 q 416 275 410 249 q 430 327 422 301 l 685 1149 q 703 1173 690 1163 q 736 1183 717 1183 l 863 1183 z "},"∏":{"ha":988,"x_min":49,"x_max":939,"o":"m 939 850 l 828 850 l 828 -231 l 631 -231 l 631 850 l 357 850 l 357 -231 l 160 -231 l 160 850 l 49 850 l 49 1008 l 939 1008 l 939 850 z "},"∑":{"ha":949,"x_min":49,"x_max":890,"o":"m 890 850 l 343 850 l 684 416 l 684 361 l 343 -74 l 890 -74 l 890 -231 l 49 -231 l 49 -166 q 53 -137 49 -152 q 69 -110 58 -122 l 472 391 l 69 886 q 53 914 58 899 q 49 942 49 928 l 49 1008 l 890 1008 l 890 850 z "},"◊":{"ha":806,"x_min":50,"x_max":756,"o":"m 572 504 l 442 782 q 419 838 428 810 q 403 897 410 867 q 388 839 397 867 q 365 784 378 811 l 237 504 l 360 235 q 385 172 375 203 q 403 109 396 141 q 421 172 410 140 q 447 234 431 203 l 572 504 m 756 504 l 469 -57 l 336 -57 l 50 504 l 336 1065 l 469 1065 l 756 504 z "},"←":{"ha":1389,"x_min":63,"x_max":1316,"o":"m 63 451 l 474 860 l 542 793 q 558 754 562 774 q 535 716 553 734 l 414 589 q 373 551 392 568 q 336 520 354 534 q 442 530 387 526 q 553 534 497 534 l 1316 534 l 1316 366 l 553 366 q 442 370 497 366 q 336 380 386 374 q 373 349 354 366 q 414 312 392 332 l 536 183 q 558 146 555 166 q 542 106 562 126 l 475 40 l 63 451 z "},"→":{"ha":1389,"x_min":73,"x_max":1326,"o":"m 1326 449 l 915 40 l 847 107 q 831 146 827 126 q 853 184 835 166 l 975 311 q 1016 349 997 332 q 1053 380 1035 366 q 947 370 1002 374 q 836 366 892 366 l 73 366 l 73 534 l 836 534 q 947 530 892 534 q 1053 520 1003 526 q 1016 551 1035 534 q 975 588 997 568 l 853 717 q 831 754 834 734 q 847 794 827 774 l 914 860 l 1326 449 z "},"↑":{"ha":1042,"x_min":109,"x_max":932,"o":"m 932 684 l 863 619 q 823 603 843 600 q 784 625 802 607 l 663 753 q 624 792 642 773 q 593 828 607 810 q 604 725 600 778 q 608 617 608 672 l 608 -157 l 434 -157 l 434 617 q 438 725 434 672 q 449 828 442 779 q 379 753 420 794 l 258 624 q 219 603 240 606 q 178 619 198 599 l 109 684 l 522 1094 l 932 684 z "},"↓":{"ha":1042,"x_min":109,"x_max":932,"o":"m 932 167 l 519 -244 l 109 167 l 178 232 q 218 248 198 251 q 257 226 239 244 l 378 99 q 417 60 399 78 q 449 24 434 41 q 438 126 442 72 q 434 233 434 179 l 434 1008 l 607 1008 l 607 233 q 603 126 607 179 q 592 23 599 72 q 662 99 620 57 l 784 226 q 823 248 802 244 q 863 232 843 251 l 932 167 z "},"↗":{"ha":1042,"x_min":22,"x_max":970,"o":"m 970 935 l 970 355 l 874 356 q 833 373 845 356 q 822 415 822 390 l 822 594 q 823 649 822 624 q 827 697 824 674 q 760 616 796 657 q 685 538 724 576 l 144 -10 l 22 109 l 563 657 q 644 731 602 695 q 726 797 685 766 q 677 792 703 794 q 622 791 651 791 l 449 791 q 406 802 423 790 q 389 841 389 814 l 388 935 l 970 935 z "},"↖":{"ha":1042,"x_min":72,"x_max":1019,"o":"m 1019 109 l 897 -10 l 357 538 q 282 616 318 576 q 215 697 246 657 q 219 649 217 674 q 220 594 220 624 l 220 415 q 208 373 220 390 q 168 356 197 356 l 72 355 l 72 935 l 654 935 l 653 841 q 636 802 653 814 q 593 791 619 790 l 420 791 q 364 792 390 791 q 316 797 338 794 q 398 731 356 766 q 479 657 440 695 l 1019 109 z "},"↘":{"ha":1042,"x_min":22,"x_max":970,"o":"m 970 581 l 970 1 l 388 0 l 389 94 q 406 133 389 121 q 449 144 423 144 l 622 144 q 726 138 681 143 q 644 205 685 169 q 563 278 602 240 l 22 826 l 144 944 l 685 397 q 759 319 724 360 q 826 239 795 278 q 823 286 824 261 q 822 340 822 311 l 822 521 q 833 563 822 546 q 874 579 845 579 l 970 581 z "},"↙":{"ha":1042,"x_min":72,"x_max":1019,"o":"m 72 0 l 72 580 l 168 578 q 208 562 197 578 q 220 520 220 545 l 220 340 q 219 285 220 310 q 215 238 217 260 q 282 318 246 278 q 357 397 318 358 l 897 944 l 1019 825 l 479 278 q 398 203 440 239 q 315 138 356 168 q 420 144 361 143 l 593 144 q 636 132 619 144 q 653 93 653 120 l 654 -1 l 72 0 z "},"↔":{"ha":1389,"x_min":63,"x_max":1326,"o":"m 1326 449 l 915 40 l 847 107 q 831 146 827 126 q 853 184 835 166 l 975 311 q 1016 349 997 332 q 1053 380 1035 366 q 947 370 1002 374 q 836 366 892 366 l 353 366 q 414 312 381 343 l 536 183 q 558 146 555 166 q 542 106 562 126 l 475 40 l 63 451 l 474 860 l 542 793 q 558 754 562 774 q 535 716 553 734 l 414 589 q 383 559 398 573 q 353 534 367 546 l 836 534 q 947 530 892 534 q 1053 520 1003 526 q 1016 551 1035 534 q 975 588 997 568 l 853 717 q 831 754 834 734 q 847 794 827 774 l 914 860 l 1326 449 z "},"↕":{"ha":1042,"x_min":109,"x_max":933,"o":"m 520 -244 l 110 167 l 178 232 q 219 248 199 251 q 258 226 240 244 l 379 99 q 409 69 395 83 q 434 41 422 55 l 434 617 q 438 725 434 672 q 449 828 442 779 q 417 792 435 810 q 379 753 400 774 l 258 624 q 219 603 240 606 q 178 619 198 599 l 109 684 l 522 1094 l 932 684 l 863 619 q 823 603 843 600 q 784 625 802 607 l 663 753 q 593 827 621 793 q 603 725 599 778 q 608 617 608 672 l 608 40 q 633 68 619 54 q 663 99 647 83 l 785 226 q 823 248 803 244 q 864 232 844 251 l 933 167 l 520 -244 z "},"Ơ":{"ha":1203,"x_min":47,"x_max":1185,"o":"m 563 165 q 690 188 634 165 q 785 255 746 211 q 845 361 824 299 q 866 504 866 424 q 845 646 866 583 q 785 753 824 709 q 690 820 746 797 q 563 844 634 844 q 436 820 492 844 q 341 753 380 797 q 281 646 301 709 q 260 504 260 583 q 281 361 260 424 q 341 255 301 299 q 436 188 380 211 q 563 165 492 165 m 1174 1110 q 1182 1074 1179 1095 q 1185 1030 1185 1052 q 1174 950 1185 988 q 1140 880 1163 912 q 1084 824 1118 849 q 1003 786 1050 800 q 1060 655 1040 726 q 1079 504 1079 584 q 1042 299 1079 394 q 937 136 1005 205 q 774 28 869 67 q 563 -11 679 -11 q 352 28 447 -11 q 189 136 257 67 q 84 299 121 205 q 47 504 47 394 q 84 709 47 615 q 189 872 121 803 q 352 980 257 940 q 563 1019 447 1019 q 775 980 680 1019 q 938 871 869 940 q 984 898 969 880 q 1000 938 1000 915 q 995 960 1000 950 q 986 980 991 969 q 976 1003 981 990 q 972 1033 972 1015 q 997 1090 972 1071 q 1074 1110 1022 1110 l 1174 1110 z "},"Ư":{"ha":1225,"x_min":93,"x_max":1242,"o":"m 1233 1110 q 1240 1074 1237 1095 q 1242 1030 1242 1052 q 1225 930 1242 976 q 1170 847 1207 883 q 1076 791 1133 812 q 942 769 1019 770 l 942 408 q 913 239 942 316 q 828 107 883 163 q 695 20 774 51 q 518 -11 617 -11 q 341 20 419 -11 q 207 107 262 51 q 123 239 152 163 q 93 408 93 316 l 93 1008 l 301 1008 l 301 408 q 316 308 301 352 q 358 232 331 263 q 426 184 386 201 q 518 167 467 167 q 609 184 569 167 q 677 232 649 201 q 719 308 705 263 q 734 408 734 352 l 734 1008 l 942 1008 l 942 864 q 1030 886 1001 865 q 1058 938 1058 908 q 1054 960 1058 950 q 1044 980 1049 969 q 1034 1003 1039 990 q 1030 1033 1030 1015 q 1055 1090 1030 1071 q 1132 1110 1080 1110 l 1233 1110 z "},"ơ":{"ha":876,"x_min":42,"x_max":906,"o":"m 402 133 q 524 190 484 133 q 563 358 563 247 q 524 526 563 469 q 402 583 484 583 q 278 526 318 583 q 239 358 239 469 q 278 190 239 247 q 402 133 318 133 m 897 826 q 904 792 901 812 q 906 750 906 772 q 896 675 906 710 q 864 609 885 639 q 810 557 843 579 q 731 523 776 535 q 760 359 760 449 q 735 205 760 274 q 662 89 709 137 q 549 15 615 41 q 402 -10 483 -10 q 255 15 321 -10 q 141 89 188 41 q 68 205 94 137 q 42 359 42 274 q 68 513 42 444 q 141 628 94 581 q 255 701 188 676 q 402 727 321 727 q 566 695 494 727 q 685 601 638 663 q 727 629 714 611 q 741 668 741 647 q 736 688 741 679 q 726 706 731 697 q 715 728 720 716 q 710 756 710 740 q 733 808 710 790 q 805 826 756 826 l 897 826 z "},"ư":{"ha":924,"x_min":72,"x_max":959,"o":"m 949 826 q 956 792 953 812 q 959 750 959 772 q 944 662 959 703 q 899 588 930 620 q 821 535 869 556 q 708 512 774 515 l 708 0 l 590 0 q 542 33 553 0 l 530 83 q 485 45 508 63 q 436 15 463 28 q 380 -4 410 3 q 315 -11 350 -11 q 211 9 256 -11 q 135 65 165 29 q 88 151 104 101 q 72 261 72 201 l 72 716 l 264 716 l 264 261 q 291 168 264 201 q 373 135 319 135 q 449 153 413 135 q 516 201 484 171 l 516 716 l 708 716 l 708 594 q 773 621 751 600 q 794 668 794 642 q 789 688 794 679 q 778 706 784 697 q 767 728 772 716 q 763 756 763 740 q 785 808 763 790 q 857 826 808 826 l 949 826 z "},"₫":{"ha":868,"x_min":49,"x_max":809,"o":"m 58 -62 l 788 -62 l 788 -178 l 58 -178 l 58 -62 m 528 503 q 469 547 501 534 q 403 560 438 560 q 339 547 368 560 q 290 508 310 535 q 258 439 269 481 q 247 338 247 397 q 283 185 247 232 q 386 138 320 138 q 465 158 432 138 q 528 216 497 178 l 528 503 m 809 899 l 809 783 l 719 783 l 719 0 l 601 0 q 553 33 565 0 l 538 96 q 442 19 494 48 q 322 -10 390 -10 q 210 14 260 -10 q 124 84 160 39 q 69 193 88 129 q 49 333 49 256 q 71 482 49 415 q 134 599 93 550 q 231 675 174 648 q 358 703 288 703 q 456 685 416 703 q 528 638 495 668 l 528 783 l 364 783 l 364 899 l 528 899 l 528 1035 l 719 1035 l 719 899 l 809 899 z "},"○":{"ha":920,"x_min":79,"x_max":840,"o":"m 79 451 q 109 599 79 529 q 191 720 139 668 q 312 801 242 772 q 460 831 381 831 q 608 801 538 831 q 729 720 677 772 q 810 599 781 668 q 840 451 840 529 q 810 303 840 372 q 729 182 781 233 q 608 100 677 130 q 460 70 538 70 q 312 100 381 70 q 191 182 242 130 q 109 303 139 233 q 79 451 79 372 m 249 451 q 265 366 249 406 q 310 298 282 327 q 377 252 339 269 q 460 235 416 235 q 542 252 503 235 q 610 298 581 269 q 656 366 639 327 q 672 451 672 406 q 656 535 672 495 q 610 604 639 574 q 542 650 581 633 q 460 667 503 667 q 377 650 416 667 q 310 604 339 633 q 265 535 282 574 q 249 451 249 495 z "},"◌":{"ha":920,"x_min":74,"x_max":847,"o":"m 408 784 q 423 820 408 805 q 460 835 439 835 q 498 820 483 835 q 513 784 513 805 q 498 747 513 763 q 460 732 483 732 q 423 747 439 732 q 408 784 408 763 m 535 758 q 550 795 535 780 q 587 810 565 810 q 624 795 609 810 q 640 758 640 780 q 624 722 640 738 q 587 707 609 707 q 550 722 565 707 q 535 758 535 738 m 643 688 q 658 724 643 709 q 695 739 674 739 q 733 724 717 739 q 748 688 748 709 q 733 651 748 666 q 695 636 717 636 q 658 651 674 636 q 643 688 643 666 m 713 579 q 728 616 713 601 q 766 631 744 631 q 803 616 788 631 q 818 579 818 601 q 803 543 818 558 q 766 528 788 528 q 728 543 744 528 q 713 579 713 558 m 742 450 q 758 486 742 472 q 795 501 773 501 q 832 486 817 501 q 847 450 847 472 q 832 414 847 428 q 795 399 817 399 q 758 414 773 399 q 742 450 742 428 m 278 758 q 294 795 278 780 q 331 810 309 810 q 369 795 353 810 q 384 758 384 780 q 369 722 384 738 q 331 707 353 707 q 294 722 309 707 q 278 758 278 738 m 170 688 q 186 724 170 709 q 223 739 201 739 q 260 724 245 739 q 276 688 276 709 q 260 651 276 666 q 223 636 245 636 q 186 651 201 636 q 170 688 170 666 m 99 579 q 115 616 99 601 q 152 631 130 631 q 189 616 174 631 q 205 579 205 601 q 189 543 205 558 q 152 528 174 528 q 115 543 130 528 q 99 579 99 558 m 74 450 q 90 486 74 472 q 127 501 105 501 q 164 486 149 501 q 180 450 180 472 q 164 414 180 428 q 127 399 149 399 q 90 414 105 399 q 74 450 74 428 m 713 324 q 728 360 713 345 q 766 375 744 375 q 803 360 788 375 q 818 324 818 345 q 803 287 818 302 q 766 272 788 272 q 728 287 744 272 q 713 324 713 302 m 99 324 q 115 360 99 345 q 152 375 130 375 q 189 360 174 375 q 205 324 205 345 q 189 287 205 302 q 152 272 174 272 q 115 287 130 272 q 99 324 99 302 m 643 215 q 658 251 643 236 q 695 267 674 267 q 733 251 717 267 q 748 215 748 236 q 733 178 748 194 q 695 163 717 163 q 658 178 674 163 q 643 215 643 194 m 170 215 q 186 251 170 236 q 223 267 201 267 q 260 251 245 267 q 276 215 276 236 q 260 178 276 194 q 223 163 245 163 q 186 178 201 163 q 170 215 170 194 m 535 145 q 550 181 535 166 q 587 197 565 197 q 624 181 609 197 q 640 145 640 166 q 624 108 640 124 q 587 93 609 93 q 550 108 565 93 q 535 145 535 124 m 278 145 q 294 181 278 166 q 331 197 309 197 q 369 181 353 197 q 384 145 384 166 q 369 108 384 124 q 331 93 353 93 q 294 108 309 93 q 278 145 278 124 m 408 116 q 423 152 408 137 q 460 167 439 167 q 498 152 483 167 q 513 116 513 137 q 498 79 513 94 q 460 64 483 64 q 423 79 439 64 q 408 116 408 94 z "},"͏":{"ha":0,"x_min":0,"x_max":0,"o":""},"᷂":{"ha":0,"x_min":-111,"x_max":128,"o":"m -111 -61 q -100 -51 -111 -57 q -72 -39 -88 -44 q -39 -29 -56 -33 q -10 -25 -22 -25 q 9 -28 0 -25 q 26 -35 17 -31 q 45 -45 35 -40 q 69 -55 56 -50 q 111 -78 93 -63 q 128 -115 128 -92 q 112 -151 128 -137 q 75 -172 95 -164 q 38 -183 55 -179 q 22 -190 22 -186 q 34 -195 22 -193 q 62 -203 47 -197 q 90 -219 77 -208 q 102 -252 102 -231 q 96 -276 102 -267 q 80 -292 90 -286 q 60 -302 71 -298 q 40 -309 49 -306 q 24 -316 31 -312 q 18 -326 18 -320 q 23 -336 18 -332 q 42 -344 28 -340 q 42 -348 42 -344 q 42 -353 42 -351 q 39 -356 41 -356 q -12 -338 6 -351 q -31 -306 -31 -326 q -19 -279 -31 -288 q 6 -265 -8 -270 q 32 -258 20 -260 q 44 -253 44 -256 q 28 -248 44 -250 q -8 -239 12 -245 q -43 -222 -27 -233 q -59 -187 -59 -210 q -43 -152 -59 -165 q -9 -132 -28 -140 q 25 -120 10 -124 q 41 -112 41 -116 q 26 -105 41 -105 q 13 -107 17 -105 q 5 -111 9 -109 q -3 -115 1 -113 q -17 -115 -8 -116 q -46 -108 -30 -114 q -76 -95 -62 -103 q -101 -78 -91 -87 q -111 -61 -111 -69 z "},"Ɓ":{"ha":1156,"x_min":19,"x_max":1102,"o":"m 727 160 q 809 172 776 160 q 861 204 842 184 q 888 250 880 224 q 896 304 896 276 q 887 359 896 335 q 858 400 878 383 q 805 426 838 417 q 726 435 773 435 l 549 435 l 549 160 l 727 160 m 549 849 l 549 577 l 685 577 q 763 584 729 577 q 820 608 797 592 q 855 650 843 624 q 867 713 867 676 q 857 776 867 750 q 826 819 847 803 q 774 842 806 835 q 698 849 742 849 l 549 849 m 698 1008 q 871 989 799 1008 q 988 934 942 969 q 1055 849 1033 899 q 1076 738 1076 799 q 1034 611 1076 668 q 900 521 993 554 q 1052 442 1003 497 q 1102 299 1102 387 q 1077 181 1102 235 q 1005 85 1053 126 q 889 23 958 45 q 731 0 819 0 l 340 0 l 340 859 l 333 859 q 268 852 294 859 q 226 831 242 844 q 203 796 210 817 q 196 747 196 775 q 199 714 196 729 q 204 692 202 699 q 207 674 206 683 q 203 657 207 665 q 192 643 200 649 q 169 633 184 636 l 48 606 q 26 675 34 642 q 19 749 19 708 q 40 856 19 808 q 100 937 60 903 q 199 989 140 971 q 333 1008 258 1008 l 698 1008 z "},"Ƅ":{"ha":991,"x_min":12,"x_max":969,"o":"m 580 665 q 752 638 679 665 q 874 566 826 611 q 945 461 922 521 q 969 334 969 401 q 944 202 969 263 q 872 96 919 141 q 755 26 824 51 q 594 0 685 0 l 194 0 l 194 596 l 12 719 l 249 1008 l 401 1008 l 401 665 l 580 665 m 591 160 q 675 177 642 160 q 728 222 708 195 q 755 280 747 248 q 763 339 763 311 q 753 399 763 369 q 724 452 744 429 q 671 490 704 476 q 590 505 638 505 l 402 505 l 402 160 l 591 160 z "},"Ɔ":{"ha":918,"x_min":14,"x_max":870,"o":"m 126 248 q 144 244 135 248 q 160 233 153 240 q 204 200 182 213 q 251 178 226 187 q 304 167 275 170 q 368 163 333 163 q 480 186 428 163 q 572 252 533 208 q 634 359 611 296 q 656 504 656 423 q 635 648 656 585 q 577 755 615 711 q 486 821 539 798 q 371 844 434 844 q 276 832 313 844 q 215 806 240 820 q 173 779 190 791 q 139 767 156 767 q 113 774 122 767 q 97 790 103 781 l 27 886 q 172 982 86 945 q 369 1019 258 1019 q 573 981 481 1019 q 731 874 665 942 q 834 712 797 806 q 870 504 870 617 q 836 298 870 392 q 739 135 802 203 q 585 27 676 66 q 382 -11 495 -11 q 166 29 257 -11 q 14 147 75 69 l 97 235 q 111 245 103 242 q 126 248 118 248 z "},"Ƈ":{"ha":923,"x_min":49,"x_max":1112,"o":"m 721 1002 q 732 1089 721 1046 q 770 1165 743 1131 q 842 1219 797 1199 q 955 1240 887 1240 q 1001 1238 981 1240 q 1041 1232 1022 1235 q 1076 1223 1059 1228 q 1112 1211 1094 1218 l 1085 1105 q 1074 1083 1081 1091 q 1059 1072 1067 1076 q 1042 1069 1051 1069 q 1024 1072 1033 1069 q 1001 1075 1014 1074 q 976 1077 989 1077 q 912 1047 931 1077 q 892 956 892 1016 l 892 886 l 822 790 q 806 774 816 781 q 780 767 797 767 q 746 779 763 767 q 704 806 729 791 q 642 832 679 820 q 548 844 606 844 q 432 821 485 844 q 342 755 380 798 q 283 648 304 711 q 263 504 263 585 q 285 359 263 423 q 347 252 308 296 q 439 186 386 208 q 551 163 491 163 q 615 167 586 163 q 668 178 644 170 q 715 200 693 187 q 759 233 737 213 q 775 244 767 240 q 793 248 783 248 q 808 245 801 248 q 822 235 816 242 l 905 147 q 753 29 844 69 q 538 -11 663 -11 q 334 27 424 -11 q 181 135 244 66 q 83 298 117 203 q 49 504 49 392 q 66 647 49 579 q 113 772 83 715 q 188 874 144 828 q 288 952 233 920 q 409 1002 344 985 q 549 1019 475 1019 q 640 1012 597 1019 q 721 992 683 1005 l 721 1002 z "},"Ɗ":{"ha":1291,"x_min":19,"x_max":1244,"o":"m 728 163 q 855 186 799 163 q 949 254 910 210 q 1009 361 988 298 q 1030 504 1030 424 q 1009 647 1030 583 q 949 753 988 710 q 855 821 910 797 q 728 844 799 844 l 550 844 l 550 163 l 728 163 m 728 1008 q 939 970 844 1008 q 1102 866 1034 933 q 1207 706 1169 799 q 1244 504 1244 614 q 1207 301 1244 394 q 1102 142 1169 208 q 939 38 1034 75 q 728 0 844 0 l 340 0 l 340 859 l 333 859 q 268 852 294 859 q 226 831 242 844 q 203 796 210 817 q 196 747 196 775 q 199 714 196 729 q 204 692 202 699 q 207 674 206 683 q 203 657 207 665 q 192 643 200 649 q 169 633 184 636 l 48 606 q 26 675 34 642 q 19 749 19 708 q 40 856 19 808 q 100 937 60 903 q 199 989 140 971 q 333 1008 258 1008 l 728 1008 z "},"Ƌ":{"ha":880,"x_min":40,"x_max":774,"o":"m 566 160 l 566 437 l 415 437 q 333 427 365 437 q 281 399 300 417 q 254 355 262 381 q 246 298 246 329 q 254 245 246 270 q 281 201 262 220 q 333 171 300 182 q 415 160 365 160 l 566 160 m 774 1008 l 774 0 l 415 0 q 256 23 326 0 q 138 88 186 46 q 65 188 90 129 q 40 319 40 247 q 60 426 40 376 q 126 515 81 476 q 243 575 172 553 q 415 597 314 597 l 566 597 l 566 849 l 77 849 l 77 1008 l 774 1008 z "},"Ǝ":{"ha":792,"x_min":45,"x_max":687,"o":"m 687 0 l 46 0 l 45 163 l 477 163 l 477 428 l 141 428 l 141 585 l 477 585 l 477 844 l 46 844 l 46 1008 l 687 1008 l 687 0 z "},"Ə":{"ha":1023,"x_min":44,"x_max":974,"o":"m 247 406 q 262 307 247 353 q 308 229 278 262 q 384 177 339 196 q 488 158 429 158 q 592 176 546 158 q 671 226 638 194 q 725 304 704 258 q 754 406 746 350 l 247 406 m 53 855 q 149 938 97 905 q 255 989 200 970 q 365 1016 310 1008 q 474 1023 421 1023 q 670 988 578 1023 q 829 885 761 953 q 935 717 897 817 q 974 485 974 617 q 941 292 974 383 q 844 134 907 202 q 690 27 781 67 q 487 -12 600 -12 q 308 19 390 -12 q 168 108 227 49 q 77 252 110 167 q 44 446 44 337 q 47 495 44 476 q 56 526 49 515 q 75 541 63 537 q 105 546 87 546 l 757 546 q 665 770 744 697 q 450 843 586 843 q 351 829 393 843 q 275 799 308 815 q 216 768 242 782 q 165 754 190 754 q 137 760 149 754 q 116 778 124 767 l 53 855 z "},"Ɛ":{"ha":826,"x_min":53,"x_max":810,"o":"m 810 156 q 723 74 769 106 q 626 24 676 42 q 522 -2 576 5 q 414 -10 469 -10 q 328 -1 372 -10 q 245 24 285 7 q 170 67 205 42 q 109 127 135 92 q 68 205 83 162 q 53 300 53 248 q 66 378 53 342 q 101 446 78 415 q 155 502 124 477 q 225 544 187 526 q 153 581 182 559 q 106 629 124 603 q 80 685 88 656 q 72 744 72 715 q 98 847 72 797 q 173 936 124 897 q 294 997 222 974 q 456 1020 365 1020 q 648 989 567 1020 q 786 905 728 958 l 740 824 q 712 796 726 801 q 688 790 699 790 q 655 800 672 790 q 610 821 637 810 q 546 842 584 833 q 451 852 508 852 q 378 842 408 852 q 329 816 348 833 q 301 778 310 800 q 292 733 292 757 q 336 641 292 674 q 467 608 379 608 l 635 608 l 635 463 l 449 463 q 366 449 400 463 q 309 416 331 436 q 277 370 288 395 q 267 319 267 344 q 280 258 267 287 q 318 208 293 229 q 382 174 344 187 q 469 162 419 162 q 545 170 513 162 q 599 190 576 178 q 639 215 622 201 q 671 242 656 229 q 687 253 678 249 q 705 257 695 257 q 720 254 713 257 q 734 244 728 251 l 810 156 z "},"Ƒ":{"ha":786,"x_min":-114,"x_max":747,"o":"m 315 844 l 315 566 l 678 566 l 678 402 l 315 402 l 315 35 q 300 -78 315 -26 q 252 -168 285 -130 q 170 -227 220 -206 q 51 -249 121 -249 q 0 -247 23 -249 q -42 -241 -22 -245 q -78 -232 -61 -237 q -114 -220 -96 -227 l -87 -114 q -77 -92 -83 -100 q -62 -82 -70 -85 q -44 -78 -53 -78 q -26 -81 -35 -78 q -3 -84 -16 -83 q 22 -86 9 -86 q 86 -56 67 -86 q 106 35 106 -25 l 106 1008 l 747 1008 l 747 844 l 315 844 z "},"Ɠ":{"ha":1012,"x_min":47,"x_max":1164,"o":"m 944 885 l 884 792 q 848 765 870 770 q 799 776 826 760 q 750 804 774 792 q 699 825 726 816 q 640 839 672 834 q 567 844 608 844 q 440 819 497 844 q 343 751 383 795 q 281 644 303 706 q 260 504 260 581 q 283 355 260 420 q 348 244 306 290 q 447 176 390 199 q 572 152 504 152 q 672 162 629 152 q 753 190 715 172 l 753 359 l 639 359 q 607 370 619 359 q 596 397 596 381 l 596 513 l 942 513 l 942 97 q 773 15 865 41 q 556 -11 680 -11 q 352 27 446 -11 q 191 135 259 66 q 85 298 123 203 q 47 504 47 392 q 84 712 47 617 q 190 874 121 806 q 356 981 258 942 q 574 1019 453 1019 q 680 1010 631 1019 q 773 988 729 1002 l 773 1002 q 784 1089 773 1046 q 822 1165 795 1131 q 894 1219 849 1199 q 1007 1240 939 1240 q 1053 1238 1033 1240 q 1093 1232 1074 1235 q 1128 1223 1111 1228 q 1164 1211 1146 1218 l 1137 1105 q 1126 1083 1133 1091 q 1111 1072 1119 1076 q 1094 1069 1103 1069 q 1076 1072 1085 1069 q 1053 1075 1066 1074 q 1028 1077 1041 1077 q 964 1047 983 1077 q 944 956 944 1016 l 944 885 z "},"Ɣ":{"ha":974,"x_min":-34,"x_max":1008,"o":"m 388 174 q 364 154 378 163 l 619 154 q 605 166 612 160 q 592 180 598 172 l 483 330 q 465 290 476 310 q 441 253 455 270 l 388 174 m 613 436 l 933 0 l 42 0 l 368 447 l -34 1008 l 169 1008 q 186 1006 179 1008 q 199 1002 193 1005 q 210 993 205 999 q 220 980 215 988 l 499 572 l 765 980 q 784 1001 774 994 q 808 1008 794 1008 l 1008 1008 l 613 436 z "},"Ɩ":{"ha":482,"x_min":101,"x_max":460,"o":"m 101 1008 l 311 1008 l 311 235 q 328 167 311 188 q 388 146 345 146 l 460 146 l 460 79 q 447 38 460 54 q 413 11 434 21 q 363 -3 391 1 q 306 -8 335 -8 q 217 10 256 -8 q 153 59 179 28 q 115 133 128 90 q 101 224 101 175 l 101 1008 z "},"Ƙ":{"ha":999,"x_min":106,"x_max":997,"o":"m 314 592 l 355 592 q 401 599 381 592 q 434 628 420 607 l 575 865 q 630 937 600 908 q 695 984 660 966 q 772 1009 731 1001 q 861 1017 813 1017 q 943 1010 912 1017 q 997 994 974 1003 l 977 890 q 967 869 974 876 q 953 858 961 861 q 937 854 945 854 q 920 855 928 854 q 898 858 911 856 q 872 860 884 860 q 808 844 836 860 q 765 801 781 828 l 648 607 q 613 565 633 581 q 571 538 593 548 q 617 512 597 528 q 656 469 638 496 l 982 0 l 797 0 q 766 3 778 0 q 743 10 753 6 q 726 23 733 15 q 713 40 719 30 l 456 401 q 425 428 443 420 q 374 437 406 437 l 314 437 l 314 0 l 106 0 l 106 1008 l 314 1008 l 314 592 z "},"Ɯ":{"ha":1525,"x_min":96,"x_max":1419,"o":"m 1419 1008 l 1419 3 l 1310 3 q 1245 50 1258 3 l 1224 139 q 1177 76 1201 103 q 1122 29 1152 48 q 1056 -1 1092 10 q 975 -11 1019 -11 q 820 32 882 -11 q 725 149 758 76 q 666 76 700 106 q 594 26 633 45 q 514 -2 556 7 q 432 -11 472 -11 q 282 14 345 -11 q 177 89 219 40 q 116 208 136 138 q 96 369 96 278 l 96 1008 l 306 1008 l 306 369 q 319 272 306 313 q 353 202 331 230 q 407 160 376 174 q 475 146 438 146 q 605 202 557 146 q 653 369 653 258 l 653 1008 l 863 1008 l 863 369 q 871 277 863 318 q 898 206 879 235 q 946 161 916 177 q 1019 146 976 146 q 1129 190 1080 146 q 1210 328 1178 233 l 1210 1008 l 1419 1008 z "},"Ɲ":{"ha":1074,"x_min":-114,"x_max":969,"o":"m 969 1008 l 969 0 l 861 0 q 820 8 837 0 q 788 35 803 16 l 285 674 q 289 626 288 650 q 290 583 290 603 l 290 10 q 276 -104 290 -52 q 234 -194 263 -156 q 158 -253 205 -232 q 43 -274 110 -274 q -3 -273 17 -274 q -43 -267 -24 -271 q -78 -258 -61 -263 q -114 -246 -96 -253 l -87 -140 q -77 -118 -83 -126 q -62 -107 -70 -110 q -44 -104 -53 -104 q -26 -106 -35 -104 q -3 -110 -16 -108 q 22 -112 9 -112 q 86 -81 67 -112 q 106 10 106 -51 l 106 1008 l 215 1008 q 238 1007 228 1008 q 255 1002 247 1006 q 269 992 263 998 q 285 975 276 985 l 790 333 q 786 384 788 360 q 785 431 785 409 l 785 1008 l 969 1008 z "},"Ɵ":{"ha":1126,"x_min":47,"x_max":1079,"o":"m 264 435 q 297 321 272 371 q 359 236 321 271 q 449 183 398 201 q 563 165 501 165 q 677 183 626 165 q 767 236 728 201 q 829 321 805 271 q 862 435 853 371 l 264 435 m 860 587 q 825 695 849 647 q 762 776 800 743 q 674 826 724 809 q 563 844 624 844 q 452 826 502 844 q 364 776 402 809 q 301 695 326 743 q 266 587 276 647 l 860 587 m 563 1019 q 774 980 679 1019 q 937 871 869 940 q 1042 708 1005 802 q 1079 504 1079 614 q 1042 299 1079 394 q 937 136 1005 205 q 774 28 869 67 q 563 -11 679 -11 q 352 28 447 -11 q 189 136 257 67 q 84 299 121 205 q 47 504 47 394 q 84 709 47 615 q 189 872 121 803 q 352 980 257 940 q 563 1019 447 1019 z "},"Ƣ":{"ha":1447,"x_min":48,"x_max":1347,"o":"m 532 158 q 646 183 596 158 q 731 252 697 207 q 784 360 766 297 q 803 504 803 424 q 784 647 803 583 q 731 756 766 711 q 646 825 697 801 q 532 849 596 849 q 418 825 468 849 q 333 756 368 801 q 280 647 299 711 q 262 504 262 583 q 280 360 262 424 q 333 252 299 297 q 418 183 368 207 q 532 158 468 158 m 1137 740 q 1131 784 1137 764 q 1113 819 1125 804 q 1084 843 1101 835 q 1043 852 1067 852 q 986 841 1014 852 q 934 810 959 830 q 995 670 974 747 q 1016 504 1016 592 q 983 300 1016 394 q 888 136 950 206 q 736 28 826 67 q 532 -10 646 -10 q 328 28 418 -10 q 176 136 238 67 q 81 300 114 206 q 48 504 48 394 q 81 709 48 615 q 176 872 114 803 q 328 980 238 940 q 532 1019 418 1019 q 705 992 627 1019 q 843 915 783 965 q 952 990 893 963 q 1088 1018 1011 1018 q 1200 999 1151 1018 q 1281 943 1248 979 q 1330 856 1313 907 q 1347 740 1347 804 l 1347 -237 l 1137 -237 l 1137 740 z "},"Ƥ":{"ha":1105,"x_min":19,"x_max":1078,"o":"m 681 506 q 824 553 778 506 q 869 683 869 601 q 858 751 869 720 q 823 804 847 782 q 764 838 800 826 q 681 849 728 849 l 549 849 l 549 506 l 681 506 m 681 1008 q 859 983 784 1008 q 983 916 934 959 q 1055 813 1031 872 q 1078 683 1078 753 q 1053 547 1078 608 q 980 440 1029 485 q 856 371 931 396 q 681 347 781 347 l 549 347 l 549 0 l 340 0 l 340 859 l 333 859 q 268 852 294 859 q 226 831 242 844 q 203 796 210 817 q 196 747 196 775 q 199 714 196 729 q 204 692 202 699 q 207 674 206 683 q 203 657 207 665 q 192 643 200 649 q 169 633 184 636 l 48 606 q 26 675 34 642 q 19 749 19 708 q 40 856 19 808 q 100 937 60 903 q 199 989 140 971 q 333 1008 258 1008 l 681 1008 z "},"Ʀ":{"ha":863,"x_min":106,"x_max":909,"o":"m 421 390 q 508 402 472 390 q 569 437 545 415 q 603 490 592 460 q 615 557 615 521 q 567 668 615 629 q 422 708 519 708 l 314 708 l 314 390 l 421 390 m 909 -141 l 721 -141 q 644 -101 668 -141 l 453 208 q 427 235 441 226 q 385 243 413 243 l 314 243 l 314 0 l 106 0 l 106 1019 l 314 1019 l 314 867 l 422 867 q 603 845 528 867 q 726 784 678 823 q 796 691 774 744 q 818 572 818 637 q 804 478 818 522 q 763 396 790 433 q 696 331 735 359 q 605 285 656 303 q 643 259 625 274 q 674 221 660 243 l 909 -141 z "},"Ƨ":{"ha":760,"x_min":37,"x_max":730,"o":"m 66 913 q 197 991 119 963 q 366 1019 275 1019 q 509 995 447 1019 q 615 931 572 971 q 681 839 658 891 q 703 731 703 787 q 683 615 703 663 q 631 535 663 568 q 558 482 599 503 q 474 445 517 461 q 390 416 431 429 q 317 384 349 402 q 265 340 285 366 q 245 275 245 315 q 255 222 245 244 q 284 185 265 200 q 328 164 302 171 q 385 157 353 157 q 472 171 435 157 q 535 201 508 185 q 582 232 562 218 q 622 246 603 246 q 648 239 636 246 q 668 220 660 231 l 730 122 q 661 67 700 92 q 579 26 623 43 q 487 -1 535 8 q 392 -11 440 -11 q 241 11 307 -11 q 130 75 175 34 q 60 172 84 115 q 37 297 37 228 q 57 403 37 359 q 109 478 76 447 q 182 531 141 510 q 266 570 224 553 q 350 602 309 587 q 424 635 392 617 q 476 677 456 653 q 496 735 496 701 q 488 782 496 760 q 463 819 479 803 q 421 843 446 835 q 363 852 397 852 q 292 841 322 852 q 238 818 261 831 q 196 795 214 806 q 164 784 178 784 q 138 791 148 784 q 117 815 127 799 l 66 913 z "},"Ƭ":{"ha":958,"x_min":22,"x_max":938,"o":"m 938 840 l 643 840 l 643 0 l 435 0 l 435 840 l 336 840 q 268 834 294 840 q 226 817 241 828 q 205 788 210 806 q 199 745 199 770 q 202 714 199 728 q 207 692 205 699 q 209 674 209 683 q 206 657 210 665 q 195 643 203 649 q 172 633 187 636 l 51 606 q 30 675 37 642 q 22 749 22 708 q 43 856 22 808 q 104 937 64 903 q 202 989 144 971 q 336 1008 261 1008 l 938 1008 l 938 840 z "},"Ʈ":{"ha":839,"x_min":21,"x_max":819,"o":"m 524 -13 q 530 -64 524 -41 q 546 -102 535 -86 q 575 -127 558 -118 q 617 -135 593 -135 q 650 -132 636 -135 q 674 -128 663 -128 q 698 -135 685 -128 q 716 -164 710 -142 l 738 -246 q 668 -268 702 -261 q 594 -274 635 -274 q 465 -253 518 -274 q 378 -194 412 -232 q 330 -105 345 -157 q 315 9 315 -53 l 315 840 l 21 840 l 21 1008 l 819 1008 l 819 840 l 524 840 l 524 -13 z "},"Ʊ":{"ha":1137,"x_min":53,"x_max":1084,"o":"m 569 -11 q 371 24 463 -11 q 213 121 280 59 q 108 267 147 183 q 70 449 70 351 q 90 583 70 519 q 146 698 110 646 q 232 789 182 750 q 344 851 283 828 q 269 843 307 846 q 197 840 232 840 l 53 840 l 53 944 q 72 990 53 972 q 123 1008 91 1008 l 494 1008 l 494 776 q 410 741 450 769 q 341 670 371 713 q 294 570 312 626 q 277 451 277 515 q 300 324 277 378 q 363 234 324 270 q 456 181 403 199 q 568 164 508 164 q 682 181 628 164 q 774 234 735 199 q 837 324 814 270 q 860 451 860 378 q 842 570 860 515 q 795 670 825 626 q 727 741 766 713 q 643 776 688 769 l 643 1008 l 1015 1008 q 1065 990 1046 1008 q 1084 944 1084 972 l 1084 840 l 940 840 q 868 843 905 840 q 794 851 831 846 q 905 789 855 828 q 992 697 956 749 q 1048 582 1028 645 q 1067 449 1067 519 q 1029 267 1067 351 q 924 121 991 183 q 766 24 857 59 q 569 -11 675 -11 z "},"Ʋ":{"ha":1023,"x_min":97,"x_max":975,"o":"m 547 991 q 617 1012 584 1005 q 693 1019 650 1019 q 905 935 835 1019 q 975 692 975 851 q 954 512 975 600 q 895 345 933 424 q 804 202 857 267 q 688 89 751 136 q 552 15 624 42 q 403 -11 480 -11 q 281 10 338 -11 q 184 73 225 31 q 120 182 143 116 q 97 336 97 247 l 97 1008 l 306 1008 l 306 336 q 315 258 306 291 q 342 203 325 225 q 383 171 359 181 q 435 160 406 160 q 513 178 473 160 q 589 230 552 197 q 658 312 626 264 q 715 421 690 360 q 753 552 739 481 q 767 703 767 624 q 764 761 767 733 q 752 810 761 788 q 725 844 742 831 q 680 857 708 857 q 657 855 669 857 q 635 851 645 853 q 617 849 626 849 q 599 852 608 849 q 584 863 591 856 q 574 885 578 871 l 547 991 l 547 991 z "},"Ƴ":{"ha":1033,"x_min":-15,"x_max":1033,"o":"m 625 850 q 680 929 651 897 q 740 981 708 961 q 808 1010 772 1001 q 888 1019 844 1019 q 928 1017 910 1019 q 965 1011 947 1015 q 999 1002 982 1008 q 1033 990 1015 997 l 1006 890 q 995 868 1002 876 q 981 857 989 860 q 964 854 973 853 q 945 856 954 854 q 925 861 939 858 q 896 865 910 865 q 843 849 865 865 q 803 803 821 834 l 560 388 l 560 0 l 351 0 l 351 388 l -15 1008 l 169 1008 q 212 995 196 1008 q 239 962 228 982 l 403 644 q 433 585 420 613 q 457 531 447 558 q 480 586 467 558 q 510 644 493 614 l 625 850 z "},"Ƶ":{"ha":847,"x_min":26,"x_max":810,"o":"m 810 931 q 790 869 810 897 l 596 592 l 781 592 l 781 441 l 489 441 l 293 163 l 797 163 l 797 0 l 26 0 l 26 81 q 31 110 26 96 q 44 136 36 124 l 259 441 l 80 441 l 80 592 l 365 592 l 543 844 l 61 844 l 61 1008 l 810 1008 l 810 931 z "},"Ʒ":{"ha":824,"x_min":17,"x_max":774,"o":"m 475 631 q 611 600 554 624 q 704 539 668 576 q 757 453 740 502 q 774 350 774 405 q 740 196 774 263 q 648 83 705 129 q 518 14 591 38 q 367 -10 444 -10 q 179 30 269 -10 q 17 156 89 70 l 99 246 q 118 259 109 258 q 134 261 128 261 q 154 257 144 261 q 183 238 164 253 q 209 215 193 228 q 247 190 224 201 q 298 170 269 178 q 366 162 328 162 q 452 176 416 162 q 513 216 489 191 q 549 274 538 241 q 561 342 561 306 q 550 400 561 374 q 516 445 540 426 q 453 475 492 465 q 359 485 415 485 l 215 485 l 215 574 q 221 605 215 588 q 244 637 227 622 l 459 844 l 57 844 l 57 1008 l 744 1008 l 744 931 q 739 897 744 915 q 714 859 734 878 l 475 631 z "}}}
